<svg xmlns="http://www.w3.org/2000/svg" viewBox="0 0 3000 851.14"><defs><style>.cls-1{font-size:151.67px;fill:#ff5100;letter-spacing:0.05em;}.cls-1,.cls-2,.cls-21{font-family:Baskerville;}.cls-2{font-size:82.98px;}.cls-2,.cls-21{fill:#4e4d4d;}.cls-3{letter-spacing:-0.04em;}.cls-4{letter-spacing:-0.12em;}.cls-21,.cls-5{font-size:58.09px;}.cls-6{letter-spacing:-0.08em;}.cls-7{letter-spacing:-0.1em;}.cls-8{letter-spacing:-0.08em;}.cls-9{letter-spacing:-0.01em;}.cls-10{letter-spacing:-0.02em;}.cls-11{letter-spacing:-0.08em;}.cls-12{letter-spacing:-0.07em;}.cls-13{letter-spacing:0.01em;}.cls-14{letter-spacing:-0.03em;}.cls-15{letter-spacing:-0.02em;}.cls-16{letter-spacing:-0.07em;}.cls-17{letter-spacing:0.04em;}.cls-18{letter-spacing:-0.01em;}.cls-19{letter-spacing:0.01em;}.cls-20{letter-spacing:-0.07em;}.cls-22{letter-spacing:0em;}.cls-23{letter-spacing:-0.02em;}.cls-24{letter-spacing:-0.04em;}.cls-25{letter-spacing:-0.05em;}.cls-26{letter-spacing:-0.11em;}.cls-27{letter-spacing:-0.08em;}.cls-28{letter-spacing:-0.08em;}.cls-29{letter-spacing:-0.07em;}.cls-30{fill:none;stroke:#b3b2b2;stroke-miterlimit:10;stroke-width:1.55px;}</style></defs><g id="Capa_2" data-name="Capa 2"><g id="Capa_1-2" data-name="Capa 1"><text class="cls-1" transform="translate(126.56 707.95) rotate(-90)">BLANCO</text><text class="cls-2" transform="translate(387.87 69.73)"><tspan class="cls-3">A</tspan><tspan x="53.12" y="0">G</tspan><tspan class="cls-4" x="117.1" y="0">A</tspan><tspan x="163.33" y="0">VE TYPE</tspan><tspan class="cls-5"><tspan x="0" y="74.68">Blue </tspan><tspan class="cls-6" x="119.83" y="74.68">W</tspan><tspan x="170" y="74.68">eber / </tspan><tspan class="cls-7" x="331.58" y="74.68">T</tspan><tspan x="366.19" y="74.68">equilana </tspan><tspan class="cls-6" x="580.41" y="74.68">W</tspan><tspan x="630.58" y="74.68">eber</tspan></tspan><tspan x="0" y="224.05">ABV / P</tspan><tspan class="cls-8" x="299.1" y="224.05">R</tspan><tspan x="352.71" y="224.05">OOF</tspan><tspan class="cls-5"><tspan x="0" y="298.73">40% a</tspan><tspan class="cls-9" x="150.66" y="298.73">b</tspan><tspan x="180.36" y="298.73">v (80 - p</tspan><tspan class="cls-10" x="370.98" y="298.73">r</tspan><tspan x="391.06" y="298.73">oof)</tspan></tspan></text><text class="cls-2" transform="translate(387.87 522.7)">FERMEN<tspan class="cls-11" x="349.22" y="0">T</tspan><tspan class="cls-12" x="400.15" y="0">A</tspan><tspan x="450.19" y="0">TION</tspan><tspan class="cls-5"><tspan x="0" y="74.68">100% A</tspan><tspan class="cls-13" x="191.81" y="74.68">g</tspan><tspan class="cls-14" x="219.61" y="74.68">a</tspan><tspan class="cls-15" x="245.17" y="74.68">v</tspan><tspan x="270.69" y="74.68">e</tspan><tspan class="cls-16" x="0" y="149.37">F</tspan><tspan x="27.77" y="149.37">e</tspan><tspan class="cls-17" x="53.18" y="149.37">r</tspan><tspan x="76.47" y="149.37">ment</tspan><tspan class="cls-18" x="196.27" y="149.37">a</tspan><tspan x="222.93" y="149.37">tion with and without fibe</tspan><tspan class="cls-19" x="826.2" y="149.37">r</tspan><tspan x="847.95" y="149.37">s</tspan><tspan x="0" y="224.05">Stainless Steel </tspan><tspan class="cls-6" x="341.26" y="224.05">T</tspan><tspan x="376.91" y="224.05">anks</tspan></tspan></text><text class="cls-2" transform="translate(2360.5 294.4)">DISTILL<tspan class="cls-20" x="324.91" y="0">A</tspan><tspan x="374.95" y="0">TION</tspan><tspan class="cls-5"><tspan x="0" y="74.68">2X</tspan></tspan></text><text class="cls-2" transform="translate(2360.5 519.48)">COOKING<tspan class="cls-5"><tspan class="cls-13" x="0" y="74.68">T</tspan><tspan x="41.1" y="74.68">he</tspan><tspan class="cls-17" x="97.37" y="74.68">r</tspan><tspan x="120.65" y="74.68">mal</tspan></tspan></text><text class="cls-21" transform="translate(1385.08 745.74)">(Cha<tspan class="cls-10" x="113.76" y="0">r</tspan><tspan class="cls-22" x="133.84" y="0">coal Filtr</tspan><tspan class="cls-9" x="342.02" y="0">a</tspan><tspan x="368.68" y="0">tion / No additi</tspan><tspan class="cls-23" x="740.2" y="0">v</tspan><tspan x="765.73" y="0">es / </tspan><tspan class="cls-24" x="869.82" y="0">K</tspan><tspan x="913.04" y="0">osher / N</tspan><tspan class="cls-9" x="1141.79" y="0">a</tspan><tspan x="1168.45" y="0">tural Co</tspan><tspan class="cls-15" x="1363.3" y="0">r</tspan><tspan x="1383.38" y="0">k)</tspan></text><text class="cls-2" transform="translate(1382.1 522.7)">STILL TYPE<tspan class="cls-5"><tspan x="0" y="74.68">Column &amp; Copper </tspan><tspan class="cls-25" x="454.45" y="74.68">P</tspan><tspan x="484.46" y="74.68">ot</tspan></tspan></text><text class="cls-2" transform="translate(2358.56 69.25)">C<tspan class="cls-26" x="59.64" y="0">R</tspan><tspan x="110.86" y="0">USHING</tspan><tspan class="cls-5"><tspan x="0" y="74.68">Di</tspan><tspan class="cls-13" x="58.68" y="74.68">f</tspan><tspan x="74.99" y="74.68">fuser</tspan></tspan></text><text class="cls-2" transform="translate(1382.1 69.49)"><tspan class="cls-3">A</tspan><tspan x="53.12" y="0">G</tspan><tspan class="cls-4" x="117.1" y="0">A</tspan><tspan x="163.33" y="0">VE REGION</tspan><tspan class="cls-5"><tspan class="cls-7" x="0" y="74.68">T</tspan><tspan x="34.6" y="74.68">equila </tspan><tspan class="cls-24" x="190.74" y="74.68">J</tspan><tspan x="209.14" y="74.68">alisco</tspan></tspan><tspan class="cls-12" x="0" y="224.05">WA</tspan><tspan x="122.53" y="224.05">TER SOU</tspan><tspan class="cls-27" x="490.71" y="224.05">R</tspan><tspan x="544.96" y="224.05">CE</tspan><tspan class="cls-5"><tspan x="0" y="298.73">De</tspan><tspan class="cls-13" x="69.57" y="298.73">e</tspan><tspan x="95.55" y="298.73">p </tspan><tspan class="cls-28" x="140.34" y="298.73">W</tspan><tspan x="190.51" y="298.73">ell </tspan><tspan class="cls-29" x="258.3" y="298.73">W</tspan><tspan class="cls-9" x="309.04" y="298.73">a</tspan><tspan x="335.7" y="298.73">ter</tspan></tspan></text><line class="cls-30" x1="207.03" y1="4.7" x2="207.03" y2="743.71"/></g></g></svg>