<?xml version="1.0" encoding="utf-8"?>
<!-- Generator: Adobe Illustrator 24.3.0, SVG Export Plug-In . SVG Version: 6.00 Build 0)  -->
<svg version="1.1" id="Capa_1" xmlns="http://www.w3.org/2000/svg" xmlns:xlink="http://www.w3.org/1999/xlink" x="0px" y="0px"
	 viewBox="0 0 82 82.1" style="enable-background:new 0 0 82 82.1;" xml:space="preserve">
<style type="text/css">
	.st0{fill:#FF4D00;}
</style>
<g id="Capa_2_1_">
	<g id="Capa_1-2">
		<g id="Capa_2-2">
			<g id="Pagina_Principal">
				<path class="st0" d="M64.1,68.3l0.7-0.7l2.6,2.9c0.1-0.3,0.3-0.5,0.5-0.7l0.7-0.6l0.6,0.7l-0.6,0.5c-0.2,0.2-0.4,0.4-0.4,0.6
					c0,0.2,0,0.4,0.1,0.5l-0.7,0.7L64.1,68.3z"/>
				<path class="st0" d="M60.7,71.1c0.4-0.1,0.9,0,1.3,0.2c0.4,0.2,0.7,0.5,0.9,0.9l0.4,0.6c0.2,0.4,0.3,0.8,0.3,1.2
					c0,0.4-0.2,0.9-0.4,1.2c-0.3,0.4-0.7,0.7-1.1,1c-0.4,0.3-0.9,0.4-1.4,0.5c-0.4,0-0.9,0-1.3-0.2c-0.4-0.2-0.7-0.5-0.9-0.9
					L58.2,75c-0.5-0.7-0.5-1.7,0.1-2.4c0.3-0.4,0.6-0.8,1.1-1C59.7,71.3,60.2,71.1,60.7,71.1 M58.9,73.3c-0.2,0.4-0.1,0.8,0.1,1.2
					l0.4,0.6c0.2,0.4,0.5,0.6,0.9,0.7c0.9,0,1.8-0.5,2.2-1.3c0.1-0.4,0.1-0.8-0.1-1.1L62,72.7c-0.2-0.4-0.5-0.6-0.9-0.6
					c-0.5,0-0.9,0.1-1.3,0.3C59.3,72.6,59,73,58.9,73.3"/>
				<path class="st0" d="M53.6,74.7c0.4,0,0.8,0.2,1.2,0.5c0.3,0.3,0.6,0.6,0.7,1l0.2,0.7c0.1,0.4,0.2,0.9,0.1,1.3
					c-0.1,0.4-0.4,0.8-0.7,1.1c-0.8,0.7-1.7,1-2.7,0.9c-0.4-0.1-0.8-0.2-1.2-0.5c-0.3-0.3-0.6-0.6-0.7-1.1L50.2,78
					c-0.3-0.8-0.1-1.8,0.6-2.3c0.4-0.3,0.8-0.6,1.3-0.7C52.6,74.8,53.1,74.7,53.6,74.7 M51.3,76.6c-0.2,0.3-0.3,0.7-0.1,1.1l0.2,0.7
					c0.1,0.4,0.4,0.7,0.8,0.8c0.9,0.3,1.9,0,2.5-0.8c0.2-0.3,0.3-0.8,0.1-1.1l-0.2-0.7c-0.1-0.4-0.4-0.7-0.8-0.8
					C52.8,75.6,51.9,75.9,51.3,76.6"/>
				<path class="st0" d="M42.8,77c0.3,0.2,0.5,0.5,0.5,0.9V78c0.1,0.4-0.1,0.7-0.3,1c-0.7,0.5-1.6,0.6-2.3,0.2
					c-0.3-0.2-0.5-0.5-0.5-0.9v-0.1c0-0.4,0.1-0.7,0.3-0.9C41.2,76.7,42.1,76.6,42.8,77 M41.2,77.6c-0.1,0.1-0.2,0.3-0.2,0.4v0.1
					c0,0.2,0.1,0.3,0.2,0.4c0.2,0.1,0.3,0.1,0.5,0.1c0.2,0,0.4-0.1,0.5-0.2c0.1-0.1,0.2-0.3,0.2-0.4l0,0c0-0.2-0.1-0.3-0.2-0.4
					c-0.2-0.1-0.3-0.1-0.5-0.1C41.5,77.5,41.4,77.6,41.2,77.6 M42.3,82l-1,0.1v-0.2l4.3-5.4l0.9-0.1v0.1L42.3,82z M47.2,79.4
					c0.3,0.2,0.5,0.5,0.5,0.9v0.1c0,0.4-0.1,0.7-0.4,0.9c-0.7,0.5-1.6,0.6-2.3,0.2c-0.3-0.2-0.5-0.5-0.5-0.9v-0.1
					c0-0.3,0.1-0.7,0.4-0.9c0.3-0.3,0.7-0.4,1.1-0.4C46.4,79.1,46.8,79.2,47.2,79.4 M45.6,80.1c-0.1,0.1-0.2,0.3-0.2,0.4v0.1
					c0,0.2,0.1,0.3,0.2,0.4c0.2,0.1,0.3,0.1,0.5,0.1c0.2,0,0.4-0.1,0.5-0.2c0.1-0.1,0.2-0.3,0.2-0.4v-0.1c0-0.2-0.1-0.3-0.2-0.4
					C46.3,79.9,45.9,79.9,45.6,80.1"/>
				<path class="st0" d="M29.1,80.2c-0.8-0.2-1.4-0.6-1.9-1.2c-0.3-0.6-0.4-1.3-0.2-2v-0.1c0.2-0.7,0.6-1.3,1.3-1.6
					c0.7-0.3,1.5-0.3,2.3,0L33,76l-1.5,5L29.1,80.2z M28.9,76c-0.4,0.2-0.7,0.6-0.8,1v0.1c-0.3,1.1,0.1,1.8,1.4,2.2l1.5,0.4l1-3.3
					L30.4,76C29.9,75.8,29.4,75.8,28.9,76"/>
				<polygon class="st0" points="19,75.6 19.4,74.8 22.5,76.6 23.1,75.5 20.2,73.8 20.6,73 23.5,74.7 24.2,73.6 21.1,71.8 21.5,71 
					25.5,73.3 22.9,77.8 				"/>
				<path class="st0" d="M12.4,62.8l0.1-0.1l0.7,0.8l-0.5,1.2l1.9,2.1l1.2-0.4l0.7,0.8l-0.1,0.1l-5.4,1.6l-0.7-0.8L12.4,62.8z
					 M12.2,65.5l-0.9,2.2l2.2-0.7L12.2,65.5z"/>
				<path class="st0" d="M6,57.4L8.4,56l0.4,0.8l-0.4,0.3c0.7,0.3,1.2,0.8,1.6,1.4c0.3,0.5,0.5,1,0.5,1.6c0.1,0.5,0,1-0.3,1.4
					c-0.2,0.4-0.6,0.8-1,1H9.2C8.3,63,7.2,63,6.4,62.4C6,62,5.6,61.6,5.3,61.1c-0.3-0.5-0.5-0.9-0.6-1.5c-0.1-0.4-0.1-0.8,0.1-1.2
					C5,58,5.2,57.8,5.5,57.6l0,0L6,58.4h0c-0.2,0.1-0.3,0.3-0.3,0.5c-0.1,0.3-0.1,0.5,0,0.8c0.1,0.3,0.2,0.6,0.4,0.9
					c0.2,0.5,0.7,0.9,1.2,1.2c0.5,0.2,1,0.1,1.4-0.1l0.1-0.1c0.4-0.2,0.7-0.6,0.8-1.1c0.1-0.6-0.1-1.1-0.4-1.6
					C9,58.5,8.8,58.2,8.5,58c-0.2-0.2-0.5-0.4-0.8-0.5l-0.3,0.2L8.6,60l-0.8,0.4L6,57.4z"/>
				<path class="st0" d="M5.8,48.5H6l0.3,1l-1,0.9L6,53l1.3,0.2l0.3,1H7.5L2,53.3l-0.3-1.1L5.8,48.5z M4.5,50.9l-1.8,1.5l2.3,0.3
					L4.5,50.9z"/>
				<polygon class="st0" points="0,41.9 0.2,41.9 5.4,43.8 5.5,44.9 0.7,47.7 0.5,47.8 0.4,46.8 4.5,44.4 0.1,42.9 				"/>
				<polygon class="st0" points="0.6,34 1.5,34.1 1.1,37.6 2.4,37.8 2.8,34.4 3.6,34.5 3.3,37.9 4.5,38 4.9,34.5 5.8,34.6 5.3,39.1 
					0.1,38.5 				"/>
				<path class="st0" d="M6.4,26.5c-0.1,0.1-0.3,0.1-0.4,0c-0.3-0.1-0.4-0.5-0.3-0.8c0,0,0,0,0,0c0-0.2,0.2-0.3,0.3-0.3
					c0.1-0.1,0.3-0.1,0.4,0c0.2,0.1,0.3,0.2,0.3,0.3c0.1,0.1,0.1,0.3,0,0.5C6.7,26.3,6.6,26.4,6.4,26.5"/>
				<polygon class="st0" points="9.1,15.4 10.7,16.8 12.8,14.4 11.1,13 11.8,12.3 15.7,15.7 15.1,16.4 13.4,15 11.4,17.4 13,18.8 
					12.4,19.6 8.4,16.2 				"/>
				<polygon class="st0" points="18.4,6.9 18.9,7.6 16,9.7 16.8,10.7 19.5,8.7 20,9.4 17.3,11.4 18.1,12.5 21,10.3 21.5,11 
					17.9,13.8 14.7,9.6 				"/>
				<path class="st0" d="M24.8,8.9c-0.5,0-1-0.1-1.4-0.4c-0.4-0.3-0.7-0.7-0.9-1.1V7.3c-0.2-0.4-0.3-0.9-0.2-1.4
					c0.1-0.5,0.3-0.9,0.6-1.3c0.4-0.4,0.8-0.8,1.4-1c0.5-0.2,1-0.3,1.5-0.4c0.4,0,0.9,0.1,1.2,0.3c0.4,0.2,0.7,0.5,0.8,0.9l0,0
					l-0.9,0.4V4.7c-0.1-0.2-0.3-0.4-0.5-0.5c-0.3-0.1-0.5-0.2-0.8-0.1c-0.3,0-0.7,0.1-1,0.3c-0.5,0.2-1,0.6-1.2,1
					c-0.2,0.4-0.2,0.9,0,1.4v0.1c0.2,0.4,0.5,0.8,1,0.9c0.6,0.1,1.1,0,1.6-0.2c0.3-0.1,0.6-0.3,0.9-0.6c0.2-0.2,0.4-0.4,0.5-0.7
					c0.1-0.2,0.1-0.5,0-0.7V5.6l0.9-0.4v0.1c0.2,0.4,0.2,0.8,0.1,1.2c-0.1,0.4-0.3,0.8-0.6,1.2c-0.4,0.4-0.8,0.7-1.3,0.9
					C25.9,8.7,25.4,8.8,24.8,8.9"/>
				<polygon class="st0" points="31.6,1.2 32,3.3 35.1,2.7 34.7,0.5 35.7,0.3 36.7,5.5 35.7,5.7 35.3,3.5 32.2,4.1 32.6,6.3 
					31.6,6.5 30.6,1.3 				"/>
				<path class="st0" d="M40.7,5c-0.4-0.2-0.8-0.6-1-1c-0.2-0.4-0.3-0.9-0.3-1.4l0,0c0-0.5,0.2-1,0.4-1.4c0.3-0.4,0.6-0.7,1.1-0.9
					c1-0.4,2.2-0.4,3.2,0.1c0.4,0.2,0.8,0.6,1,1c0.2,0.4,0.4,0.9,0.3,1.4v0.1c0,0.5-0.2,1-0.4,1.4c-0.3,0.4-0.6,0.7-1.1,0.9
					c-0.5,0.2-1.1,0.3-1.6,0.3C41.7,5.4,41.2,5.3,40.7,5 M43.9,4.1c0.4-0.3,0.6-0.8,0.6-1.2V2.7c0.1-0.5-0.1-0.9-0.4-1.3
					c-0.9-0.6-2.1-0.7-3-0.1c-0.4,0.3-0.6,0.8-0.6,1.3v0.1c-0.1,0.5,0.1,1,0.4,1.3c0.4,0.3,0.9,0.5,1.5,0.5
					C42.9,4.6,43.4,4.4,43.9,4.1"/>
				<polygon class="st0" points="58.7,4 58.4,4.8 55.1,3.5 54.6,4.7 57.8,5.9 57.4,6.8 54.3,5.5 53.8,6.7 57.1,8 56.8,8.8 52.5,7.1 
					54.5,2.3 				"/>
				<polygon class="st0" points="66.3,8.7 63.4,13 62.6,12.5 62.1,7.5 59.9,10.6 59.1,10.1 62.1,5.8 62.9,6.3 63.4,11.3 65.5,8.2 
									"/>
				<polygon class="st0" points="72.7,24 72.1,23.2 75.3,21 71,21.6 70.5,20.7 72.7,17 69.4,19.1 68.8,18.3 73.2,15.4 74,16.6 
					71.7,20.5 76.2,19.9 77,21.1 				"/>
				<path class="st0" d="M80.3,29.1l-0.8,0.3L78.2,26L77,26.5l1.2,3.2L77.3,30l-1.1-3.2L75,27.2l1.2,3.3l-0.8,0.3l-1.6-4.3l4.9-1.8
					L80.3,29.1z M81.8,27.9l-0.8,0.3l-1.7-3l0.8-0.3L81.8,27.9z"/>
				<polygon class="st0" points="81.8,38.1 79.1,36.3 77,38.8 76.8,38.8 76.7,37.6 78.4,35.7 76.2,34.4 76,33.2 76.2,33.2 
					78.9,34.9 81.1,32.5 81.2,32.5 81.4,33.6 79.7,35.5 81.8,36.9 82,38.1 				"/>
				
					<rect x="78.9" y="39.5" transform="matrix(2.861948e-02 -0.9996 0.9996 2.861948e-02 35.0279 120.2294)" class="st0" width="1" height="5.2"/>
				<path class="st0" d="M76.6,46.6c0.3-0.4,0.7-0.7,1.1-0.9c0.5-0.2,1-0.2,1.4-0.1h0.1c0.5,0.1,0.9,0.3,1.3,0.7
					c0.3,0.3,0.6,0.8,0.7,1.2c0.1,0.5,0.1,1.1,0,1.7c-0.1,0.5-0.3,1-0.6,1.5c-0.3,0.4-0.6,0.7-1,0.9c-0.4,0.2-0.8,0.2-1.2,0.2h-0.1
					l0.2-1h0.1c0.2,0,0.5,0,0.7-0.1c0.3-0.2,0.5-0.4,0.6-0.6c0.2-0.3,0.3-0.6,0.4-1c0.1-0.5,0.1-1.1-0.1-1.6
					c-0.2-0.4-0.7-0.7-1.1-0.8H79c-0.5-0.1-1,0-1.3,0.3c-0.4,0.4-0.7,0.9-0.7,1.4c-0.1,0.3-0.1,0.7,0,1c0,0.3,0.1,0.5,0.3,0.8
					c0.1,0.2,0.4,0.3,0.6,0.4h0.1l-0.2,1h-0.2c-0.4-0.1-0.7-0.3-1-0.6c-0.3-0.3-0.5-0.8-0.6-1.2c-0.1-0.5-0.1-1,0-1.6
					c0.1-0.6,0.3-1.1,0.6-1.5"/>
				<path class="st0" d="M74.3,54.8c0.4-0.3,0.8-0.5,1.3-0.6c0.5-0.1,1,0,1.4,0.2h0.1c0.5,0.2,0.8,0.5,1.1,0.9
					c0.3,0.4,0.4,0.9,0.4,1.4c0,1.1-0.5,2.2-1.4,2.9c-0.4,0.3-0.8,0.5-1.3,0.6c-0.5,0.1-1,0-1.4-0.2h-0.1c-0.5-0.2-0.8-0.6-1.1-1
					c-0.2-0.4-0.4-0.8-0.4-1.3c0-0.6,0.1-1.1,0.4-1.6C73.6,55.6,74,55.1,74.3,54.8 M74,58c0.1,0.5,0.5,0.8,0.9,1l0.1,0
					c0.4,0.2,0.9,0.2,1.4,0.1c0.5-0.3,0.8-0.7,1-1.2c0.3-0.5,0.3-1,0.2-1.6c-0.1-0.5-0.5-0.8-0.9-1h-0.1c-0.4-0.2-0.9-0.2-1.4,0
					C74.4,56,73.9,57,74,58"/>
				<path class="st0" d="M31.3,39.7l0.5-2.8c0,0,0-0.1,0-0.1h-2.7c-0.1,0-0.1,0-0.1,0.1l-0.4,2.3c-0.3,1.5-2.9,1.9-3.8,2
					c-0.1,0-0.1,0-0.1,0.1l-0.5,2.5c0,0.1,0,0.1,0.1,0.1c0,0,3.1,1.4,2.8,3.2L25,58.5c-0.2,1.2-1.3,2-2.5,1.8c0,0,0,0,0,0h-0.2
					c-0.1,0-0.1,0-0.1,0.1c0,0,0,0,0,0l-0.5,2.5c0,0.1,0,0.1,0.1,0.1l0,0c0.3,0.1,0.7,0.1,1,0.1c1,0,2-0.3,2.9-0.8
					c0.8,1.1,2,1.9,3.3,2.2H29v-0.1l0.5-2.5c0-0.1,0-0.1-0.1-0.1c0,0,0,0,0,0l0,0c-0.4-0.1-0.8-0.3-1.1-0.6
					c-0.7-0.6-0.9-1.5-0.6-2.3l0,0l2.1-11.5v-0.3c0.2-1.5-0.5-3.1-1.6-4.1C29.8,42.6,30.9,41.3,31.3,39.7"/>
				<path class="st0" d="M60.9,60.3c-1.2,0.3-2.3-0.4-2.6-1.6c0,0,0,0,0,0c0-0.1,0-0.1,0-0.2l-1-5.5c0-0.1-0.1-0.1-0.1-0.1h-2.7
					c0,0-0.1,0-0.1,0c0,0,0,0.1,0,0.1l1.1,6l0,0c0.3,1.2-0.3,2.4-1.5,2.7c0,0,0,0,0,0l-0.3,0.1c-0.1,0-0.1,0.1-0.1,0.1l0.5,2.5
					c0,0,0.1,0.1,0.1,0.1l0,0c1.3-0.3,2.5-1.1,3.3-2.2c0.9,0.6,1.9,0.8,2.9,0.8c0.3,0,0.7,0,1-0.1c0.1,0,0.1-0.1,0.1-0.1
					c0,0,0,0,0,0l0,0L61,60.4C61,60.3,60.9,60.3,60.9,60.3C60.9,60.3,60.9,60.3,60.9,60.3"/>
				<path class="st0" d="M45.6,31.2h2.7c0.1,0,0.1,0,0.1-0.1l1.1-3.9l2.3,12.4c0.3,1.6,1.5,2.9,3,3.5c-1.2,1-1.8,2.5-1.6,4.1
					c0,0.1,0.1,0.1,0.1,0.1H56c0,0,0.1,0,0.1,0c0,0,0-0.1,0-0.1V47c-0.3-1.5,1.9-2.7,2.6-3l0.2-0.1c0,0,0.1-0.1,0.1-0.1l-0.5-2.5
					c0-0.1-0.1-0.1-0.1-0.1c-0.9,0-3.5-0.5-3.8-2l-3.4-17.9c0.3-1.2,1.5-1.8,2.6-1.5c0,0,0,0,0,0H54c0.1,0,0.1,0,0.1-0.1l0.6-2.5
					c0,0,0-0.1,0-0.1c0,0-0.1,0-0.1,0c-1.3-0.3-2.7-0.1-3.9,0.6c-0.7-1.2-1.9-2-3.2-2.3c-0.1,0-0.1,0-0.1,0.1c0,0,0,0,0,0l0,0
					l-0.6,2.5c0,0.1,0,0.1,0.1,0.1c0,0,0,0,0,0l0,0c1.2,0.2,1.9,1.3,1.7,2.5c0,0,0,0,0,0v0.1l0,0v0.1l-3,10.3
					C45.5,31.1,45.5,31.1,45.6,31.2C45.6,31.2,45.6,31.2,45.6,31.2"/>
				<path class="st0" d="M29,19.6c0,0.1,0.1,0.1,0.1,0.1c1.1-0.3,2.4,0.3,2.7,1.5c0,0,0,0,0,0l0,0L30,31.1c0,0,0,0.1,0,0.1
					c0,0,0.1,0,0.1,0h2.6c0.1,0,0.1,0,0.1-0.1l0.7-3.9l4.9,17l0.1,0.2c0.5,1.7,2.3,2.6,4,2c0.9-0.3,1.7-1.1,2-2v-0.1l2.1-7.4
					c0,0,0-0.1,0-0.1c0,0-0.1,0-0.1,0h-2.6c-0.1,0-0.1,0-0.1,0.1l-1.9,6.7l0,0c0,0.1-0.2,0.2-0.3,0.2c-0.1,0-0.3-0.1-0.3-0.2
					l-6.6-22.8v-0.1l0,0c-0.3-1.2,0.4-2.4,1.5-2.7c0,0,0,0,0,0h0.1c0.1,0,0.1-0.1,0.1-0.1c0,0,0,0,0,0l0,0l-0.6-2.5
					c0-0.1-0.1-0.1-0.1-0.1l0,0c-1.3,0.3-2.5,1.2-3.2,2.3c-1.2-0.7-2.6-0.9-3.9-0.6c-0.1,0-0.1,0.1-0.1,0.1c0,0,0,0,0,0l0,0L29,19.6
					z"/>
				<path class="st0" d="M24.8,51.5c0.1,0,0.1,0,0.1-0.1l0.5-2.6c0,0,0-0.1,0-0.1h-2.1c-1.5-0.1-2.6-1.3-2.7-2.7l0,0
					c-0.2-1.6-1.2-3.1-2.6-4c1.3-0.8,2.2-2.2,2.5-3.7v-0.1c0-1.5,1.2-2.7,2.7-2.8h11.2c0,0,0-0.1,0-0.1l-0.8-2.6
					c0,0-0.1-0.1-0.1-0.1H23.3c-2.9,0-5.2,2.2-5.4,5.1l0,0v0.2c-0.3,2-3.3,2.8-3.4,2.8c-0.1,0-0.1,0.1-0.1,0.1v2.5
					c0,0.1,0,0.1,0.1,0.1c0,0,3.2,0.9,3.4,3l0,0c0.2,2.8,2.6,5,5.4,5.1L24.8,51.5z"/>
				<path class="st0" d="M65.1,45.6h-2.6c-0.1,0-0.1,0-0.1,0.1l0,0l0,0c0.1,1.5-1.1,2.8-2.7,2.9H45.5c-1.6,0.1-3.1,0.9-4,2.3
					c-0.7-1.2-2-2.1-3.4-2.3c0,0-0.1,0-0.1,0h-6.9c-0.1,0-0.1,0-0.1,0.1l-0.5,2.6c0,0,0,0.1,0,0.1h7.1c1.8,0,2.6,3.3,2.6,3.3
					c0,0,0.1,0.1,0.1,0.1h2.5c0.1,0,0.1,0,0.1-0.1c0,0,0.8-3.3,2.6-3.3h14.2c3.1-0.1,5.5-2.6,5.5-5.7C65.2,45.7,65.2,45.6,65.1,45.6
					C65.1,45.6,65.1,45.6,65.1,45.6L65.1,45.6"/>
				<path class="st0" d="M40,34.4C40,34.5,40,34.5,40,34.4c0.1,0.1,0.1,0.1,0.2,0.1c0.5-0.4,1-0.9,1.4-1.5c0.4,0.6,0.8,1,1.4,1.5
					c0.4,0.3,1,0.6,1.5,0.7c0.3,0.1,0.7,0.2,1.1,0.2h4.1c0,0,0-0.1,0-0.1l-0.5-2.6c0-0.1-0.1-0.1-0.1-0.1h-3.9c-0.5-0.2-1-0.5-1.3-1
					c-0.4-0.7-0.8-1.4-1-2.2c0-0.1-0.1-0.1-0.1-0.1h-2.5c-0.1,0-0.1,0-0.1,0.1c-0.2,0.8-0.6,1.5-1,2.2c0,0,0,0.1,0,0.1L40,34.4z"/>
				<path class="st0" d="M67.5,40.9c-1.3-0.1-2.4-1.2-2.3-2.5c0-0.1,0-0.2,0-0.4l0,0v-0.3c-0.2-2.9-2.6-5.1-5.5-5.2h-4.8
					c0,0-0.1,0-0.1,0v0.1l0.5,2.6c0,0.1,0.1,0.1,0.1,0.1h4.4c1.4,0.1,2.5,1.2,2.6,2.6v0.2l0,0c0.1,0.9-0.3,1.8-1.1,2.4
					c-0.4,0.2-0.8,0.4-1.2,0.4c-0.1,0-0.1,0-0.1,0.1c0,0,0,0.1,0,0.1l0.5,2.5l0,0c0,0.1,0.1,0.1,0.1,0.1c0.7-0.1,1.5-0.3,2.1-0.7
					c0.4-0.2,0.8-0.6,1.1-0.9c1,1,2.3,1.6,3.7,1.7l0,0c0.1,0,0.1,0,0.1-0.1L67.5,40.9C67.6,40.9,67.5,40.9,67.5,40.9L67.5,40.9
					L67.5,40.9"/>
			</g>
		</g>
	</g>
</g>
</svg>
