<svg xmlns="http://www.w3.org/2000/svg" viewBox="0 0 118.62 118.73"><defs><style>.cls-1{fill:#ff5100;}</style></defs><g id="Capa_2" data-name="Capa 2"><g id="Our_Tequilas" data-name="Our Tequilas"><path class="cls-1" d="M92.75,98.86l1.06-1,3.72,4.16a3,3,0,0,1,.78-1l1-.86.89,1-.87.78a2.06,2.06,0,0,0-.64.85.73.73,0,0,0,.19.72l-1.06,1Z"/><path class="cls-1" d="M87.82,102.9a3.38,3.38,0,0,1,1.83.3A3.21,3.21,0,0,1,91,104.46l.54.9a3.21,3.21,0,0,1,.48,1.78,3.26,3.26,0,0,1-.6,1.75A5.27,5.27,0,0,1,87.82,111a3.33,3.33,0,0,1-1.81-.31,3.12,3.12,0,0,1-1.33-1.27l-.54-.9a3.18,3.18,0,0,1-.49-1.78,3.27,3.27,0,0,1,.59-1.73,4.86,4.86,0,0,1,1.57-1.43,5,5,0,0,1,2-.71m-2.66,3.28a1.79,1.79,0,0,0,.19,1.62l.56.93a1.81,1.81,0,0,0,1.35.94,3.55,3.55,0,0,0,3.23-1.93,1.8,1.8,0,0,0-.19-1.64l-.56-.93a1.8,1.8,0,0,0-1.34-.93,3,3,0,0,0-1.91.52,2.89,2.89,0,0,0-1.33,1.42"/><path class="cls-1" d="M77.48,108.13a3.19,3.19,0,0,1,1.71.69,3.16,3.16,0,0,1,1,1.52l.32,1a3.14,3.14,0,0,1,.08,1.84,3.32,3.32,0,0,1-1,1.57,5,5,0,0,1-1.86,1.06,4.87,4.87,0,0,1-2.1.24,3.21,3.21,0,0,1-1.7-.71,3.16,3.16,0,0,1-1-1.52l-.32-1a3.15,3.15,0,0,1-.08-1.84,3.2,3.2,0,0,1,1-1.56,5.32,5.32,0,0,1,4-1.29m-3.32,2.6a1.76,1.76,0,0,0-.17,1.62l.33,1a1.83,1.83,0,0,0,1.12,1.22,3,3,0,0,0,2-.06A3,3,0,0,0,79,113.43a1.81,1.81,0,0,0,.18-1.64l-.33-1a1.81,1.81,0,0,0-1.11-1.2,3,3,0,0,0-2,.08,2.9,2.9,0,0,0-1.62,1.09"/><path class="cls-1" d="M62,111.42a1.6,1.6,0,0,1,.72,1.27v.1a1.62,1.62,0,0,1-.52,1.37,2.62,2.62,0,0,1-1.62.61,2.56,2.56,0,0,1-1.69-.36,1.6,1.6,0,0,1-.71-1.28V113a1.59,1.59,0,0,1,.52-1.36,2.53,2.53,0,0,1,1.61-.61,2.61,2.61,0,0,1,1.7.36m-2.35.91a.7.7,0,0,0-.23.59v.13a.72.72,0,0,0,.32.56,1.21,1.21,0,0,0,.76.15,1.13,1.13,0,0,0,.73-.27.67.67,0,0,0,.22-.59v-.13a.66.66,0,0,0-.32-.55,1.11,1.11,0,0,0-.75-.15,1.23,1.23,0,0,0-.73.26m1.52,6.3-1.37.1v-.22l6.28-7.82,1.37-.1v.19Zm7.16-3.7a1.59,1.59,0,0,1,.72,1.26v.1a1.63,1.63,0,0,1-.52,1.37,2.68,2.68,0,0,1-1.63.62,2.56,2.56,0,0,1-1.69-.37,1.6,1.6,0,0,1-.71-1.27v-.11a1.61,1.61,0,0,1,.52-1.35,2.56,2.56,0,0,1,1.61-.62,2.6,2.6,0,0,1,1.7.37m-2.34.91a.68.68,0,0,0-.24.59v.12a.69.69,0,0,0,.32.56,1.21,1.21,0,0,0,.76.16,1.25,1.25,0,0,0,.73-.27.68.68,0,0,0,.22-.6v-.13a.7.7,0,0,0-.32-.54,1.2,1.2,0,0,0-.75-.16,1.13,1.13,0,0,0-.73.27"/><path class="cls-1" d="M42.14,116a4.69,4.69,0,0,1-2.75-1.83,3.45,3.45,0,0,1-.22-3l0-.15a3.48,3.48,0,0,1,1.84-2.32,4.63,4.63,0,0,1,3.29,0l3.49,1.06-2.21,7.22Zm-.34-6a2.2,2.2,0,0,0-1.18,1.52l-.06.17c-.47,1.54.19,2.58,2,3.12l2.11.64,1.45-4.76L44,110A3.15,3.15,0,0,0,41.8,110"/><polygon class="cls-1" points="27.43 109.36 28.07 108.23 32.54 110.75 33.44 109.15 29.16 106.75 29.79 105.63 34.06 108.03 34.97 106.41 30.5 103.9 31.13 102.78 36.86 105.99 33.16 112.58 27.43 109.36"/><path class="cls-1" d="M17.89,90.82l.16-.15,1,1.09-.77,1.74,2.67,3,1.81-.57,1,1.09-.16.15-7.76,2.31-1.06-1.18Zm-.19,4-1.36,3.11,3.23-1Z"/><path class="cls-1" d="M8.68,83l3.54-2,.64,1.13-.64.43a4.47,4.47,0,0,1,2.23,2.09,5.9,5.9,0,0,1,.78,2.32,3.6,3.6,0,0,1-.39,2,3.77,3.77,0,0,1-1.5,1.49l-.13.07a3.53,3.53,0,0,1-4-.21,5.46,5.46,0,0,1-1.59-1.84,6.7,6.7,0,0,1-.81-2.11,3.37,3.37,0,0,1,.1-1.78,2.21,2.21,0,0,1,1-1.17l.05,0,.72,1.27,0,0a.94.94,0,0,0-.43.67,2.64,2.64,0,0,0,0,1.14,4.9,4.9,0,0,0,.52,1.31,3.54,3.54,0,0,0,1.69,1.66,2.22,2.22,0,0,0,2-.2l.17-.1a2.25,2.25,0,0,0,1.22-1.59,3.69,3.69,0,0,0-.58-2.31,4.66,4.66,0,0,0-1-1.28A3.45,3.45,0,0,0,11,83.29l-.51.29,1.9,3.36-1.12.63Z"/><path class="cls-1" d="M8.41,70.11,8.62,70,9,71.44,7.61,72.69l1.14,3.83,1.88.26.42,1.4-.21.06L2.83,77l-.46-1.52ZM6.54,73.63,4,75.86l3.36.46Z"/><polygon class="cls-1" points="0 60.63 0.22 60.6 7.83 63.33 7.98 64.98 1 69.06 0.78 69.08 0.65 67.63 6.53 64.28 0.14 62.08 0 60.63"/><polygon class="cls-1" points="0.92 49.18 2.2 49.33 1.62 54.42 3.44 54.63 3.99 49.76 5.27 49.9 4.72 54.77 6.56 54.98 7.13 49.88 8.41 50.03 7.68 56.55 0.18 55.71 0.92 49.18"/><path class="cls-1" d="M9.33,38.3a.76.76,0,0,1-.64,0,.85.85,0,0,1-.46-.45.9.9,0,0,1,0-.66.83.83,0,0,1,.45-.47.78.78,0,0,1,.65,0,.8.8,0,0,1,.45.45.85.85,0,0,1,0,.66.82.82,0,0,1-.46.47"/><polygon class="cls-1" points="13.11 22.27 15.48 24.33 18.49 20.86 16.12 18.81 17.07 17.72 22.77 22.67 21.82 23.76 19.46 21.7 16.45 25.17 18.81 27.22 17.87 28.31 12.17 23.36 13.11 22.27"/><polygon class="cls-1" points="26.55 9.93 27.32 10.96 23.22 14.04 24.32 15.5 28.24 12.56 29.01 13.59 25.09 16.53 26.2 18.01 30.3 14.93 31.08 15.96 25.82 19.91 21.29 13.87 26.55 9.93"/><path class="cls-1" d="M35.89,12.87a3.64,3.64,0,0,1-2-.57,3.71,3.71,0,0,1-1.33-1.62l-.07-.14a3.73,3.73,0,0,1-.34-2.07,3.7,3.7,0,0,1,.87-1.87,5.63,5.63,0,0,1,2-1.4,5.59,5.59,0,0,1,2.18-.54,3.74,3.74,0,0,1,1.87.39A2.65,2.65,0,0,1,40.24,6.3l0,.09L39,7l0-.09a1.41,1.41,0,0,0-.72-.7A2.49,2.49,0,0,0,37,6a4.23,4.23,0,0,0-1.43.4,3.42,3.42,0,0,0-1.77,1.5,2.28,2.28,0,0,0,.06,2l.08.18a2.23,2.23,0,0,0,1.46,1.35,3.39,3.39,0,0,0,2.29-.34,4.36,4.36,0,0,0,1.26-.82,2.21,2.21,0,0,0,.65-1,1.35,1.35,0,0,0-.06-1l0-.09,1.34-.6,0,.09A2.55,2.55,0,0,1,41,9.38,3.63,3.63,0,0,1,40.08,11a5.66,5.66,0,0,1-1.85,1.29,5.48,5.48,0,0,1-2.34.54"/><polygon class="cls-1" points="45.65 1.66 46.26 4.73 50.76 3.85 50.16 0.77 51.57 0.49 53.03 7.9 51.62 8.18 51.01 5.11 46.51 6 47.12 9.07 45.7 9.35 44.24 1.94 45.65 1.66"/><path class="cls-1" d="M58.91,7.27a3.55,3.55,0,0,1-1.49-1.4A3.82,3.82,0,0,1,57,3.82V3.7a3.82,3.82,0,0,1,.61-2A3.51,3.51,0,0,1,59.16.39,5.91,5.91,0,0,1,63.8.56,3.6,3.6,0,0,1,65.29,2,3.78,3.78,0,0,1,65.75,4v.12a3.68,3.68,0,0,1-.62,2,3.51,3.51,0,0,1-1.57,1.29,5.24,5.24,0,0,1-2.34.38,5.32,5.32,0,0,1-2.31-.55m4.55-1.35a2.31,2.31,0,0,0,.83-1.81V4a2.31,2.31,0,0,0-.69-1.87,3.9,3.9,0,0,0-4.34-.16,2.31,2.31,0,0,0-.84,1.82V3.9a2.28,2.28,0,0,0,.7,1.86,4,4,0,0,0,4.35.16"/><polygon class="cls-1" points="84.97 5.79 84.48 6.99 79.73 5.04 79.04 6.74 83.57 8.59 83.08 9.79 78.55 7.93 77.85 9.65 82.6 11.59 82.11 12.78 76.03 10.29 78.88 3.31 84.97 5.79"/><polygon class="cls-1" points="95.97 12.59 91.69 18.82 90.53 18.01 89.83 10.82 86.69 15.38 85.54 14.59 89.81 8.37 90.98 9.17 91.68 16.35 94.81 11.8 95.97 12.59"/><polygon class="cls-1" points="105.1 34.72 104.3 33.53 109 30.39 102.76 31.23 101.93 30 105.1 24.54 100.39 27.69 99.6 26.5 105.87 22.31 107 23.99 103.7 29.71 110.24 28.84 111.37 30.52 105.1 34.72"/><path class="cls-1" d="M116.15,42l-1.21.45-1.78-4.81-1.72.63,1.7,4.6-1.21.44-1.7-4.59-1.73.64,1.77,4.81-1.2.45-2.28-6.16,7.08-2.62Zm2.24-1.66-1.1.4-2.5-4.4,1.11-.42Z"/><polygon class="cls-1" points="118.4 55.1 114.45 52.58 111.36 56.09 111.14 56.13 110.91 54.44 113.36 51.69 110.24 49.71 110 48.03 110.21 47.99 114.16 50.51 117.25 47 117.47 46.97 117.71 48.65 115.25 51.42 118.38 53.39 118.62 55.07 118.4 55.1"/><rect class="cls-1" x="114.11" y="57.1" width="1.44" height="7.55" transform="translate(50.69 173.92) rotate(-88.36)"/><path class="cls-1" d="M110.82,67.48a3.55,3.55,0,0,1,1.61-1.26,3.7,3.7,0,0,1,2.1-.13l.14,0a3.85,3.85,0,0,1,1.89.94,3.6,3.6,0,0,1,1,1.8,5.7,5.7,0,0,1,0,2.4,6,6,0,0,1-.84,2.09,3.69,3.69,0,0,1-1.42,1.29,2.65,2.65,0,0,1-1.7.23l-.09,0,.29-1.44.09,0a1.39,1.39,0,0,0,1-.17,2.35,2.35,0,0,0,.84-.87,4.33,4.33,0,0,0,.53-1.39,3.4,3.4,0,0,0-.19-2.31,2.28,2.28,0,0,0-1.65-1.13l-.2,0a2.27,2.27,0,0,0-1.95.39A3.46,3.46,0,0,0,111.19,70a4.56,4.56,0,0,0-.07,1.5,2.32,2.32,0,0,0,.44,1.12,1.43,1.43,0,0,0,.85.53l.09,0-.29,1.43h-.09a2.54,2.54,0,0,1-1.47-.87,3.6,3.6,0,0,1-.8-1.74,5.53,5.53,0,0,1,0-2.25,5.33,5.33,0,0,1,.93-2.22"/><path class="cls-1" d="M107.53,79.24a3.49,3.49,0,0,1,1.86-.83,3.76,3.76,0,0,1,2.07.37l.11,0a3.88,3.88,0,0,1,1.62,1.35,3.48,3.48,0,0,1,.57,2,6,6,0,0,1-2,4.2,3.55,3.55,0,0,1-1.87.83,3.76,3.76,0,0,1-2.07-.37l-.12-.06a3.7,3.7,0,0,1-1.61-1.34,3.62,3.62,0,0,1-.57-2,5.34,5.34,0,0,1,.55-2.31,5.28,5.28,0,0,1,1.42-1.91M107,84a2.23,2.23,0,0,0,1.34,1.47l.14.07a2.31,2.31,0,0,0,2,.08A3.18,3.18,0,0,0,112,83.89a3.29,3.29,0,0,0,.32-2.25A2.32,2.32,0,0,0,111,80.16l-.15-.07a2.29,2.29,0,0,0-2-.08,3.33,3.33,0,0,0-1.51,1.7A3.27,3.27,0,0,0,107,84"/></g></g></svg>