<svg xmlns="http://www.w3.org/2000/svg" viewBox="0 0 104.38 104.48"><defs><style>.cls-1{fill:#fff;}</style></defs><g id="Capa_2" data-name="Capa 2"><g id="Verificador_Edad" data-name="Verificador Edad"><path class="cls-1" d="M81.62,87l.93-.84,3.27,3.66a3,3,0,0,1,.69-.9l.85-.75.78.87-.77.69a1.76,1.76,0,0,0-.56.75.63.63,0,0,0,.17.63l-.94.84Z"/><path class="cls-1" d="M77.28,90.55a3,3,0,0,1,1.61.26,2.83,2.83,0,0,1,1.17,1.11l.47.79A2.77,2.77,0,0,1,81,94.28a2.91,2.91,0,0,1-.53,1.54,4.74,4.74,0,0,1-3.15,1.88,2.83,2.83,0,0,1-1.59-.27,2.92,2.92,0,0,1-1.18-1.11L74,95.53a2.77,2.77,0,0,1,.09-3.1,4.11,4.11,0,0,1,1.38-1.25,4.31,4.31,0,0,1,1.77-.63m-2.34,2.88a1.57,1.57,0,0,0,.17,1.43l.49.82a1.59,1.59,0,0,0,1.19.83,3.12,3.12,0,0,0,2.84-1.7,1.59,1.59,0,0,0-.17-1.44L79,92.55a1.57,1.57,0,0,0-1.18-.82,2.69,2.69,0,0,0-1.68.46,2.54,2.54,0,0,0-1.17,1.24"/><path class="cls-1" d="M68.18,95.15a2.87,2.87,0,0,1,1.51.61,2.71,2.71,0,0,1,.9,1.34l.29.87a2.81,2.81,0,0,1,.06,1.62,2.91,2.91,0,0,1-.85,1.39,4.65,4.65,0,0,1-3.49,1.14,2.8,2.8,0,0,1-2.39-2l-.29-.88a2.82,2.82,0,0,1-.07-1.62,2.86,2.86,0,0,1,.84-1.38,4.43,4.43,0,0,1,1.63-.92,4.38,4.38,0,0,1,1.86-.21m-2.92,2.29a1.55,1.55,0,0,0-.15,1.43l.29.9a1.63,1.63,0,0,0,1,1.08,3.11,3.11,0,0,0,3.15-1,1.63,1.63,0,0,0,.16-1.45l-.3-.9a1.57,1.57,0,0,0-1-1.06,2.63,2.63,0,0,0-1.74.07,2.56,2.56,0,0,0-1.42,1"/><path class="cls-1" d="M54.54,98.05a1.39,1.39,0,0,1,.63,1.11v.09a1.42,1.42,0,0,1-.46,1.2,2.68,2.68,0,0,1-2.92.23,1.43,1.43,0,0,1-.62-1.13v-.09a1.42,1.42,0,0,1,.46-1.19A2.18,2.18,0,0,1,53,97.73a2.29,2.29,0,0,1,1.5.32m-2.06.8a.6.6,0,0,0-.21.52v.11a.61.61,0,0,0,.28.49,1.08,1.08,0,0,0,.67.14,1,1,0,0,0,.64-.24.61.61,0,0,0,.2-.52v-.12a.62.62,0,0,0-.28-.48,1,1,0,0,0-.66-.14,1.07,1.07,0,0,0-.64.24m1.33,5.54-1.2.09,0-.19,5.54-6.88,1.2-.09v.17Zm6.3-3.25a1.37,1.37,0,0,1,.63,1.11v.09a1.41,1.41,0,0,1-.46,1.2,2.7,2.7,0,0,1-2.92.22,1.44,1.44,0,0,1-.62-1.12v-.09a1.41,1.41,0,0,1,.45-1.2,2.66,2.66,0,0,1,2.91-.21m-2.06.8a.6.6,0,0,0-.21.51v.11a.64.64,0,0,0,.28.5,1.08,1.08,0,0,0,.67.13,1.06,1.06,0,0,0,.64-.23.61.61,0,0,0,.2-.53v-.11a.58.58,0,0,0-.28-.48,1,1,0,0,0-.66-.14,1,1,0,0,0-.64.24"/><path class="cls-1" d="M37.08,102.1a4.09,4.09,0,0,1-2.42-1.61,3.07,3.07,0,0,1-.19-2.6l0-.12a3,3,0,0,1,1.61-2,4.05,4.05,0,0,1,2.9,0l3.07.93L40.15,103Zm-.3-5.31a2,2,0,0,0-1,1.33l-.05.16c-.41,1.35.17,2.26,1.73,2.74l1.85.56,1.28-4.18-1.86-.57a2.79,2.79,0,0,0-1.91,0"/><polygon class="cls-1" points="24.14 96.23 24.7 95.24 28.63 97.46 29.42 96.05 25.66 93.94 26.22 92.95 29.98 95.06 30.77 93.64 26.84 91.43 27.39 90.44 32.43 93.27 29.18 99.06 24.14 96.23"/><path class="cls-1" d="M15.74,79.92l.14-.13.86,1-.67,1.53,2.35,2.62L20,84.4l.86,1-.15.13-6.83,2-.93-1Zm-.16,3.51-1.2,2.72,2.84-.88Z"/><path class="cls-1" d="M7.64,73l3.11-1.76.57,1-.57.38a3.91,3.91,0,0,1,2,1.85,5.05,5.05,0,0,1,.69,2,3.2,3.2,0,0,1-.34,1.78,3.26,3.26,0,0,1-1.32,1.31l-.11.06a3.12,3.12,0,0,1-3.51-.18,5,5,0,0,1-1.4-1.62A6,6,0,0,1,6,76a2.87,2.87,0,0,1,.09-1.56,1.9,1.9,0,0,1,.88-1l0,0,.64,1.12,0,0a.83.83,0,0,0-.38.59,2.47,2.47,0,0,0,0,1,4.43,4.43,0,0,0,.47,1.15,3.09,3.09,0,0,0,1.48,1.46A1.93,1.93,0,0,0,11,78.55l.16-.09a2,2,0,0,0,1.06-1.4,3.09,3.09,0,0,0-.51-2,4,4,0,0,0-.9-1.13,2.91,2.91,0,0,0-1.08-.6l-.45.25,1.67,3-1,.56Z"/><path class="cls-1" d="M7.4,61.69l.18,0L8,62.87,6.69,64l1,3.38,1.65.22.37,1.24-.18,0-7-1.06-.4-1.34Zm-1.64,3.1-2.25,2,3,.41Z"/><polygon class="cls-1" points="0 53.35 0.19 53.33 6.89 55.73 7.03 57.18 0.88 60.77 0.69 60.79 0.57 59.51 5.75 56.57 0.12 54.63 0 53.35"/><polygon class="cls-1" points="0.81 43.28 1.93 43.41 1.43 47.89 3.03 48.07 3.51 43.79 4.64 43.91 4.15 48.2 5.77 48.38 6.28 43.89 7.41 44.02 6.76 49.77 0.16 49.02 0.81 43.28"/><path class="cls-1" d="M8.21,33.7a.68.68,0,0,1-.56,0,.71.71,0,0,1-.4-.4.74.74,0,0,1,0-.58.75.75,0,0,1,.4-.42.73.73,0,0,1,.56,0,.71.71,0,0,1,.4.4.74.74,0,0,1,0,.58.7.7,0,0,1-.4.41"/><polygon class="cls-1" points="11.54 19.6 13.62 21.41 16.27 18.36 14.19 16.55 15.02 15.6 20.03 19.95 19.2 20.91 17.12 19.1 14.47 22.15 16.55 23.96 15.72 24.91 10.71 20.56 11.54 19.6"/><polygon class="cls-1" points="23.36 8.74 24.04 9.64 20.43 12.35 21.4 13.64 24.85 11.05 25.53 11.96 22.08 14.55 23.05 15.85 26.67 13.14 27.35 14.05 22.72 17.52 18.74 12.21 23.36 8.74"/><path class="cls-1" d="M31.58,11.32a3.08,3.08,0,0,1-1.73-.5A3.34,3.34,0,0,1,28.67,9.4l-.05-.12a3.32,3.32,0,0,1-.3-1.83,3.17,3.17,0,0,1,.76-1.64A4.92,4.92,0,0,1,30.8,4.57a5.19,5.19,0,0,1,1.93-.47,3.29,3.29,0,0,1,1.65.35,2.31,2.31,0,0,1,1,1.09l0,.08-1.17.53,0-.08a1.21,1.21,0,0,0-.63-.61,2.1,2.1,0,0,0-1.06-.16,3.74,3.74,0,0,0-1.26.35A3,3,0,0,0,29.74,7a2,2,0,0,0,0,1.76l.08.15a2,2,0,0,0,1.28,1.2,3.06,3.06,0,0,0,2-.3,4,4,0,0,0,1.11-.73,2,2,0,0,0,.57-.88,1.3,1.3,0,0,0-.05-.89l0-.07,1.18-.53,0,.07a2.27,2.27,0,0,1,.14,1.5,3.32,3.32,0,0,1-.83,1.47,5.2,5.2,0,0,1-1.63,1.13,4.84,4.84,0,0,1-2.06.47"/><polygon class="cls-1" points="40.17 1.46 40.71 4.16 44.67 3.38 44.14 0.68 45.38 0.43 46.66 6.95 45.42 7.2 44.89 4.5 40.93 5.28 41.46 7.98 40.22 8.22 38.93 1.71 40.17 1.46"/><path class="cls-1" d="M51.84,6.4a3.12,3.12,0,0,1-1.31-1.23,3.3,3.3,0,0,1-.41-1.81V3.25a3.42,3.42,0,0,1,.54-1.77A3.08,3.08,0,0,1,52.06.35a5.17,5.17,0,0,1,4.08.14,3.08,3.08,0,0,1,1.31,1.24,3.24,3.24,0,0,1,.41,1.8v.12a3.42,3.42,0,0,1-.54,1.77,3.15,3.15,0,0,1-1.39,1.12,4.77,4.77,0,0,1-2.06.35,4.86,4.86,0,0,1-2-.49m4-1.19a2,2,0,0,0,.73-1.59V3.48A2,2,0,0,0,56,1.83a2.83,2.83,0,0,0-1.88-.65,2.87,2.87,0,0,0-1.94.51,2,2,0,0,0-.73,1.6v.14A2,2,0,0,0,52,5.07a3.49,3.49,0,0,0,3.82.14"/><polygon class="cls-1" points="74.77 5.1 74.34 6.15 70.16 4.44 69.55 5.93 73.54 7.56 73.11 8.61 69.12 6.98 68.5 8.49 72.69 10.2 72.25 11.25 66.9 9.06 69.42 2.91 74.77 5.1"/><polygon class="cls-1" points="84.45 11.08 80.69 16.56 79.66 15.85 79.05 9.52 76.29 13.54 75.27 12.84 79.03 7.36 80.06 8.07 80.68 14.39 83.43 10.38 84.45 11.08"/><polygon class="cls-1" points="92.48 30.55 91.78 29.51 95.92 26.74 90.43 27.48 89.7 26.39 92.49 21.59 88.34 24.37 87.64 23.32 93.16 19.63 94.16 21.11 91.25 26.15 97.01 25.38 98 26.86 92.48 30.55"/><path class="cls-1" d="M102.21,37l-1.07.39-1.56-4.23-1.51.55,1.49,4.05-1.06.39-1.5-4-1.53.56L97,38.89,96,39.28l-2-5.42,6.23-2.3Zm2-1.47-1,.36L101,32l1-.36Z"/><polygon class="cls-1" points="104.19 48.48 100.72 46.27 98 49.36 97.8 49.39 97.59 47.9 99.76 45.48 97 43.74 96.8 42.26 96.99 42.23 100.46 44.45 103.18 41.36 103.37 41.33 103.58 42.81 101.42 45.25 104.17 46.98 104.38 48.46 104.19 48.48"/><rect class="cls-1" x="100.41" y="50.25" width="1.27" height="6.64" transform="translate(44.61 153.04) rotate(-88.36)"/><path class="cls-1" d="M97.52,59.38a3,3,0,0,1,1.42-1.11,3.33,3.33,0,0,1,1.84-.12l.13,0a3.31,3.31,0,0,1,1.66.83,3.13,3.13,0,0,1,.88,1.57,5,5,0,0,1,0,2.12,5.15,5.15,0,0,1-.74,1.84,3.18,3.18,0,0,1-1.25,1.13,2.29,2.29,0,0,1-1.5.2l-.08,0,.26-1.26.08,0a1.22,1.22,0,0,0,.87-.15,2.08,2.08,0,0,0,.74-.76,3.75,3.75,0,0,0,.47-1.23,3,3,0,0,0-.17-2,2,2,0,0,0-1.45-1l-.17,0a2,2,0,0,0-1.72.34,3,3,0,0,0-.94,1.82,3.75,3.75,0,0,0-.06,1.32,1.89,1.89,0,0,0,.38,1,1.18,1.18,0,0,0,.75.48H99l-.26,1.26h-.08a2.28,2.28,0,0,1-1.29-.77,3.21,3.21,0,0,1-.71-1.52,5.16,5.16,0,0,1,0-2,4.8,4.8,0,0,1,.82-1.95"/><path class="cls-1" d="M94.62,69.72A3.11,3.11,0,0,1,96.26,69a3.3,3.3,0,0,1,1.82.32l.1.05a3.31,3.31,0,0,1,1.43,1.19,3.16,3.16,0,0,1,.5,1.73,4.79,4.79,0,0,1-.49,2A4.71,4.71,0,0,1,98.38,76a3.24,3.24,0,0,1-1.64.73,3.35,3.35,0,0,1-1.83-.33l-.1,0a3.34,3.34,0,0,1-1.42-1.18,3.18,3.18,0,0,1-.5-1.72,4.64,4.64,0,0,1,.49-2,4.79,4.79,0,0,1,1.24-1.69m-.47,4.16a2,2,0,0,0,1.18,1.29l.13.06a2,2,0,0,0,1.76.07,3.42,3.42,0,0,0,1.61-3.46,2,2,0,0,0-1.18-1.3l-.13-.06a2,2,0,0,0-1.75-.07,3.48,3.48,0,0,0-1.62,3.47"/></g></g></svg>