<svg xmlns="http://www.w3.org/2000/svg" viewBox="0 0 500 132.16"><defs><style>.cls-1{fill:#fff;}</style></defs><g id="Capa_2" data-name="Capa 2"><g id="About_Us" data-name="About Us"><g id="Logo"><path class="cls-1" d="M37,131.32a33.52,33.52,0,0,1-12.85-2.88c-4.47-1.86-8.39-5.25-12-10.16S5.71,106.61,3.39,98,0,78.18,0,64.47C0,52.12,1.07,42,3.21,33.85s4.82-14.56,8-19.47S18,6.09,22,4.23A26.39,26.39,0,0,1,33,1.36a14.2,14.2,0,0,1,4.11.5,24.53,24.53,0,0,1,3.21,1.19c1.07.5,2,.84,2.85,1.18a7.53,7.53,0,0,0,2.68.51c2.68,0,4.46-1.52,5.36-4.74h1.42V27.58H51.23a73.9,73.9,0,0,0-4.47-12.52,36.82,36.82,0,0,0-4.82-7.61,13.21,13.21,0,0,0-4.81-3.73,11.39,11.39,0,0,0-4.29-1c-2,0-3.75,1-5.35,3s-3,5.42-4.29,10.16a119.86,119.86,0,0,0-2.85,18.78q-1.08,11.67-1.07,28.94a253.68,253.68,0,0,0,1.6,31.47q1.61,12.44,4.29,19.8c1.78,4.91,3.92,8.29,6.42,10.32a12.58,12.58,0,0,0,8.21,3.05,13.58,13.58,0,0,0,7.32-2,30.68,30.68,0,0,0,6.25-5.42l1.07,1a29.44,29.44,0,0,1-6.78,6.26A18.11,18.11,0,0,1,37,131.32Z"/><path class="cls-1" d="M103,132.16c-8.75,0-15.71-2.2-20.7-6.6s-7.5-11.51-7.5-21.32v-76c0-5.24,0-9.48-.18-12.52A48.7,48.7,0,0,0,73.9,8.8a5.1,5.1,0,0,0-1.61-3.05,10,10,0,0,0-3-1.35v-1H98.53v1a10.18,10.18,0,0,0-3,1.35,5,5,0,0,0-1.6,3.05,47,47,0,0,0-.72,6.94C93,18.78,93,23,93,28.26v77c0,8.79,1.08,15.06,3,18.78s5.53,5.58,10.53,5.58c5.89,0,10.35-2.2,13.21-6.43s4.28-10.32,4.28-18.27v-76c0-5.08,0-9.14-.18-12a53.64,53.64,0,0,0-.71-6.94,6.42,6.42,0,0,0-2-3.55,13.13,13.13,0,0,0-3.75-2.37v-1h14.46v1a8.25,8.25,0,0,0-3,2.2,8.11,8.11,0,0,0-1.61,3.55,52.27,52.27,0,0,0-.71,6.77c-.18,2.88-.18,6.94-.18,12v76c0,8.63-1.78,15.23-5.17,20s-9.82,7.61-18.21,7.61Z"/><path class="cls-1" d="M146.72,128.61a8.87,8.87,0,0,0,2.86-1.35,5.1,5.1,0,0,0,1.61-3.05,48.7,48.7,0,0,0,.71-6.94c.18-3,.18-7.28.18-12.52V27.92c0-5.24,0-9.47-.18-12.52a48.7,48.7,0,0,0-.71-6.94,5,5,0,0,0-1.61-3,9.76,9.76,0,0,0-3-1.36v-1H171a81.06,81.06,0,0,1,14.81,1.18A32.55,32.55,0,0,1,197.59,8.8a22.93,22.93,0,0,1,8,9.14c2,3.89,2.86,9,2.86,15.23a34.29,34.29,0,0,1-2.32,13.2,33.75,33.75,0,0,1-6.42,10.15,29.51,29.51,0,0,1-9.64,6.77,40.83,40.83,0,0,1-12.32,3.21A31.76,31.76,0,0,1,186.17,68,15.84,15.84,0,0,1,193,72.6a29,29,0,0,1,5,9,70.25,70.25,0,0,1,3.57,14.73q1.6,10.9,2.68,17.26c.71,4.23,1.42,7.44,2,9.64s1.07,3.56,1.61,4.07a3.06,3.06,0,0,0,2.14.84,6.35,6.35,0,0,0,3.21-.68c.89-.5,1.61-.84,2.14-1.18l.9.68c-.54.84-1.79,1.69-3.75,2.7s-5,1.53-9.11,1.53a22,22,0,0,1-8-1.19,11.36,11.36,0,0,1-5.35-4.57,28.74,28.74,0,0,1-3.39-9.14A143.24,143.24,0,0,1,184.21,101c-.9-7.62-1.79-13.71-2.5-18.11A42.52,42.52,0,0,0,179,72.76c-1.07-2.36-2.14-3.89-3.39-4.56A12.39,12.39,0,0,0,170.82,67v37.74c0,5.24,0,9.47.18,12.52a48.7,48.7,0,0,0,.71,6.94,5.05,5.05,0,0,0,1.61,3.05,10,10,0,0,0,3,1.35v1H146.72v-1Zm24.1-63.12h.71c7.32,0,12.5-2.88,15.35-8.63s4.29-13.71,4.29-23.69a64.73,64.73,0,0,0-1.43-14.72,21.64,21.64,0,0,0-4.11-8.8,12.4,12.4,0,0,0-6.42-4.4,26,26,0,0,0-7.67-1h-.18Z"/><path class="cls-1" d="M226.51,128.78a8.24,8.24,0,0,0,1.79-1.7,11.27,11.27,0,0,0,1.78-3.55,50.09,50.09,0,0,0,1.61-6.09c.53-2.54,1.07-5.75,1.6-9.65l14.11-87-1.08-6.09c-.71-4.4-1.6-7.27-2.85-8.63a8.26,8.26,0,0,0-3.75-2.54V2.71h19.81a5,5,0,0,1,2,.34c.35.17.71.84.89,2l18,103.05c.53,3.56,1.07,6.43,1.6,8.8s1.07,4.4,1.61,6.09a10.71,10.71,0,0,0,1.78,3.73,6,6,0,0,0,2.5,1.69v1H261.67v-1a4.16,4.16,0,0,0,2.15-1,5.92,5.92,0,0,0,1.42-2,9.31,9.31,0,0,0,.54-3.55,45.56,45.56,0,0,0-.54-6.09L261,92.23H238.29l-2.5,15.22c-.53,3.9-.89,7.11-1.07,9.65a21.49,21.49,0,0,0,.18,6.09,7.07,7.07,0,0,0,2,3.56,9.78,9.78,0,0,0,3.75,2v.84h-14.1v-.84ZM248.59,27.65l-9.94,62.44h22Z"/><path class="cls-1" d="M435.35,128.78a8.24,8.24,0,0,0,1.79-1.7,11.27,11.27,0,0,0,1.78-3.55,50.09,50.09,0,0,0,1.61-6.09c.53-2.54,1.07-5.75,1.6-9.65l14.1-87-1.07-6.09c-.71-4.4-1.6-7.27-2.85-8.63a8.26,8.26,0,0,0-3.75-2.54V2.71h19.81a5,5,0,0,1,2,.34c.36.17.72.84.9,2l18,103.05c.54,3.56,1.08,6.43,1.61,8.8s1.07,4.4,1.61,6.09a10.71,10.71,0,0,0,1.78,3.73,6,6,0,0,0,2.5,1.69v1H470.51v-1a4.09,4.09,0,0,0,2.14-1,5.81,5.81,0,0,0,1.43-2,9.31,9.31,0,0,0,.54-3.55,45.56,45.56,0,0,0-.54-6.09L469.8,92.23H447.13l-2.5,15.22c-.53,3.9-.89,7.11-1.07,9.65a21.49,21.49,0,0,0,.18,6.09,7.07,7.07,0,0,0,2,3.56,9.78,9.78,0,0,0,3.75,2v.84h-14.1v-.84ZM457.43,27.65l-9.94,62.44h22Z"/><path class="cls-1" d="M303.26,127.25a6.76,6.76,0,0,0,1.61-3.55,53,53,0,0,0,.72-6.94c.17-2.87.17-6.94.17-12V28.6c0-5.25,0-9.48-.17-12.52A52.86,52.86,0,0,0,304.87,9c-.36-1.69-.89-2.88-1.61-3.39a10,10,0,0,0-3-1.35v-1h21.95a4.07,4.07,0,0,1,2.15.5c.53.34,1.07,1.53,1.6,3.39l13.39,78L354,3.05h24.63v1a9.93,9.93,0,0,0-3,1.36,5,5,0,0,0-1.6,3,47,47,0,0,0-.72,6.94c-.18,3-.18,7.28-.18,12.52v76.83c0,5.24,0,9.47.18,12.52a47,47,0,0,0,.72,6.94,5,5,0,0,0,1.6,3,9.93,9.93,0,0,0,3,1.36v1h-30v-1a9.93,9.93,0,0,0,3-1.36,5,5,0,0,0,1.6-3,47,47,0,0,0,.72-6.94c.17-3,.17-7.28.17-12.52V11.85L333.07,130.3h-2.14L307.73,11.17v92.9c0,5.08,0,9.14.18,12a44.61,44.61,0,0,0,.89,6.76,6.83,6.83,0,0,0,2,3.56,9.34,9.34,0,0,0,3.75,2.2v1H300.23v-1A5.44,5.44,0,0,0,303.26,127.25Z"/><path class="cls-1" d="M394.3,129a9.76,9.76,0,0,0,3-1.36c.72-.51,1.25-1.69,1.61-3.38a53.15,53.15,0,0,0,.71-7.11c.18-3,.18-7.28.18-12.52V27.75c0-5.24,0-9.47-.18-12.52a47.26,47.26,0,0,0-.71-6.94,5,5,0,0,0-1.61-3,9.76,9.76,0,0,0-3-1.36v-1h29.45v1a9.93,9.93,0,0,0-3,1.36,5,5,0,0,0-1.6,3,47,47,0,0,0-.72,6.94c-.17,3.05-.17,7.28-.17,12.52v76.83c0,5.24,0,9.31.17,12.35a52.86,52.86,0,0,0,.72,7.11,5.07,5.07,0,0,0,1.6,3.21,9.93,9.93,0,0,0,3,1.36v1H394.3Z"/><path class="cls-1" d="M488.42,19.15a9.53,9.53,0,0,0,.11-1.84V8.69a3,3,0,0,0,0-.74.77.77,0,0,0-.17-.31.79.79,0,0,0-.28-.16V7.32h2.72a7.38,7.38,0,0,1,3,.53A2.34,2.34,0,0,1,495,10.26a2.62,2.62,0,0,1-1,2.16,5,5,0,0,1-2.38,1,2.77,2.77,0,0,1,1.77.68,3.85,3.85,0,0,1,.95,2.26c.11.69.22,1.21.27,1.58a7.58,7.58,0,0,0,.17.84.7.7,0,0,0,.17.37.2.2,0,0,0,.16.05.42.42,0,0,0,.39-.21l.17.16c-.11.1-.28.21-.5.37a1.82,1.82,0,0,1-1,.21,1.4,1.4,0,0,1-1.17-.58,5.39,5.39,0,0,1-.61-2.37c-.11-.79-.22-1.42-.27-1.89a3.25,3.25,0,0,0-.22-1,.73.73,0,0,0-.39-.37,3.84,3.84,0,0,0-.78,0h-.05V17.1a9.53,9.53,0,0,0,.11,1.84.57.57,0,0,0,.5.42v.21h-3.05v-.21C488.38,19.32,488.42,19.15,488.42,19.15Zm4.38-8.89a3.06,3.06,0,0,0-.55-2.2,2.12,2.12,0,0,0-1.55-.53v5.78a1.69,1.69,0,0,0,1.66-.79,4.7,4.7,0,0,0,.44-2.2Z"/><path class="cls-1" d="M491.86,24.34c-4.49,0-8.14-4.85-8.14-10.82s3.65-10.81,8.14-10.81S500,7.56,500,13.52,496.35,24.34,491.86,24.34Zm0-21.1c-4.19,0-7.61,4.61-7.61,10.28s3.42,10.29,7.61,10.29,7.61-4.61,7.61-10.29S496.06,3.24,491.86,3.24Z"/></g></g></g></svg>