<?xml version="1.0" encoding="utf-8"?>
<!-- Generator: Adobe Illustrator 24.3.0, SVG Export Plug-In . SVG Version: 6.00 Build 0)  -->
<svg version="1.1" id="Capa_1" xmlns="http://www.w3.org/2000/svg" xmlns:xlink="http://www.w3.org/1999/xlink" x="0px" y="0px"
	 viewBox="0 0 104 96.2" style="enable-background:new 0 0 104 96.2;" xml:space="preserve">
<style type="text/css">
	.st0{fill:#FF4D00;}
</style>
<g id="Capa_2_1_">
	<g id="Our_Tequilas">
		<path class="st0" d="M33,47.6l1-5.5c0-0.1,0-0.1,0-0.2c0-0.1-0.1-0.1-0.2-0.1h-5.1c-0.1,0-0.2,0.1-0.2,0.2l-0.9,4.5
			c-0.5,2.9-5.6,3.7-7.4,3.8c-0.1,0-0.2,0.1-0.2,0.2l-0.9,4.8c0,0.1,0,0.2,0.1,0.2c0.1,0,6.1,2.7,5.5,6.2l-4.1,22.5
			c-0.3,2.3-2.5,3.9-4.8,3.6c-0.2,0-0.3-0.1-0.5-0.1c-0.1,0-0.2,0.1-0.3,0.2l-1,4.9c0,0.1,0.1,0.2,0.2,0.3c0.7,0.1,1.3,0.2,2,0.2
			c2,0,4-0.5,5.7-1.6c1.5,2.2,3.8,3.7,6.4,4.3h0c0,0,0.1,0,0.1,0c0.1,0,0.1-0.1,0.1-0.2l1-4.9c0-0.1-0.1-0.2-0.2-0.3
			c-0.8-0.2-1.5-0.6-2.2-1.1c-1.2-1-1.6-2.4-1.3-4.3l0,0L30.2,63c0-0.2,0-0.3,0.1-0.5c0.4-2.9-0.7-5.6-3.2-8
			C31.3,52.7,32.7,49.8,33,47.6"/>
		<path class="st0" d="M90.8,87.9c-2.3,0.6-4.6-0.8-5.2-3c0-0.2-0.1-0.3-0.1-0.5l-2-10.8c0-0.1-0.1-0.2-0.2-0.2h-5.1
			c-0.1,0-0.1,0-0.2,0.1c0,0.1,0,0.1,0,0.2l2.2,11.7l0,0c0.6,2.3-0.7,4.6-2.9,5.3c-0.2,0.1-0.4,0.1-0.6,0.1c-0.1,0-0.2,0.1-0.2,0.3
			c0,0,0,0,0,0l1,4.9c0,0.1,0.1,0.2,0.2,0.2l0,0c2.6-0.6,4.9-2.1,6.4-4.3c1.7,1.1,3.6,1.6,5.6,1.6c0.7,0,1.3-0.1,2-0.2
			c0.1,0,0.2-0.1,0.2-0.2l-1-4.9C91,88,90.9,87.9,90.8,87.9"/>
		<path class="st0" d="M61,31.1h5.2c0.1,0,0.2-0.1,0.2-0.2l2.2-7.6l4.5,24.3c0.4,2.1,1.8,5,6,6.8c-2.5,2.4-3.6,5.1-3.2,8
			c0,0.1,0.1,0.2,0.2,0.2h5.1c0.1,0,0.1,0,0.2-0.1c0-0.1,0-0.1,0-0.2l-0.1-0.4c-0.5-2.9,3.7-5.3,5-6c0.3-0.2,0.4-0.2,0.5-0.2
			c0.1,0,0.2-0.1,0.1-0.2l-0.9-4.8c0-0.1-0.1-0.2-0.2-0.2c-1.7-0.1-6.8-1-7.4-3.8l-6.6-35c0.6-2.2,2.9-3.6,5.2-3c0,0,0.1,0,0.1,0
			c0.1,0,0.2-0.1,0.3-0.2l1.2-4.9c0-0.1,0-0.1,0-0.2c0-0.1-0.1-0.1-0.1-0.1c-2.6-0.6-5.4-0.2-7.7,1.1c-1.4-2.3-3.7-3.9-6.3-4.5
			c-0.1,0-0.2,0-0.3,0.2c0,0,0,0,0,0L63.1,5c0,0.1,0,0.2,0.2,0.3c0,0,0,0,0,0c2.3,0.4,3.8,2.6,3.4,4.9c0,0.1,0,0.2-0.1,0.3l0,0
			c0,0,0,0.1,0,0.1l-5.8,20.1c0,0.1,0,0.1,0,0.2C60.9,31.1,60.9,31.1,61,31.1"/>
		<path class="st0" d="M28.6,8.6c0,0.1,0.1,0.2,0.3,0.2c2.2-0.7,4.6,0.6,5.3,2.8c0,0,0,0.1,0,0.1l-3.6,19.2c0,0.1,0.1,0.2,0.2,0.3
			c0,0,0,0,0,0h5.1c0.1,0,0.2-0.1,0.2-0.2l1.4-7.6l9.6,33.2c0,0.1,0.1,0.3,0.1,0.4c1.1,3.2,4.6,5,7.8,3.9c1.9-0.6,3.3-2.1,3.9-3.9
			c0-0.1,0-0.2,0.1-0.2l4.2-14.4c0-0.1,0-0.1,0-0.2c0-0.1-0.1-0.1-0.2-0.1h-5.3c-0.1,0-0.2,0.1-0.2,0.2l-3.8,13l0,0
			c-0.1,0.4-0.5,0.5-0.9,0.4c-0.2-0.1-0.3-0.2-0.4-0.4L39.7,10.7c0,0,0-0.1,0-0.1l0,0c-0.6-2.3,0.7-4.6,3-5.2c0.1,0,0.2-0.1,0.3-0.1
			c0.1,0,0.2-0.2,0.2-0.3l-1.3-4.9C41.8,0,41.7,0,41.6,0c0,0,0,0,0,0c-2.6,0.7-4.8,2.3-6.3,4.5c-2.3-1.3-5.1-1.7-7.7-1.1
			c-0.1,0-0.2,0.1-0.2,0.3c0,0,0,0,0,0L28.6,8.6z"/>
		<path class="st0" d="M20.3,70.7c0.1,0,0.2-0.1,0.2-0.2l0.9-5c0-0.1,0-0.1,0-0.2c0,0-0.1-0.1-0.2-0.1h-3.9
			c-2.9-0.2-5.2-2.5-5.2-5.4c0,0,0-0.1,0-0.1c-0.5-3.1-2.3-5.8-5-7.5c2.6-1.6,4.4-4.3,4.9-7.3c0,0,0-0.1,0-0.1c0,0,0-0.1,0-0.1
			c0-2.9,2.3-5.3,5.2-5.5h21.8c0.1,0,0.1,0,0.2-0.1c0-0.1,0-0.1,0-0.2l-1.4-5c0-0.1-0.1-0.2-0.2-0.2H17.4
			c-5.6,0.1-10.1,4.4-10.6,9.9l0,0c0,0.1,0,0.2,0,0.3c-0.7,3.9-6.5,5.5-6.6,5.6c-0.1,0-0.2,0.1-0.2,0.2v4.9c0,0.1,0.1,0.2,0.2,0.2
			c0.1,0,6.2,1.7,6.6,5.8c0,0,0,0,0,0.1c0.5,5.5,5.1,9.8,10.6,9.9L20.3,70.7z"/>
		<path class="st0" d="M99.1,59.3h-5c-0.1,0-0.2,0.1-0.2,0.2v0c0.1,3-2.2,5.6-5.2,5.7H60.9c-3.8,0-6.3,2.4-7.7,4.6
			c-1.5-2.4-3.9-4.1-6.7-4.5c0,0-0.1-0.1-0.2-0.1H32.7c-0.1,0-0.2,0.1-0.2,0.2l-0.9,5c0,0.1,0,0.1,0,0.2c0,0.1,0.1,0.1,0.2,0.1h13.6
			c3.5,0,5.1,6.4,5.1,6.5c0,0.1,0.1,0.2,0.2,0.2h4.9c0.1,0,0.2-0.1,0.2-0.2c0-0.1,1.7-6.5,5.1-6.5h27.8c6-0.2,10.8-5.1,10.7-11.1
			C99.3,59.4,99.2,59.3,99.1,59.3L99.1,59.3"/>
		<path class="st0" d="M50.1,37.4c0,0.1,0.1,0.1,0.2,0.2c0.1,0,0.1,0,0.2,0c1-0.8,1.9-1.8,2.6-2.8c0.7,1.1,1.6,2.1,2.7,2.9
			c1.4,1.1,3.2,1.7,5,1.7h7.9c0.1,0,0.1,0,0.2-0.1c0-0.1,0-0.1,0-0.2l-0.9-5c0-0.1-0.1-0.2-0.2-0.2h-6.8c-0.2,0-0.5,0-0.7-0.1
			c-1-0.3-1.9-1.1-2.5-2c-0.9-1.3-1.5-2.8-1.9-4.4c0-0.1-0.1-0.2-0.2-0.2h-4.9l0,0c-0.1,0-0.2,0.1-0.2,0.2c-0.4,1.5-1.1,3-1.9,4.4
			c0,0.1,0,0.1,0,0.2L50.1,37.4z"/>
		<path class="st0" d="M103.8,50.1c-0.8-0.1-1.5-0.3-2.2-0.7c-1.5-0.9-2.2-2.5-2.2-5c0,0,0-0.1,0-0.1v-0.5c-0.4-5.6-5.1-10-10.7-10
			h-9.5c-0.1,0-0.1,0-0.2,0.1c0,0.1,0,0.1,0,0.2l0.9,5c0,0.1,0.1,0.2,0.2,0.2h8.6c2.8,0.1,5,2.3,5.2,5.1c0,0.1,0,0.2,0,0.3v0.1
			c-0.1,2.2-0.7,3.8-2.1,4.6c-0.7,0.4-1.5,0.7-2.4,0.8c-0.1,0-0.1,0-0.2,0.1c0,0.1-0.1,0.1-0.1,0.2l0.9,5l0,0c0,0.1,0.1,0.2,0.2,0.2
			c1.4-0.2,2.8-0.6,4.1-1.4c0.8-0.5,1.6-1.1,2.2-1.8c1.9,2,4.4,3.1,7.2,3.2l0,0c0.1,0,0.1,0,0.2-0.1c0,0,0.1-0.1,0.1-0.2v-5
			C104,50.3,103.9,50.2,103.8,50.1"/>
	</g>
</g>
</svg>
