<svg xmlns="http://www.w3.org/2000/svg" viewBox="0 0 70.39 65.09"><defs><style>.cls-1{fill:#fff;}</style></defs><g id="Capa_2" data-name="Capa 2"><g id="Verificador_Edad" data-name="Verificador Edad"><path class="cls-1" d="M22.37,32.26l.69-3.69a.15.15,0,0,0,0-.13.17.17,0,0,0-.12-.06H19.45a.16.16,0,0,0-.15.13l-.58,3.07c-.35,1.94-3.8,2.53-5,2.58a.15.15,0,0,0-.14.13L13,37.55a.13.13,0,0,0,.09.17s4.14,1.86,3.71,4.19L14,57.12a2.87,2.87,0,0,1-3.57,2.37.15.15,0,0,0-.18.13L9.59,63a.15.15,0,0,0,.12.18,6.75,6.75,0,0,0,1.36.14,7,7,0,0,0,3.8-1.1,7.11,7.11,0,0,0,4.36,2.91h0a.16.16,0,0,0,.09,0,.18.18,0,0,0,.07-.1l.68-3.33a.15.15,0,0,0-.11-.18,4.3,4.3,0,0,1-1.48-.73,2.67,2.67,0,0,1-.85-2.91v0l2.8-15.2c0-.11,0-.21.05-.34a6.27,6.27,0,0,0-2.16-5.41,6.19,6.19,0,0,0,4-4.58"/><path class="cls-1" d="M61.47,59.49a2.87,2.87,0,0,1-3.58-2.36l-1.34-7.32a.17.17,0,0,0-.15-.13H52.94a.14.14,0,0,0-.12.06.2.2,0,0,0,0,.13l1.46,7.92s0,0,0,0a2.88,2.88,0,0,1-2.35,3.64.15.15,0,0,0-.11.18l.7,3.33a.15.15,0,0,0,.15.13h0A7.11,7.11,0,0,0,57,62.17a7,7,0,0,0,3.8,1.1,6.67,6.67,0,0,0,1.36-.14.15.15,0,0,0,.12-.18l-.66-3.33a.16.16,0,0,0-.18-.13"/><path class="cls-1" d="M41.28,21.08h3.54A.15.15,0,0,0,45,21l1.49-5.16,3.07,16.45a6.19,6.19,0,0,0,4,4.58,6.3,6.3,0,0,0-2.16,5.41.15.15,0,0,0,.16.13H55a.17.17,0,0,0,.12-.05.15.15,0,0,0,0-.13l0-.29c-.36-2,2.5-3.58,3.39-4a2.39,2.39,0,0,1,.32-.15.15.15,0,0,0,.09-.17l-.58-3.27a.18.18,0,0,0-.15-.13c-1.18,0-4.62-.65-5-2.58L48.76,7.89a2.87,2.87,0,0,1,3.58-2,.15.15,0,0,0,.18-.11l.79-3.31a.17.17,0,0,0,0-.12.18.18,0,0,0-.1-.07A7.1,7.1,0,0,0,48,3.08,7.18,7.18,0,0,0,43.75,0a.15.15,0,0,0-.18.12l-.83,3.3a.15.15,0,0,0,.11.18A2.86,2.86,0,0,1,45.1,7.14v0l0,.08L41.13,20.89a.16.16,0,0,0,0,.13.14.14,0,0,0,.12.06"/><path class="cls-1" d="M19.38,5.8a.15.15,0,0,0,.18.11,2.87,2.87,0,0,1,3.59,2l-2.43,13a.15.15,0,0,0,0,.13.17.17,0,0,0,.12,0h3.46a.14.14,0,0,0,.15-.12l1-5.15,6.47,22.46c0,.09,0,.19.08.28a4.18,4.18,0,0,0,7.91,0,1.21,1.21,0,0,0,.05-.18l2.82-9.75a.16.16,0,0,0,0-.13.15.15,0,0,0-.12-.07H39.09a.16.16,0,0,0-.15.12L36.4,37.31v0a.46.46,0,0,1-.87,0L26.84,7.25l0-.08h0A2.87,2.87,0,0,1,29.05,3.6a.15.15,0,0,0,.11-.18L28.34.12A.17.17,0,0,0,28.15,0,7.16,7.16,0,0,0,23.9,3.08a7.13,7.13,0,0,0-5.19-.78.15.15,0,0,0-.11.19Z"/><path class="cls-1" d="M13.76,47.89a.16.16,0,0,0,.15-.13l.63-3.4a.22.22,0,0,0,0-.13.17.17,0,0,0-.12,0H11.79a3.73,3.73,0,0,1-3.52-3.67.11.11,0,0,0,0-.08,7.39,7.39,0,0,0-3.35-5,7.45,7.45,0,0,0,3.34-4.95s0-.06,0-.09a.11.11,0,0,0,0-.08,3.73,3.73,0,0,1,3.52-3.7H26.48a.14.14,0,0,0,.12-.06.17.17,0,0,0,0-.14l-1-3.4a.15.15,0,0,0-.15-.11H11.79A7.34,7.34,0,0,0,4.6,29.61s0,0,0,0a.83.83,0,0,1,0,.22C4.14,32.51.18,33.58.14,33.59a.16.16,0,0,0-.12.15L0,37a.16.16,0,0,0,.11.15c.05,0,4.23,1.18,4.48,4v0a7.35,7.35,0,0,0,7.19,6.71Z"/><path class="cls-1" d="M67.07,40.16h-3.4a.15.15,0,0,0-.15.15A3.72,3.72,0,0,1,60,44.18H41.2A6.44,6.44,0,0,0,36,47.27a6.49,6.49,0,0,0-4.54-3,.16.16,0,0,0-.11,0H22.12a.15.15,0,0,0-.15.12l-.63,3.41a.17.17,0,0,0,.15.18H30.7c2.36,0,3.43,4.33,3.44,4.37a.15.15,0,0,0,.15.12l3.32,0a.16.16,0,0,0,.15-.11s1.13-4.4,3.44-4.4H60a7.43,7.43,0,0,0,7.24-7.58.16.16,0,0,0-.16-.15"/><path class="cls-1" d="M33.92,25.33a.16.16,0,0,0,.1.1.14.14,0,0,0,.14,0,8.25,8.25,0,0,0,1.78-1.92,8.16,8.16,0,0,0,1.8,1.93,5.75,5.75,0,0,0,2,1,6,6,0,0,0,1.4.2h5.35a.14.14,0,0,0,.12-.06.13.13,0,0,0,0-.12L46,23a.16.16,0,0,0-.16-.12H41.2a2,2,0,0,1-.47-.06A3.12,3.12,0,0,1,39,21.46a10.6,10.6,0,0,1-1.28-3,.17.17,0,0,0-.15-.12l-3.31,0h0a.16.16,0,0,0-.15.12,10.44,10.44,0,0,1-1.29,2.95.2.2,0,0,0,0,.13Z"/><path class="cls-1" d="M70.24,33.93a3.75,3.75,0,0,1-1.5-.46c-1-.6-1.51-1.7-1.51-3.37,0,0,0,0,0-.06l0-.35A7.34,7.34,0,0,0,60,22.88H53.57a.17.17,0,0,0-.12.05.22.22,0,0,0,0,.13l.64,3.4a.15.15,0,0,0,.15.13H60a3.71,3.71,0,0,1,3.51,3.46c0,.06,0,.13,0,.19v.05a3.48,3.48,0,0,1-1.42,3.12,3.58,3.58,0,0,1-1.61.52.16.16,0,0,0-.11,0,.15.15,0,0,0,0,.13l.6,3.36h0a.15.15,0,0,0,.17.12,7.29,7.29,0,0,0,2.77-.92,6.53,6.53,0,0,0,1.5-1.21,7.12,7.12,0,0,0,4.85,2.18h0a.16.16,0,0,0,.11,0,.15.15,0,0,0,0-.11v-3.4a.15.15,0,0,0-.15-.15"/></g></g></svg>