<svg xmlns="http://www.w3.org/2000/svg" viewBox="0 0 596 93.81"><defs><style>.cls-1{fill:#fff;}.cls-2{fill:none;stroke:#fff;stroke-miterlimit:10;}</style></defs><g id="Capa_2" data-name="Capa 2"><g id="Verificador_Edad" data-name="Verificador Edad"><g id="Logo"><path class="cls-1" d="M204.47,57.65a14.85,14.85,0,0,1-5.64-1.26,12.62,12.62,0,0,1-5.25-4.46A27.3,27.3,0,0,1,189.74,43a58.35,58.35,0,0,1-1.49-14.71,53.63,53.63,0,0,1,1.41-13.44,29.28,29.28,0,0,1,3.52-8.55,12,12,0,0,1,4.71-4.45A11.53,11.53,0,0,1,202.74.59a6.18,6.18,0,0,1,1.81.23,10,10,0,0,1,1.41.52c.47.22.86.37,1.25.52a3.24,3.24,0,0,0,1.18.22c1.17,0,2-.67,2.35-2.08h.62V12.11h-.62a33.06,33.06,0,0,0-2-5.5,16.41,16.41,0,0,0-2.12-3.34,5.83,5.83,0,0,0-2.11-1.64,5.11,5.11,0,0,0-1.88-.44,3,3,0,0,0-2.35,1.34A12.52,12.52,0,0,0,198.43,7a53.56,53.56,0,0,0-1.25,8.25q-.47,5.13-.47,12.7a111.21,111.21,0,0,0,.71,13.82,41.52,41.52,0,0,0,1.88,8.69A10.08,10.08,0,0,0,202.12,55a5.48,5.48,0,0,0,3.6,1.34,6,6,0,0,0,3.21-.89A12.78,12.78,0,0,0,211.68,53l.47.45a13.38,13.38,0,0,1-3,2.75,7.94,7.94,0,0,1-4.7,1.41Z"/><path class="cls-1" d="M233.46,58c-3.84,0-6.89-1-9.09-2.9s-3.29-5-3.29-9.36V12.41c0-2.31,0-4.16-.08-5.5a20.74,20.74,0,0,0-.31-3.05A2.16,2.16,0,0,0,220,2.53a4.13,4.13,0,0,0-1.33-.6V1.49H231.5v.44a4.13,4.13,0,0,0-1.33.6,2.16,2.16,0,0,0-.7,1.33,20.46,20.46,0,0,0-.32,3.05c-.08,1.34-.08,3.19-.08,5.5v33.8c0,3.86.47,6.61,1.34,8.24A4.77,4.77,0,0,0,235,56.91a6.57,6.57,0,0,0,5.8-2.83q1.88-2.79,1.88-8V12.7c0-2.22,0-4-.08-5.27a25.48,25.48,0,0,0-.31-3,2.82,2.82,0,0,0-.87-1.56,5.83,5.83,0,0,0-1.64-1V1.34h6.35v.44a3.59,3.59,0,0,0-1.34,1,3.61,3.61,0,0,0-.7,1.56,21.66,21.66,0,0,0-.32,3c-.07,1.26-.07,3.05-.07,5.27V45.91c0,3.79-.79,6.69-2.28,8.77s-4.31,3.34-8,3.34Z"/><path class="cls-1" d="M252.66,56.46a4,4,0,0,0,1.26-.59,2.27,2.27,0,0,0,.7-1.34,19.43,19.43,0,0,0,.31-3.05c.08-1.34.08-3.19.08-5.49V12.26c0-2.31,0-4.16-.08-5.5a19.43,19.43,0,0,0-.31-3,2.24,2.24,0,0,0-.7-1.33,4.3,4.3,0,0,0-1.34-.6V1.34h10.74a35.46,35.46,0,0,1,6.5.52,14.35,14.35,0,0,1,5.17,2,10.1,10.1,0,0,1,3.53,4,14.89,14.89,0,0,1,1.25,6.68,14.91,14.91,0,0,1-1,5.79,14.48,14.48,0,0,1-2.82,4.46,12.68,12.68,0,0,1-4.23,3,18,18,0,0,1-5.4,1.42,13.92,13.92,0,0,1,3.68.66,7.08,7.08,0,0,1,3,2,12.88,12.88,0,0,1,2.19,3.94,30.5,30.5,0,0,1,1.57,6.46c.47,3.2.86,5.72,1.17,7.58s.63,3.27.86,4.23a4.26,4.26,0,0,0,.71,1.79,1.34,1.34,0,0,0,.94.37,2.83,2.83,0,0,0,1.41-.3c.39-.22.71-.37.94-.52l.39.3a4.36,4.36,0,0,1-1.64,1.19,9.24,9.24,0,0,1-4,.66,9.56,9.56,0,0,1-3.53-.52,5,5,0,0,1-2.35-2,12.94,12.94,0,0,1-1.48-4,61.39,61.39,0,0,1-1-6.69c-.4-3.34-.79-6-1.1-8a18.3,18.3,0,0,0-1.18-4.46,4.14,4.14,0,0,0-1.48-2,5.36,5.36,0,0,0-2.12-.52V46c0,2.3,0,4.15.08,5.49a20.74,20.74,0,0,0,.31,3.05,2.22,2.22,0,0,0,.71,1.34,4.36,4.36,0,0,0,1.33.59v.45h-13v-.45Zm10.58-27.71h.31c3.22,0,5.49-1.26,6.74-3.79s1.88-6,1.88-10.4a28.5,28.5,0,0,0-.62-6.46,9.61,9.61,0,0,0-1.81-3.87,5.5,5.5,0,0,0-2.82-1.93,11.67,11.67,0,0,0-3.37-.44h-.07Z"/><path class="cls-1" d="M287.69,56.53a3.45,3.45,0,0,0,.78-.74,4.92,4.92,0,0,0,.79-1.56,22.48,22.48,0,0,0,.7-2.67c.24-1.12.47-2.53.71-4.24l6.19-38.18-.47-2.68c-.32-1.93-.71-3.19-1.26-3.78a3.58,3.58,0,0,0-1.64-1.12V1.19h8.69a2.12,2.12,0,0,1,.87.15c.15.07.31.37.39.89l7.91,45.24c.24,1.56.47,2.82.71,3.86s.47,1.94.7,2.68a4.66,4.66,0,0,0,.79,1.63,2.62,2.62,0,0,0,1.09.75v.44H303.13v-.44a1.93,1.93,0,0,0,.94-.45,2.61,2.61,0,0,0,.62-.89,4,4,0,0,0,.24-1.56,19.93,19.93,0,0,0-.24-2.68l-1.88-10.32h-9.95l-1.1,6.68c-.23,1.71-.39,3.12-.47,4.24a9.31,9.31,0,0,0,.08,2.67,3.11,3.11,0,0,0,.86,1.56,4.15,4.15,0,0,0,1.65.89v.38h-6.19v-.38Zm9.69-44.39L293,39.55h9.64Z"/><path class="cls-1" d="M379.37,56.53a3.45,3.45,0,0,0,.78-.74,4.92,4.92,0,0,0,.79-1.56,22.48,22.48,0,0,0,.7-2.67c.24-1.12.47-2.53.71-4.24l6.19-38.18-.47-2.68c-.32-1.93-.71-3.19-1.26-3.78a3.53,3.53,0,0,0-1.64-1.12V1.19h8.7a2.1,2.1,0,0,1,.86.15c.15.07.31.37.39.89L403,47.47c.24,1.56.47,2.82.71,3.86s.47,1.94.7,2.68a4.66,4.66,0,0,0,.79,1.63,2.62,2.62,0,0,0,1.09.75v.44H394.81v-.44a1.93,1.93,0,0,0,.94-.45,2.61,2.61,0,0,0,.62-.89,4,4,0,0,0,.24-1.56,19.93,19.93,0,0,0-.24-2.68l-1.88-10.32h-9.95l-1.1,6.68c-.23,1.71-.39,3.12-.47,4.24a10.1,10.1,0,0,0,.08,2.67,3,3,0,0,0,.87,1.56,4.18,4.18,0,0,0,1.64.89v.38h-6.19v-.38Zm9.69-44.39L384.7,39.55h9.64Z"/><path class="cls-1" d="M321.38,55.87a3,3,0,0,0,.71-1.56,23.55,23.55,0,0,0,.31-3.05c.08-1.26.08-3,.08-5.27V12.55c0-2.3,0-4.15-.08-5.49a23.14,23.14,0,0,0-.31-3.12,2.46,2.46,0,0,0-.71-1.49,4.36,4.36,0,0,0-1.33-.59V1.41h9.64a1.84,1.84,0,0,1,.94.22,3,3,0,0,1,.7,1.49l5.88,34.25,6.43-36h10.81v.44a4.13,4.13,0,0,0-1.33.6,2.19,2.19,0,0,0-.71,1.33,22.24,22.24,0,0,0-.31,3.05C352,8.1,352,10,352,12.26V46c0,2.3,0,4.15.08,5.49a22.24,22.24,0,0,0,.31,3.05,2.22,2.22,0,0,0,.71,1.34,4.36,4.36,0,0,0,1.33.59v.45H341.29v-.45a4.6,4.6,0,0,0,1.33-.59,2.22,2.22,0,0,0,.7-1.34,20.46,20.46,0,0,0,.32-3.05c.08-1.34.08-3.19.08-5.49V5.2l-9.25,52h-.94L323.34,4.9V45.69c0,2.23,0,4,.08,5.27a21.49,21.49,0,0,0,.39,3,3,3,0,0,0,.86,1.56,4,4,0,0,0,1.65,1v.45h-6.27v-.44A2.42,2.42,0,0,0,321.38,55.87Z"/><path class="cls-1" d="M361.35,56.61a4.13,4.13,0,0,0,1.33-.6,2.48,2.48,0,0,0,.71-1.48,25.13,25.13,0,0,0,.31-3.12c.08-1.34.08-3.2.08-5.5V12.18c0-2.3,0-4.16-.08-5.49a22.24,22.24,0,0,0-.31-3.05,2.27,2.27,0,0,0-.71-1.34,4.36,4.36,0,0,0-1.33-.59V1.26h12.93v.45a4.55,4.55,0,0,0-1.34.59,2.27,2.27,0,0,0-.7,1.34,19.43,19.43,0,0,0-.31,3.05c-.08,1.33-.08,3.19-.08,5.49V45.91c0,2.3,0,4.09.08,5.42a21.6,21.6,0,0,0,.31,3.12,2.28,2.28,0,0,0,.7,1.42,4.55,4.55,0,0,0,1.34.59v.45H361.35Z"/><path class="cls-1" d="M402.67,8.41a4.85,4.85,0,0,0,.05-.81V3.81a1,1,0,0,0,0-.32.45.45,0,0,0-.07-.14l-.12-.07V3.21h1.19a3.32,3.32,0,0,1,1.32.23,1.06,1.06,0,0,1,.56,1.07,1.15,1.15,0,0,1-.44.94,2.26,2.26,0,0,1-1.05.44,1.24,1.24,0,0,1,.78.3,1.73,1.73,0,0,1,.41,1c.05.3.1.53.13.7a1.9,1.9,0,0,0,.07.36.4.4,0,0,0,.07.17.11.11,0,0,0,.07,0,.17.17,0,0,0,.17-.09l.08.07-.22.16a.76.76,0,0,1-.44.09.61.61,0,0,1-.51-.25,2.34,2.34,0,0,1-.27-1c-.05-.35-.1-.63-.12-.83a1.19,1.19,0,0,0-.1-.44c-.05-.09-.09-.14-.17-.16a1.2,1.2,0,0,0-.34,0h0v1.6a3.78,3.78,0,0,0,.05.8.23.23,0,0,0,.21.19v.09H402.6V8.5A.15.15,0,0,0,402.67,8.41Zm1.92-3.9a1.35,1.35,0,0,0-.24-1,.94.94,0,0,0-.68-.23V5.84a.75.75,0,0,0,.73-.34,2.14,2.14,0,0,0,.19-1Z"/><path class="cls-1" d="M404.18,10.69c-2,0-3.57-2.13-3.57-4.75s1.6-4.75,3.57-4.75,3.57,2.13,3.57,4.75S406.15,10.69,404.18,10.69Zm0-9.27c-1.84,0-3.34,2-3.34,4.52s1.5,4.51,3.34,4.51,3.34-2,3.34-4.51S406,1.42,404.18,1.42Z"/></g><line class="cls-2" y1="93.31" x2="596" y2="93.31"/></g></g></svg>