<svg xmlns="http://www.w3.org/2000/svg" viewBox="0 0 465.5 465.93"><defs><style>.cls-1{opacity:0.5;}.cls-2{fill:#ede9e5;}</style></defs><g id="Capa_2" data-name="Capa 2"><g id="Our_Tequilas" data-name="Our Tequilas"><g class="cls-1"><path class="cls-2" d="M364,387.94l4.17-3.74,14.6,16.32a11.84,11.84,0,0,1,3.08-4l3.76-3.37,3.5,3.91-3.43,3.07a7.83,7.83,0,0,0-2.51,3.36,2.86,2.86,0,0,0,.76,2.81L383.71,410Z"/><path class="cls-2" d="M344.64,403.82a13,13,0,0,1,7.15,1.16,12.39,12.39,0,0,1,5.24,4.95l2.11,3.52a12.49,12.49,0,0,1,1.89,7,13,13,0,0,1-2.34,6.87,21,21,0,0,1-14.05,8.42,12.92,12.92,0,0,1-7.11-1.22,12.68,12.68,0,0,1-5.24-5L330.18,426a12.6,12.6,0,0,1-1.92-7,12.89,12.89,0,0,1,2.3-6.81,21.09,21.09,0,0,1,14.08-8.38m-10.47,12.84a7.08,7.08,0,0,0,.76,6.37l2.19,3.65a7.17,7.17,0,0,0,5.31,3.69,11.46,11.46,0,0,0,7.42-1.94,11.66,11.66,0,0,0,5.27-5.63,7.13,7.13,0,0,0-.76-6.43l-2.18-3.65a7,7,0,0,0-5.29-3.65q-3.36-.44-7.47,2c-2.71,1.62-4.47,3.47-5.25,5.56"/><path class="cls-2" d="M304.06,424.31a12.91,12.91,0,0,1,6.71,2.72,12.39,12.39,0,0,1,4,6l1.27,3.9a12.5,12.5,0,0,1,.3,7.22,12.92,12.92,0,0,1-3.8,6.18,20.9,20.9,0,0,1-15.56,5.1,12.83,12.83,0,0,1-6.67-2.77,12.55,12.55,0,0,1-4-6l-1.28-3.91a12.56,12.56,0,0,1-.32-7.23,12.8,12.8,0,0,1,3.75-6.12,19,19,0,0,1,7.25-4.11,19.23,19.23,0,0,1,8.33-1M291,434.51a7.08,7.08,0,0,0-.67,6.39l1.33,4a7.14,7.14,0,0,0,4.36,4.79,11.49,11.49,0,0,0,7.66-.25c3-1,5.13-2.42,6.38-4.33a7.13,7.13,0,0,0,.7-6.44l-1.32-4a7,7,0,0,0-4.35-4.73c-2.13-.78-4.7-.67-7.74.32s-5.11,2.4-6.35,4.26"/><path class="cls-2" d="M243.22,437.25a6.29,6.29,0,0,1,2.81,5l0,.39a6.32,6.32,0,0,1-2,5.37,12,12,0,0,1-13,1,6.34,6.34,0,0,1-2.78-5l0-.42a6.28,6.28,0,0,1,2-5.31,9.94,9.94,0,0,1,6.31-2.41,10.19,10.19,0,0,1,6.68,1.43m-9.2,3.57a2.68,2.68,0,0,0-.91,2.32l0,.49a2.74,2.74,0,0,0,1.25,2.19,4.81,4.81,0,0,0,3,.61,4.58,4.58,0,0,0,2.85-1.05,2.74,2.74,0,0,0,.88-2.35l0-.5a2.62,2.62,0,0,0-1.24-2.14,4.48,4.48,0,0,0-2.94-.62,4.67,4.67,0,0,0-2.87,1.05M240,465.53l-5.36.4-.06-.86,24.68-30.69,5.36-.41.06.77ZM268.07,451a6.27,6.27,0,0,1,2.81,4.95l0,.4a6.3,6.3,0,0,1-2.05,5.37,10.3,10.3,0,0,1-6.38,2.43,10.13,10.13,0,0,1-6.63-1.44,6.27,6.27,0,0,1-2.77-5l0-.41a6.3,6.3,0,0,1,2-5.31,10,10,0,0,1,6.31-2.42,10.26,10.26,0,0,1,6.68,1.44m-9.2,3.57a2.67,2.67,0,0,0-.91,2.31l0,.49a2.75,2.75,0,0,0,1.25,2.2,4.81,4.81,0,0,0,3,.61,4.57,4.57,0,0,0,2.85-1.06,2.7,2.7,0,0,0,.88-2.34l0-.5a2.66,2.66,0,0,0-1.25-2.14,4.57,4.57,0,0,0-2.95-.63,4.73,4.73,0,0,0-2.86,1.06"/><path class="cls-2" d="M165.35,455.31q-7.82-2.38-10.77-7.16c-2-3.17-2.27-7-.88-11.6l.18-.56q2.09-6.83,7.19-9.1T174,427l13.69,4.17L179,459.49ZM164,431.63q-3.24,1.41-4.63,6l-.21.69q-2.74,9,7.7,12.21l8.25,2.52,5.7-18.66-8.3-2.52c-3.51-1.09-6.35-1.14-8.51-.2"/><polygon class="cls-2" points="107.65 429.15 110.13 424.74 127.69 434.6 131.21 428.33 114.43 418.92 116.91 414.51 133.68 423.93 137.24 417.58 119.68 407.73 122.16 403.32 144.64 415.94 130.14 441.77 107.65 429.15"/><path class="cls-2" d="M70.2,356.4l.63-.57,3.83,4.27-3,6.81,10.48,11.71,7.1-2.24,3.82,4.28-.64.57L62,390.32l-4.15-4.65ZM69.46,372,64.12,384.2l12.69-4Z"/><path class="cls-2" d="M34.08,325.59,48,317.73l2.52,4.44L48,323.86c3.5,1.37,6.42,4.1,8.75,8.22a22.5,22.5,0,0,1,3,9.08,14.1,14.1,0,0,1-1.5,7.94,14.5,14.5,0,0,1-5.89,5.83l-.51.29a14,14,0,0,1-15.64-.82A22.18,22.18,0,0,1,30,347.16a26.2,26.2,0,0,1-3.16-8.27,13.28,13.28,0,0,1,.41-7,8.65,8.65,0,0,1,3.91-4.61l.19-.09,2.83,5-.19.11a3.69,3.69,0,0,0-1.7,2.65,10.37,10.37,0,0,0,.19,4.45,19.39,19.39,0,0,0,2.06,5.15q2.82,5,6.61,6.5a8.68,8.68,0,0,0,7.83-.78l.68-.38a8.76,8.76,0,0,0,4.76-6.25q.63-3.9-2.28-9.07a18.28,18.28,0,0,0-4-5,13.48,13.48,0,0,0-4.8-2.68l-2,1.13,7.45,13.16-4.39,2.5Z"/><path class="cls-2" d="M33,275.11l.82-.24,1.64,5.49-5.61,4.88,4.49,15.05,7.37,1,1.64,5.5-.82.24L11.1,302.29l-1.79-6Zm-7.33,13.83-10,8.73,13.17,1.83Z"/><polygon class="cls-2" points="0 237.91 0.85 237.83 30.73 248.53 31.33 255.01 3.92 271.01 3.07 271.1 2.54 265.38 25.64 252.26 0.53 243.62 0 237.91"/><polygon class="cls-2" points="3.59 193 8.62 193.56 6.36 213.57 13.5 214.38 15.65 195.26 20.67 195.83 18.52 214.95 25.75 215.76 28 195.74 33.02 196.31 30.14 221.94 0.71 218.62 3.59 193"/><path class="cls-2" d="M36.63,150.31a3.09,3.09,0,0,1-2.52-.09,3.17,3.17,0,0,1-1.8-1.77A3.72,3.72,0,0,1,34.24,144a3.17,3.17,0,0,1,2.52.09,3.13,3.13,0,0,1,1.79,1.78,3.71,3.71,0,0,1-1.92,4.44"/><polygon class="cls-2" points="51.46 87.41 60.74 95.47 72.55 81.86 63.27 73.81 66.97 69.55 89.34 88.97 85.64 93.23 76.36 85.18 64.55 98.79 73.83 106.83 70.12 111.1 47.76 91.67 51.46 87.41"/><polygon class="cls-2" points="104.18 38.96 107.22 43 91.11 55.09 95.42 60.83 110.8 49.29 113.84 53.33 98.45 64.88 102.81 70.69 118.92 58.6 121.96 62.65 101.34 78.12 83.56 54.44 104.18 38.96"/><path class="cls-2" d="M140.84,50.5a14.05,14.05,0,0,1-7.74-2.24,14.54,14.54,0,0,1-5.23-6.35l-.24-.54a14.63,14.63,0,0,1-1.33-8.15,14,14,0,0,1,3.4-7.31,21.73,21.73,0,0,1,7.67-5.51A22.62,22.62,0,0,1,146,18.28a14.47,14.47,0,0,1,7.35,1.55,10.26,10.26,0,0,1,4.62,4.9l.15.33-5.23,2.37-.15-.34a5.45,5.45,0,0,0-2.81-2.76,9.39,9.39,0,0,0-4.71-.7,17.2,17.2,0,0,0-5.64,1.55q-5.19,2.34-6.92,5.9a8.88,8.88,0,0,0,.21,7.84l.32.7a8.81,8.81,0,0,0,5.72,5.32q3.79,1,9-1.34a17.26,17.26,0,0,0,5-3.24,9,9,0,0,0,2.55-3.92,5.49,5.49,0,0,0-.25-3.95l-.14-.33,5.22-2.37.15.33A10.16,10.16,0,0,1,161,36.8a14.59,14.59,0,0,1-3.69,6.54,22.47,22.47,0,0,1-7.25,5,21.51,21.51,0,0,1-9.2,2.13"/><polygon class="cls-2" points="179.16 6.53 181.53 18.57 199.2 15.09 196.82 3.04 202.36 1.94 208.1 31 202.56 32.09 200.18 20.05 182.51 23.53 184.89 35.58 179.35 36.68 173.62 7.62 179.16 6.53"/><path class="cls-2" d="M231.16,28.52A13.88,13.88,0,0,1,225.33,23a14.72,14.72,0,0,1-1.83-8v-.49a15,15,0,0,1,2.42-7.92,13.86,13.86,0,0,1,6.24-5,23.29,23.29,0,0,1,18.21.67,13.79,13.79,0,0,1,5.83,5.5A14.82,14.82,0,0,1,258,15.76l0,.5a14.74,14.74,0,0,1-2.41,7.89,13.84,13.84,0,0,1-6.19,5,20.78,20.78,0,0,1-9.18,1.52,21,21,0,0,1-9.07-2.18M249,23.23a8.94,8.94,0,0,0,3.27-7.08l0-.63a9.15,9.15,0,0,0-2.74-7.36q-2.91-2.7-8.41-2.91c-3.67-.14-6.55.63-8.63,2.28a9,9,0,0,0-3.28,7.14l0,.63A8.93,8.93,0,0,0,232,22.61c2,1.77,4.77,2.73,8.44,2.86s6.53-.61,8.59-2.24"/><polygon class="cls-2" points="333.42 22.74 331.51 27.42 312.87 19.8 310.15 26.45 327.96 33.72 326.05 38.41 308.24 31.13 305.49 37.86 324.13 45.47 322.22 50.16 298.35 40.4 309.56 12.99 333.42 22.74"/><polygon class="cls-2" points="376.59 49.42 359.82 73.84 355.25 70.69 352.5 42.47 340.21 60.37 335.66 57.25 352.43 32.84 357.01 35.98 359.78 64.17 372.05 46.3 376.59 49.42"/><polygon class="cls-2" points="412.42 136.24 409.31 131.59 427.73 119.25 403.25 122.55 400.01 117.71 412.45 96.29 393.96 108.66 390.85 104.01 415.46 87.53 419.88 94.13 406.94 116.6 432.61 113.16 437.04 119.76 412.42 136.24"/><path class="cls-2" d="M455.78,164.91,451,166.66l-7-18.89-6.72,2.49,6.66,18-4.74,1.75-6.67-18-6.82,2.53,7,18.88L428,175.17,419.06,151l27.79-10.28Zm8.81-6.53L460.27,160l-9.82-17.3,4.36-1.62Z"/><polygon class="cls-2" points="464.63 216.21 449.14 206.32 437 220.12 436.15 220.25 435.21 213.63 444.86 202.82 432.59 195.07 431.65 188.47 432.51 188.34 447.99 198.22 460.13 184.43 460.98 184.31 461.92 190.92 452.28 201.77 464.56 209.51 465.48 216.1 464.63 216.21"/><rect class="cls-2" x="447.79" y="224.09" width="5.65" height="29.62" transform="translate(198.92 682.49) rotate(-88.36)"/><path class="cls-2" d="M434.87,264.81a14,14,0,0,1,6.34-4.95,14.53,14.53,0,0,1,8.22-.53l.57.12a14.67,14.67,0,0,1,7.4,3.68,14,14,0,0,1,3.93,7.05,21.71,21.71,0,0,1,0,9.43,22.25,22.25,0,0,1-3.29,8.2,14.27,14.27,0,0,1-5.56,5,10.12,10.12,0,0,1-6.67.9l-.36-.08,1.14-5.62.35.07a5.53,5.53,0,0,0,3.89-.65,9.42,9.42,0,0,0,3.32-3.42,17.06,17.06,0,0,0,2.05-5.48c.75-3.71.5-6.74-.75-9.06a8.83,8.83,0,0,0-6.47-4.42l-.76-.16a8.86,8.86,0,0,0-7.66,1.54q-3,2.46-4.19,8.09a18,18,0,0,0-.28,5.91,9.27,9.27,0,0,0,1.7,4.38,5.55,5.55,0,0,0,3.35,2.1l.36.08-1.14,5.61-.35-.07a10.11,10.11,0,0,1-5.79-3.4,14.51,14.51,0,0,1-3.13-6.8,22.46,22.46,0,0,1,.15-8.85,21.89,21.89,0,0,1,3.65-8.71"/><path class="cls-2" d="M422,310.94a13.83,13.83,0,0,1,7.32-3.24,14.83,14.83,0,0,1,8.12,1.43l.45.22a14.84,14.84,0,0,1,6.35,5.3,13.92,13.92,0,0,1,2.23,7.72,21.14,21.14,0,0,1-2.18,9.05,20.88,20.88,0,0,1-5.52,7.45,13.91,13.91,0,0,1-7.33,3.24,14.79,14.79,0,0,1-8.14-1.46l-.45-.21a14.66,14.66,0,0,1-6.33-5.29,13.91,13.91,0,0,1-2.23-7.65,20.93,20.93,0,0,1,2.17-9.05,21.2,21.2,0,0,1,5.54-7.51m-2.07,18.5a8.9,8.9,0,0,0,5.26,5.76l.57.28a9.08,9.08,0,0,0,7.84.33q3.61-1.62,5.95-6.6t1.25-8.84a9,9,0,0,0-5.29-5.8l-.57-.27a9,9,0,0,0-7.81-.31q-3.6,1.67-5.92,6.66t-1.28,8.79"/><path class="cls-2" d="M177.67,225.17l3-15.85a.68.68,0,0,0-.15-.55.66.66,0,0,0-.51-.24H165.12a.68.68,0,0,0-.66.54L162,222.25c-1.53,8.31-16.32,10.86-21.39,11.09a.67.67,0,0,0-.62.54l-2.54,14a.67.67,0,0,0,.39.73c.18.07,17.8,8,15.95,18l-12,65.33c-2.51,11.62-12.38,10.73-15.35,10.19a.66.66,0,0,0-.77.52L122.79,357a.66.66,0,0,0,.52.78,30.67,30.67,0,0,0,22.15-4.14,30.67,30.67,0,0,0,18.73,12.51h.13a.7.7,0,0,0,.37-.11.68.68,0,0,0,.28-.42l3-14.31a.68.68,0,0,0-.51-.79,18.14,18.14,0,0,1-6.34-3.13c-3.65-2.91-4.81-6.87-3.67-12.47a.5.5,0,0,0,0-.12l12-65.29c.09-.46.14-.9.21-1.45,1.07-8.37-2-16.17-9.27-23.22,12.21-5.29,16.14-13.59,17.27-19.69"/><path class="cls-2" d="M345.59,342.15c-3,.54-12.83,1.43-15.34-10.18l-5.79-31.41a.67.67,0,0,0-.65-.55H309a.69.69,0,0,0-.52.24.71.71,0,0,0-.14.55l6.27,34s0,.08,0,.12c2.43,11.85-7.09,14.95-10.06,15.62a.65.65,0,0,0-.5.78l3,14.3a.67.67,0,0,0,.65.53h.13a30.69,30.69,0,0,0,18.74-12.51,30.67,30.67,0,0,0,22.15,4.14.67.67,0,0,0,.52-.78l-2.85-14.34a.66.66,0,0,0-.77-.52"/><path class="cls-2" d="M258.88,177.17h15.21a.67.67,0,0,0,.64-.48l6.39-22.19,13.2,70.67c1.13,6.1,5.06,14.4,17.27,19.7-7.21,7-10.33,14.84-9.27,23.2a.65.65,0,0,0,.66.58h14.8a.65.65,0,0,0,.65-.78l-.22-1.24c-1.57-8.44,10.74-15.39,14.55-17.32.81-.41,1.32-.64,1.37-.66a.67.67,0,0,0,.4-.73l-2.51-14a.68.68,0,0,0-.63-.55c-5.06-.23-19.86-2.78-21.4-11.1L291,120.5c3.26-10.32,12.6-9.11,15.39-8.49a.66.66,0,0,0,.79-.5l3.37-14.21a.59.59,0,0,0-.08-.5.63.63,0,0,0-.41-.3,30.62,30.62,0,0,0-22.28,3.32,30.69,30.69,0,0,0-18.26-13.19.68.68,0,0,0-.81.49l-3.54,14.17a.68.68,0,0,0,.48.81c2.85.75,12,4.07,9.66,15.19l-.05.13a3.42,3.42,0,0,0-.13.34l-16.88,58.56a.69.69,0,0,0,.11.59.65.65,0,0,0,.53.26"/><path class="cls-2" d="M164.82,111.52a.66.66,0,0,0,.79.49c2.79-.62,12.13-1.84,15.39,8.49l-10.43,55.88a.64.64,0,0,0,.14.55.66.66,0,0,0,.51.24h14.87a.66.66,0,0,0,.65-.54l4.13-22.13L218.68,251c.11.4.22.8.36,1.19a17.93,17.93,0,0,0,34-.18c.08-.25.16-.5.22-.74l12.08-41.88a.69.69,0,0,0-.11-.59.67.67,0,0,0-.53-.26H249.46a.65.65,0,0,0-.64.48l-10.9,37.85,0,.1a2,2,0,0,1-3.76.06L196.87,117.75a3.05,3.05,0,0,0-.13-.32l0-.06c-2.33-11.2,6.79-14.52,9.64-15.27a.67.67,0,0,0,.48-.81l-3.54-14.17a.67.67,0,0,0-.81-.49,30.69,30.69,0,0,0-18.26,13.19,30.67,30.67,0,0,0-22.28-3.32.65.65,0,0,0-.49.8Z"/><path class="cls-2" d="M140.66,292.3a.67.67,0,0,0,.66-.54L144,277.15a.67.67,0,0,0-.14-.55.69.69,0,0,0-.51-.24H132.21c-7.94,0-14.73-7.07-15.12-15.77a.52.52,0,0,0-.12-.31c-1.25-8.52-6.09-15.78-14.41-21.59,8.18-5.68,13-12.83,14.37-21.25,0-.13,0-.26,0-.39a.67.67,0,0,0,.12-.35c.34-8.75,7.12-15.88,15.12-15.88h63.1a.67.67,0,0,0,.53-.26A.66.66,0,0,0,196,200l-4.21-14.61a.65.65,0,0,0-.64-.48H132.21c-15.9,0-29.15,12.43-30.88,28.93l0,.13c0,.33-.07.65-.11,1-1.83,11.34-18.84,16-19,16a.66.66,0,0,0-.49.63l-.1,14.15a.68.68,0,0,0,.49.65c.18,0,18.14,5.06,19.23,17a.42.42,0,0,0,0,.16c1.78,16.45,15,28.83,30.87,28.83Z"/><path class="cls-2" d="M369.67,259.11H355.06a.67.67,0,0,0-.67.66c0,9.15-6.79,16.59-15.13,16.59h-80.7c-10.92,0-18.2,7-22.51,13.28-5.23-7.62-12-12.12-19.52-13.07a.69.69,0,0,0-.49-.21H176.59a.66.66,0,0,0-.65.55l-2.69,14.61a.66.66,0,0,0,.14.55.67.67,0,0,0,.51.24h39.53c10.13,0,14.74,18.59,14.78,18.78a.66.66,0,0,0,.64.52l14.26.08a.65.65,0,0,0,.64-.51c.05-.19,4.85-18.87,14.81-18.87h80.7c17.13,0,31.07-14.6,31.07-32.54a.66.66,0,0,0-.66-.66"/><path class="cls-2" d="M227.26,195.39a.65.65,0,0,0,.43.44.64.64,0,0,0,.61-.1,34.4,34.4,0,0,0,7.65-8.24,34.4,34.4,0,0,0,7.72,8.31,24.4,24.4,0,0,0,14.5,5h23a.67.67,0,0,0,.51-.24.64.64,0,0,0,.14-.55l-2.73-14.61a.66.66,0,0,0-.65-.54H258.56a8.64,8.64,0,0,1-2-.26c-2.61-.67-5-2.64-7.26-5.85a43.87,43.87,0,0,1-5.48-12.68.68.68,0,0,0-.65-.51l-14.25-.09h0a.66.66,0,0,0-.65.51,45.66,45.66,0,0,1-5.53,12.67.6.6,0,0,0-.09.55Z"/><path class="cls-2" d="M383.28,232.33a15.45,15.45,0,0,1-6.45-2c-4.37-2.56-6.5-7.29-6.5-14.46a.61.61,0,0,0,0-.24c0-.5-.06-1-.11-1.5-1.61-16.69-14.9-29.27-30.92-29.27H311.65a.67.67,0,0,0-.51.24.66.66,0,0,0-.14.54l2.73,14.62a.66.66,0,0,0,.65.54h24.88c7.64,0,14.25,6.52,15.05,14.86,0,.27,0,.54,0,.82v.22c-.16,6.53-2.15,10.91-6.09,13.41a15.4,15.4,0,0,1-6.91,2.2.67.67,0,0,0-.49.25.62.62,0,0,0-.13.52l2.58,14.44h0a.66.66,0,0,0,.73.54,31.33,31.33,0,0,0,11.9-4,28,28,0,0,0,6.46-5.21,30.42,30.42,0,0,0,20.82,9.37h0a.67.67,0,0,0,.66-.67l0-14.61a.66.66,0,0,0-.64-.66"/></g></g></g></svg>