<svg xmlns="http://www.w3.org/2000/svg" viewBox="0 0 1212.83 264.64"><defs><style>.cls-1{font-size:49.08px;fill:#ff5100;}.cls-1,.cls-6{font-family:Baskerville;}.cls-2{letter-spacing:-0.08em;}.cls-3{letter-spacing:0em;}.cls-4{letter-spacing:-0.03em;}.cls-5{fill:none;stroke:#b2b2b2;stroke-miterlimit:10;stroke-width:1.55px;}.cls-6{font-size:24.82px;fill:#4d4d4d;}.cls-7{font-size:31.03px;}.cls-8{letter-spacing:-0.01em;}.cls-9{letter-spacing:-0.01em;}.cls-10{letter-spacing:-0.03em;}.cls-11{letter-spacing:-0.02em;}.cls-12{letter-spacing:0.02em;}.cls-13{letter-spacing:0.02em;}.cls-14{letter-spacing:0.14em;}.cls-15{letter-spacing:-0.08em;}.cls-16{letter-spacing:-0.06em;}.cls-17{letter-spacing:0.04em;}.cls-18{letter-spacing:0.01em;}.cls-19{letter-spacing:-0.1em;}.cls-20{letter-spacing:-0.07em;}.cls-21{letter-spacing:-0.01em;}</style></defs><g id="Capa_2" data-name="Capa 2"><g id="Our_Tequilas" data-name="Our Tequilas"><text class="cls-1" transform="translate(0 40.96)"><tspan class="cls-2">T</tspan><tspan class="cls-3" x="30.12" y="0">ASTING N</tspan><tspan class="cls-4" x="265.29" y="0">O</tspan><tspan x="304.3" y="0">TES</tspan></text><line class="cls-5" x1="91.88" y1="70.18" x2="1212.83" y2="70.18"/><text class="cls-6" transform="translate(5.97 156.48)">NOSE:<tspan class="cls-7" x="74.2" y="0"> </tspan><tspan x="81.96" y="0">Do</tspan><tspan class="cls-8" x="113.24" y="0">n</tspan><tspan x="126.18" y="0">ut pea</tspan><tspan class="cls-9" x="187.98" y="0">c</tspan><tspan x="198.31" y="0">h, tangerin</tspan><tspan class="cls-10" x="306.9" y="0">e</tspan><tspan x="317.04" y="0">, mang</tspan><tspan class="cls-11" x="385.82" y="0">o</tspan><tspan x="397.76" y="0">, </tspan><tspan class="cls-12" x="410.17" y="0">g</tspan><tspan x="422.25" y="0">r</tspan><tspan class="cls-8" x="431.31" y="0">a</tspan><tspan x="442.7" y="0">ted lime </tspan><tspan class="cls-8" x="529.07" y="0">z</tspan><tspan x="539.43" y="0">est with </tspan><tspan class="cls-13" x="621.65" y="0">f</tspan><tspan x="628.85" y="0">loral notes o</tspan><tspan class="cls-14" x="750.64" y="0">f</tspan><tspan x="760.94" y="0" xml:space="preserve"> orange </tspan><tspan class="cls-8" x="842.13" y="0">b</tspan><tspan x="854.82" y="0">lossom and sun riped earth.</tspan></text><text class="cls-6" transform="translate(5.97 200.25)"><tspan class="cls-15">T</tspan><tspan x="15.23" y="0">ASTE:</tspan><tspan class="cls-7" x="84.52" y="0"> </tspan><tspan class="cls-16" x="92.28" y="0">F</tspan><tspan x="104.6" y="0">ruity &amp; </tspan><tspan class="cls-13" x="181.13" y="0">f</tspan><tspan x="188.33" y="0">loral with the s</tspan><tspan class="cls-8" x="334.95" y="0">w</tspan><tspan x="351.51" y="0">eet wa</tspan><tspan class="cls-17" x="415.12" y="0">r</tspan><tspan x="425.07" y="0">m notes o</tspan><tspan class="cls-14" x="521.77" y="0">f</tspan><tspan x="532.08" y="0" xml:space="preserve"> f</tspan><tspan class="cls-8" x="545.01" y="0">r</tspan><tspan x="553.82" y="0">esh a</tspan><tspan class="cls-18" x="603.98" y="0">g</tspan><tspan class="cls-10" x="615.86" y="0">a</tspan><tspan class="cls-11" x="626.78" y="0">v</tspan><tspan class="cls-10" x="637.69" y="0">e</tspan><tspan x="647.83" y="0">, pineapple and pea</tspan><tspan class="cls-19" x="843.32" y="0">r</tspan><tspan x="849.84" y="0">.</tspan></text><text class="cls-6" transform="translate(5.97 244.23)">FINISH:<tspan class="cls-7" x="89.46" y="0"> </tspan><tspan x="97.21" y="0">Bright finish with subtle notes o</tspan><tspan class="cls-14" x="410.61" y="0">f</tspan><tspan x="420.91" y="0" xml:space="preserve"> salted japaleño &amp; </tspan><tspan class="cls-8" x="604.76" y="0">w</tspan><tspan x="621.32" y="0">hite p</tspan><tspan class="cls-18" x="677.95" y="0">e</tspan><tspan x="689.05" y="0">ppe</tspan><tspan class="cls-19" x="725.77" y="0">r</tspan><tspan x="732.29" y="0">.</tspan></text><text class="cls-6" transform="translate(5.97 118.3)">CO<tspan class="cls-11" x="38.26" y="0">L</tspan><tspan x="52.78" y="0">OR:</tspan><tspan class="cls-7" x="97.5" y="0"> </tspan><tspan class="cls-20" x="105.26" y="0">T</tspan><tspan x="120.74" y="0">ranspa</tspan><tspan class="cls-21" x="187.46" y="0">r</tspan><tspan x="196.27" y="0">ent with sil</tspan><tspan class="cls-11" x="303.83" y="0">v</tspan><tspan x="314.74" y="0">er hue</tspan><tspan class="cls-11" x="377.84" y="0">s</tspan><tspan x="385.64" y="0">.</tspan></text></g></g></svg>