<svg xmlns="http://www.w3.org/2000/svg" viewBox="0 0 82 82.08"><defs><style>.cls-1{fill:#ff5100;}</style></defs><g id="Capa_2" data-name="Capa 2"><g id="Capa_1-2" data-name="Capa 1"><g id="Capa_2-2" data-name="Capa 2"><g id="Pagina_Principal" data-name="Pagina Principal"><path class="cls-1" d="M64.11,68.34l.74-.65,2.57,2.87a1.89,1.89,0,0,1,.54-.71l.66-.59.62.69-.61.54a1.3,1.3,0,0,0-.44.59.5.5,0,0,0,.13.49l-.73.66Z"/><path class="cls-1" d="M60.71,71.14a2.2,2.2,0,0,1,1.26.21,2.09,2.09,0,0,1,.92.87l.37.62a2.11,2.11,0,0,1,.33,1.23,2.31,2.31,0,0,1-.41,1.21,3.47,3.47,0,0,1-1.09,1,3.41,3.41,0,0,1-1.38.49,2.38,2.38,0,0,1-1.26-.22,2.33,2.33,0,0,1-.92-.87L58.16,75a2.16,2.16,0,0,1,.07-2.43,3.23,3.23,0,0,1,1.08-1,3.35,3.35,0,0,1,1.4-.49m-1.85,2.26A1.25,1.25,0,0,0,59,74.53l.38.64a1.3,1.3,0,0,0,.94.65,2.43,2.43,0,0,0,2.23-1.34,1.25,1.25,0,0,0-.13-1.13L62,72.71a1.18,1.18,0,0,0-.93-.64,2,2,0,0,0-1.31.35,2.1,2.1,0,0,0-.93,1"/><path class="cls-1" d="M53.56,74.75a2.24,2.24,0,0,1,1.18.48,2.05,2.05,0,0,1,.71,1l.22.69a2.12,2.12,0,0,1,.06,1.27,2.38,2.38,0,0,1-.67,1.09,3.75,3.75,0,0,1-2.74.9,2.33,2.33,0,0,1-1.18-.49,2.22,2.22,0,0,1-.7-1.06L50.21,78a2.16,2.16,0,0,1,.6-2.35,3.39,3.39,0,0,1,1.28-.72,3.19,3.19,0,0,1,1.47-.17m-2.3,1.8a1.24,1.24,0,0,0-.12,1.12l.24.71a1.29,1.29,0,0,0,.76.85,2.32,2.32,0,0,0,2.48-.76,1.25,1.25,0,0,0,.12-1.14l-.23-.71a1.21,1.21,0,0,0-.77-.83,2.48,2.48,0,0,0-2.48.81"/><path class="cls-1" d="M42.84,77a1.11,1.11,0,0,1,.5.87V78A1.11,1.11,0,0,1,43,79a2.08,2.08,0,0,1-2.29.17,1.1,1.1,0,0,1-.49-.88v-.07a1.11,1.11,0,0,1,.35-.94A2.11,2.11,0,0,1,42.84,77m-1.62.63a.45.45,0,0,0-.16.41v.08a.48.48,0,0,0,.22.39.86.86,0,0,0,.52.11.84.84,0,0,0,.5-.19.46.46,0,0,0,.16-.41v0a.45.45,0,0,0-.22-.38.82.82,0,0,0-.51-.11.78.78,0,0,0-.51.19M42.27,82l-1,.07v-.15l4.35-5.41.94-.07v.14Zm4.95-2.56a1.07,1.07,0,0,1,.49.88v.07a1.12,1.12,0,0,1-.36.94,2.11,2.11,0,0,1-2.29.18,1.12,1.12,0,0,1-.49-.89v-.07a1.12,1.12,0,0,1,.36-.93A1.78,1.78,0,0,1,46,79.2a1.75,1.75,0,0,1,1.18.25m-1.62.63a.45.45,0,0,0-.16.41v.09a.5.5,0,0,0,.22.38.89.89,0,0,0,.53.11.84.84,0,0,0,.5-.19.46.46,0,0,0,.16-.41v-.09a.42.42,0,0,0-.22-.37,1,1,0,0,0-1,.07"/><path class="cls-1" d="M29.13,80.21A3.27,3.27,0,0,1,27.23,79a2.41,2.41,0,0,1-.16-2v-.1a2.43,2.43,0,0,1,1.27-1.61,3.31,3.31,0,0,1,2.28,0L33,76l-1.52,5ZM28.89,76a1.58,1.58,0,0,0-.82,1v.12c-.33,1.06.13,1.78,1.35,2.15l1.46.45,1-3.29L30.42,76a2.15,2.15,0,0,0-1.5,0"/><polygon class="cls-1" points="18.96 75.6 19.4 74.82 22.49 76.56 23.11 75.46 20.16 73.8 20.59 73.03 23.55 74.68 24.17 73.57 21.08 71.83 21.52 71.05 25.48 73.28 22.92 77.83 18.96 75.6"/><path class="cls-1" d="M12.36,62.79l.12-.1.67.75-.53,1.2,1.85,2.06,1.25-.39.67.75-.11.1-5.37,1.6-.73-.82Zm-.13,2.75-.94,2.15,2.24-.7Z"/><path class="cls-1" d="M6,57.36,8.45,56l.44.78-.44.3A3.11,3.11,0,0,1,10,58.51a3.84,3.84,0,0,1,.53,1.59,2.43,2.43,0,0,1-.26,1.4,2.6,2.6,0,0,1-1,1H9.18a2.46,2.46,0,0,1-2.75-.14,3.87,3.87,0,0,1-1.1-1.28,4.56,4.56,0,0,1-.56-1.46,2.33,2.33,0,0,1,.07-1.23,1.49,1.49,0,0,1,.69-.81h0l.49.87H6a.71.71,0,0,0-.3.47,2,2,0,0,0,0,.78,3.42,3.42,0,0,0,.37.91,2.44,2.44,0,0,0,1.16,1.15,1.56,1.56,0,0,0,1.38-.14l.12-.07a1.55,1.55,0,0,0,.84-1.1,2.5,2.5,0,0,0-.4-1.6A3.57,3.57,0,0,0,8.48,58a2.23,2.23,0,0,0-.85-.47l-.35.2L8.59,60l-.77.44Z"/><path class="cls-1" d="M5.81,48.47H6l.29,1-1,.86L6,53l1.3.17.29,1H7.48L2,53.26,1.69,52.2ZM4.52,50.9,2.76,52.44l2.32.32Z"/><polygon class="cls-1" points="0 41.92 0.15 41.9 5.41 43.79 5.52 44.93 0.69 47.75 0.54 47.76 0.45 46.76 4.51 44.45 0.09 42.92 0 41.92"/><polygon class="cls-1" points="0.63 34.01 1.52 34.11 1.12 37.63 2.38 37.77 2.76 34.41 3.64 34.5 3.26 37.87 4.54 38.02 4.93 34.49 5.82 34.59 5.31 39.1 0.12 38.52 0.63 34.01"/><path class="cls-1" d="M6.45,26.49a.56.56,0,0,1-.44,0,.58.58,0,0,1-.32-.77A.57.57,0,0,1,6,25.37a.56.56,0,0,1,.44,0,.51.51,0,0,1,.32.32.58.58,0,0,1,0,.45.64.64,0,0,1-.32.33"/><polygon class="cls-1" points="9.06 15.41 10.7 16.83 12.78 14.43 11.14 13.01 11.8 12.26 15.74 15.68 15.09 16.43 13.45 15.01 11.37 17.41 13 18.83 12.35 19.58 8.41 16.16 9.06 15.41"/><polygon class="cls-1" points="18.35 6.87 18.89 7.59 16.05 9.71 16.81 10.72 19.52 8.69 20.05 9.4 17.34 11.44 18.11 12.46 20.95 10.33 21.48 11.05 17.85 13.77 14.72 9.6 18.35 6.87"/><path class="cls-1" d="M24.81,8.91a2.51,2.51,0,0,1-1.36-.4,2.67,2.67,0,0,1-.93-1.12V7.3a2.48,2.48,0,0,1-.23-1.44,2.41,2.41,0,0,1,.6-1.29,3.81,3.81,0,0,1,1.35-1,4,4,0,0,1,1.51-.37A2.46,2.46,0,0,1,27,3.5a1.82,1.82,0,0,1,.82.87h0l-.92.42V4.73a.94.94,0,0,0-.5-.48,1.58,1.58,0,0,0-.83-.13,2.91,2.91,0,0,0-1,.27,2.29,2.29,0,0,0-1.22,1.05,1.59,1.59,0,0,0,0,1.38l0,.12a1.63,1.63,0,0,0,1,.94A2.44,2.44,0,0,0,26,7.64a3.35,3.35,0,0,0,.87-.57,1.66,1.66,0,0,0,.45-.69,1.05,1.05,0,0,0,0-.7V5.62l.92-.41v.06a1.81,1.81,0,0,1,.11,1.17,2.69,2.69,0,0,1-.65,1.15,4.09,4.09,0,0,1-1.28.89,4,4,0,0,1-1.62.38"/><polygon class="cls-1" points="31.56 1.16 31.98 3.28 35.09 2.67 34.67 0.55 35.65 0.35 36.66 5.47 35.68 5.66 35.26 3.54 32.15 4.15 32.57 6.28 31.59 6.47 30.58 1.35 31.56 1.16"/><path class="cls-1" d="M40.72,5a2.47,2.47,0,0,1-1-1,2.63,2.63,0,0,1-.32-1.42v0a2.65,2.65,0,0,1,.43-1.4A2.32,2.32,0,0,1,40.9.28,4,4,0,0,1,44.1.4a2.3,2.3,0,0,1,1,1,2.59,2.59,0,0,1,.32,1.42V2.9A2.56,2.56,0,0,1,45,4.26a2.33,2.33,0,0,1-1.09.89,3.7,3.7,0,0,1-1.61.27A3.78,3.78,0,0,1,40.72,5m3.14-.93a1.57,1.57,0,0,0,.58-1.25V2.74A1.61,1.61,0,0,0,44,1.45a2.77,2.77,0,0,0-3-.11,1.54,1.54,0,0,0-.58,1.25V2.7A1.58,1.58,0,0,0,40.86,4a2.36,2.36,0,0,0,1.49.51,2.25,2.25,0,0,0,1.51-.4"/><polygon class="cls-1" points="58.73 4.02 58.39 4.84 55.11 3.5 54.63 4.67 57.77 5.95 57.43 6.78 54.3 5.49 53.81 6.68 57.09 8.02 56.76 8.85 52.55 7.13 54.53 2.3 58.73 4.02"/><polygon class="cls-1" points="66.33 8.72 63.38 13.02 62.58 12.46 62.09 7.49 59.93 10.64 59.13 10.1 62.08 5.79 62.89 6.35 63.37 11.31 65.53 8.17 66.33 8.72"/><polygon class="cls-1" points="72.65 24.01 72.1 23.19 75.34 21.02 71.03 21.6 70.46 20.74 72.65 16.97 69.39 19.15 68.85 18.33 73.18 15.43 73.96 16.59 71.68 20.55 76.2 19.94 76.98 21.1 72.65 24.01"/><path class="cls-1" d="M80.28,29.06l-.83.31L78.22,26,77,26.48l1.18,3.18-.84.3L76.2,26.79l-1.2.44,1.23,3.33-.84.31-1.57-4.26,4.89-1.81Zm1.56-1.15-.77.28-1.73-3.05.77-.28Z"/><polygon class="cls-1" points="81.84 38.09 79.11 36.35 76.98 38.78 76.83 38.81 76.66 37.64 78.36 35.74 76.2 34.37 76.03 33.21 76.18 33.18 78.91 34.93 81.05 32.5 81.2 32.48 81.36 33.64 79.67 35.55 81.83 36.92 81.99 38.07 81.84 38.09"/><rect class="cls-1" x="78.88" y="39.48" width="0.99" height="5.22" transform="translate(35.03 120.23) rotate(-88.36)"/><path class="cls-1" d="M76.6,46.65a2.46,2.46,0,0,1,1.12-.87,2.52,2.52,0,0,1,1.44-.09h.11a2.55,2.55,0,0,1,1.3.65,2.4,2.4,0,0,1,.69,1.24,3.87,3.87,0,0,1,0,1.66,4.05,4.05,0,0,1-.58,1.45,2.58,2.58,0,0,1-1,.88,1.85,1.85,0,0,1-1.18.16h-.06l.2-1h.06a1,1,0,0,0,.69-.11A1.7,1.7,0,0,0,80,50a2.8,2.8,0,0,0,.36-1,2.32,2.32,0,0,0-.13-1.6,1.55,1.55,0,0,0-1.14-.78H79a1.52,1.52,0,0,0-1.35.27,2.4,2.4,0,0,0-.74,1.42,3.35,3.35,0,0,0,0,1,1.7,1.7,0,0,0,.3.77,1,1,0,0,0,.59.37h.06l-.2,1H77.5a1.88,1.88,0,0,1-1-.6,2.69,2.69,0,0,1-.55-1.2,4.09,4.09,0,0,1,0-1.56,3.74,3.74,0,0,1,.64-1.54"/><path class="cls-1" d="M74.33,54.78a2.45,2.45,0,0,1,1.28-.57,2.52,2.52,0,0,1,1.43.25h.08a2.67,2.67,0,0,1,1.12.93,2.49,2.49,0,0,1,.4,1.36,4,4,0,0,1-1.39,2.91,2.44,2.44,0,0,1-1.29.57A2.63,2.63,0,0,1,74.55,60h-.08a2.68,2.68,0,0,1-1.11-1A2.44,2.44,0,0,1,73,57.7a3.52,3.52,0,0,1,.38-1.6,3.7,3.7,0,0,1,1-1.32M74,58a1.54,1.54,0,0,0,.93,1l.1.05a1.63,1.63,0,0,0,1.38.06,2.27,2.27,0,0,0,1-1.16,2.34,2.34,0,0,0,.22-1.56,1.58,1.58,0,0,0-.94-1h-.1a1.5,1.5,0,0,0-1.37,0A2.74,2.74,0,0,0,74,58"/><path class="cls-1" d="M31.3,39.67l.52-2.79a.17.17,0,0,0,0-.1H29.08a.11.11,0,0,0-.11.1l-.43,2.32c-.27,1.46-2.88,1.91-3.77,2a.11.11,0,0,0-.11.1l-.45,2.47a.13.13,0,0,0,.07.13s3.13,1.4,2.81,3.17L25,58.48a2.17,2.17,0,0,1-2.47,1.84l-.23,0a.11.11,0,0,0-.14.09l-.5,2.53a.12.12,0,0,0,.09.13h0a5.56,5.56,0,0,0,1,.1,5.25,5.25,0,0,0,2.88-.83,5.48,5.48,0,0,0,3.3,2.21H29v-.07l.52-2.53a.11.11,0,0,0-.09-.13h0a3.11,3.11,0,0,1-1.12-.56A2,2,0,0,1,27.73,59h0l2.12-11.5v-.26a4.78,4.78,0,0,0-1.64-4.09,4.72,4.72,0,0,0,3.05-3.47"/><path class="cls-1" d="M60.87,60.28a2.17,2.17,0,0,1-2.65-1.57,1.74,1.74,0,0,1,0-.22l-1-5.54a.12.12,0,0,0-.11-.09H54.42a.07.07,0,0,0-.09,0,.14.14,0,0,0,0,.09l1.11,6h0a2.17,2.17,0,0,1-1.5,2.69l-.27.06a.12.12,0,0,0-.09.14l.53,2.52a.13.13,0,0,0,.11.09h0a5.48,5.48,0,0,0,3.3-2.21,5.22,5.22,0,0,0,2.87.83,5.56,5.56,0,0,0,1-.1.11.11,0,0,0,.09-.13h0L61,60.37a.11.11,0,0,0-.14-.09"/><path class="cls-1" d="M45.6,31.22h2.68a.13.13,0,0,0,.11-.09l1.13-3.9,2.32,12.44a4.69,4.69,0,0,0,3,3.47,4.72,4.72,0,0,0-1.64,4.09.12.12,0,0,0,.12.1H56a.14.14,0,0,0,.09,0,.17.17,0,0,0,0-.1V47C55.81,45.53,58,44.3,58.66,44l.24-.11a.13.13,0,0,0,.07-.13l-.45-2.47a.11.11,0,0,0-.11-.1c-.89,0-3.5-.49-3.77-2L51.26,21.24a2.16,2.16,0,0,1,2.66-1.52l.08,0a.12.12,0,0,0,.14-.09l.59-2.5a.14.14,0,0,0,0-.09.1.1,0,0,0-.08,0,5.37,5.37,0,0,0-3.92.58,5.35,5.35,0,0,0-3.22-2.32.11.11,0,0,0-.14.07h0l-.62,2.5a.1.1,0,0,0,.07.13h0a2.16,2.16,0,0,1,1.73,2.53l0,.15h0v.06l-3,10.32a.17.17,0,0,0,0,.1.11.11,0,0,0,.09.05"/><path class="cls-1" d="M29,19.65a.12.12,0,0,0,.14.09,2.17,2.17,0,0,1,2.7,1.46v0L30,31.08a.14.14,0,0,0,0,.09.11.11,0,0,0,.09,0h2.62a.13.13,0,0,0,.11-.1l.73-3.89,4.9,17,.06.21a3.16,3.16,0,0,0,6,0v-.13l2.12-7.38a.09.09,0,0,0,0-.1.11.11,0,0,0-.09,0h-2.6a.12.12,0,0,0-.11.09l-1.92,6.66h0a.35.35,0,0,1-.33.24.38.38,0,0,1-.33-.23L34.68,20.75v-.06h0A2.18,2.18,0,0,1,36.25,18l.1,0a.11.11,0,0,0,.08-.14h0l-.62-2.49a.12.12,0,0,0-.12-.1h0a5.35,5.35,0,0,0-3.22,2.32,5.4,5.4,0,0,0-3.93-.6.1.1,0,0,0-.08.13h0Z"/><path class="cls-1" d="M24.78,51.5a.13.13,0,0,0,.11-.1l.48-2.57a.17.17,0,0,0,0-.1H23.28A2.81,2.81,0,0,1,20.62,46h0A5.61,5.61,0,0,0,18.07,42a5.61,5.61,0,0,0,2.53-3.7v-.13a2.82,2.82,0,0,1,2.67-2.8H34.5a.11.11,0,0,0,0-.11l-.75-2.57a.11.11,0,0,0-.11-.08H23.29a5.54,5.54,0,0,0-5.44,5.09h0v.17c-.32,2-3.31,2.81-3.35,2.81a.11.11,0,0,0-.08.12V43.3a.13.13,0,0,0,.09.11s3.19.89,3.38,3h0a5.57,5.57,0,0,0,5.44,5.08Z"/><path class="cls-1" d="M65.12,45.65H62.54a.11.11,0,0,0-.11.11h0a2.82,2.82,0,0,1-2.67,2.92H45.54a4.85,4.85,0,0,0-4,2.34,4.89,4.89,0,0,0-3.44-2.3.08.08,0,0,0-.09,0h-6.9a.12.12,0,0,0-.12.1l-.47,2.57a.17.17,0,0,0,0,.1h7.09c1.79,0,2.6,3.27,2.61,3.31a.13.13,0,0,0,.11.09h2.51a.12.12,0,0,0,.12-.09s.85-3.32,2.6-3.32h14.2a5.61,5.61,0,0,0,5.47-5.73.11.11,0,0,0-.1-.12h0"/><path class="cls-1" d="M40,34.43a.2.2,0,0,0,.08.08.17.17,0,0,0,.1,0A6.15,6.15,0,0,0,41.56,33a6.28,6.28,0,0,0,1.36,1.46,4.32,4.32,0,0,0,1.49.73,3.89,3.89,0,0,0,1.07.15h4.09a.17.17,0,0,0,0-.1l-.48-2.57a.11.11,0,0,0-.11-.09H45.13a2.36,2.36,0,0,1-1.28-1,7.71,7.71,0,0,1-1-2.23.11.11,0,0,0-.11-.09H40.23a.11.11,0,0,0-.12.09,8.28,8.28,0,0,1-1,2.23.17.17,0,0,0,0,.1Z"/><path class="cls-1" d="M67.51,40.93a2.45,2.45,0,0,1-2.33-2.55c0-.13,0-.25,0-.37h0v-.27a5.55,5.55,0,0,0-5.45-5.15H54.9a.07.07,0,0,0-.09,0v.09l.48,2.58a.12.12,0,0,0,.12.09h4.38A2.8,2.8,0,0,1,62.41,38v.15h0a2.67,2.67,0,0,1-1.07,2.37,2.77,2.77,0,0,1-1.22.38A.12.12,0,0,0,60,41a.14.14,0,0,0,0,.09l.45,2.54h0a.13.13,0,0,0,.13.1,5.61,5.61,0,0,0,2.1-.7,5.06,5.06,0,0,0,1.14-.92,5.35,5.35,0,0,0,3.66,1.65h0a.12.12,0,0,0,.12-.1V41a.12.12,0,0,0-.12-.12h0"/></g></g></g></g></svg>