<svg xmlns="http://www.w3.org/2000/svg" viewBox="0 0 82 82.07"><defs><style>.cls-1{fill:#fff;}</style></defs><g id="Capa_2" data-name="Capa 2"><g id="Pagina_Principal" data-name="Pagina Principal"><g id="Principal"><path class="cls-1" d="M64.11,68.33l.74-.65,2.57,2.87a2,2,0,0,1,.54-.71l.66-.59.62.69-.61.54a1.4,1.4,0,0,0-.44.59.51.51,0,0,0,.13.49l-.73.66Z"/><path class="cls-1" d="M60.71,71.13a2.22,2.22,0,0,1,1.26.21,2.19,2.19,0,0,1,.92.87l.37.62a2.12,2.12,0,0,1,.33,1.23,2.25,2.25,0,0,1-.41,1.21,3.39,3.39,0,0,1-1.09,1,3.33,3.33,0,0,1-1.38.49,2.31,2.31,0,0,1-1.26-.22,2.25,2.25,0,0,1-.92-.87L58.16,75a2.16,2.16,0,0,1,.07-2.43,3.25,3.25,0,0,1,1.08-1,3.46,3.46,0,0,1,1.4-.49m-1.85,2.26A1.25,1.25,0,0,0,59,74.52l.38.64a1.3,1.3,0,0,0,.94.65,2.43,2.43,0,0,0,2.23-1.34,1.24,1.24,0,0,0-.13-1.13L62,72.7a1.21,1.21,0,0,0-.93-.64,2,2,0,0,0-1.31.35,2.1,2.1,0,0,0-.93,1"/><path class="cls-1" d="M53.56,74.74a2.27,2.27,0,0,1,1.18.48,2.12,2.12,0,0,1,.71,1l.22.69a2.13,2.13,0,0,1,.06,1.27,2.29,2.29,0,0,1-.67,1.09,3.72,3.72,0,0,1-2.74.9,2.28,2.28,0,0,1-1.18-.49,2.18,2.18,0,0,1-.7-1.06L50.21,78a2.16,2.16,0,0,1,.6-2.35,3.45,3.45,0,0,1,1.28-.72,3.33,3.33,0,0,1,1.47-.17m-2.3,1.8a1.24,1.24,0,0,0-.12,1.12l.24.71a1.27,1.27,0,0,0,.76.85,2,2,0,0,0,1.35,0,2,2,0,0,0,1.13-.76,1.26,1.26,0,0,0,.12-1.14l-.23-.71a1.23,1.23,0,0,0-.77-.83,2.51,2.51,0,0,0-2.48.81"/><path class="cls-1" d="M42.84,77a1.13,1.13,0,0,1,.5.87V78a1.1,1.1,0,0,1-.36,1,2.08,2.08,0,0,1-2.29.17,1.09,1.09,0,0,1-.49-.88v-.07a1.12,1.12,0,0,1,.35-.94A2.13,2.13,0,0,1,42.84,77m-1.62.63a.48.48,0,0,0-.16.41v.08a.47.47,0,0,0,.22.39.84.84,0,0,0,.52.11.79.79,0,0,0,.5-.19.47.47,0,0,0,.16-.41V78a.46.46,0,0,0-.22-.38.81.81,0,0,0-.51-.11.84.84,0,0,0-.51.19M42.27,82l-1,.07v-.15l4.35-5.41.94-.07v.14Zm4.95-2.56a1.09,1.09,0,0,1,.49.88v.07a1.1,1.1,0,0,1-.36.94,1.81,1.81,0,0,1-1.12.43,1.84,1.84,0,0,1-1.17-.25,1.12,1.12,0,0,1-.49-.89v-.07a1.13,1.13,0,0,1,.36-.93A1.8,1.8,0,0,1,46,79.19a1.82,1.82,0,0,1,1.18.25m-1.62.63a.48.48,0,0,0-.16.41v.09a.5.5,0,0,0,.22.38.81.81,0,0,0,.53.11.79.79,0,0,0,.5-.19.47.47,0,0,0,.16-.41v-.09a.43.43,0,0,0-.22-.37,1,1,0,0,0-1,.07"/><path class="cls-1" d="M29.13,80.2a3.23,3.23,0,0,1-1.9-1.26,2.4,2.4,0,0,1-.16-2l0-.1a2.43,2.43,0,0,1,1.27-1.61,3.29,3.29,0,0,1,2.28,0l2.41.74-1.52,5ZM28.89,76a1.59,1.59,0,0,0-.82,1l0,.12c-.33,1.06.13,1.78,1.35,2.15l1.46.45,1-3.29-1.46-.45a2.15,2.15,0,0,0-1.5,0"/><polygon class="cls-1" points="18.96 75.59 19.4 74.81 22.49 76.55 23.11 75.45 20.16 73.79 20.59 73.02 23.55 74.67 24.17 73.56 21.08 71.82 21.52 71.04 25.48 73.27 22.92 77.82 18.96 75.59"/><path class="cls-1" d="M12.36,62.78l.12-.1.67.75-.53,1.2,1.85,2.06,1.25-.39.67.75-.11.1-5.37,1.6-.73-.82Zm-.13,2.75-.94,2.15,2.24-.7Z"/><path class="cls-1" d="M6,57.35,8.45,56l.44.78-.44.3A3.1,3.1,0,0,1,10,58.5a3.88,3.88,0,0,1,.53,1.59,2.43,2.43,0,0,1-.26,1.4,2.58,2.58,0,0,1-1,1l-.09,0a2.5,2.5,0,0,1-1.4.35,2.56,2.56,0,0,1-1.35-.49,3.88,3.88,0,0,1-1.1-1.28,4.51,4.51,0,0,1-.56-1.46,2.38,2.38,0,0,1,.07-1.23,1.52,1.52,0,0,1,.69-.81h0l.49.87,0,0a.7.7,0,0,0-.3.47,1.9,1.9,0,0,0,0,.78,3.17,3.17,0,0,0,.37.91,2.46,2.46,0,0,0,1.16,1.15,1.55,1.55,0,0,0,1.38-.14l.12-.07a1.55,1.55,0,0,0,.84-1.1,2.55,2.55,0,0,0-.4-1.6,3.38,3.38,0,0,0-.71-.88,2.32,2.32,0,0,0-.85-.47l-.35.2,1.31,2.31-.77.44Z"/><path class="cls-1" d="M5.81,48.46l.15,0,.29,1-1,.86.79,2.66,1.3.17.29,1-.15,0L2,53.25l-.31-1.06ZM4.52,50.89,2.76,52.43l2.32.32Z"/><polygon class="cls-1" points="0 41.91 0.15 41.89 5.41 43.78 5.52 44.92 0.69 47.74 0.54 47.75 0.45 46.75 4.51 44.44 0.09 42.91 0 41.91"/><polygon class="cls-1" points="0.63 34 1.52 34.1 1.12 37.62 2.38 37.76 2.76 34.4 3.64 34.49 3.26 37.86 4.54 38.01 4.93 34.48 5.82 34.58 5.31 39.09 0.12 38.51 0.63 34"/><path class="cls-1" d="M6.45,26.48a.56.56,0,0,1-.44,0,.57.57,0,0,1-.32-.31.62.62,0,0,1,0-.46A.59.59,0,0,1,6,25.36a.56.56,0,0,1,.44,0,.53.53,0,0,1,.32.32.59.59,0,0,1,0,.45.61.61,0,0,1-.32.33"/><polygon class="cls-1" points="9.06 15.4 10.7 16.82 12.78 14.42 11.14 13 11.8 12.25 15.74 15.67 15.09 16.42 13.45 15 11.37 17.4 13 18.82 12.35 19.57 8.41 16.15 9.06 15.4"/><polygon class="cls-1" points="18.35 6.86 18.89 7.58 16.05 9.7 16.81 10.71 19.52 8.68 20.05 9.39 17.34 11.43 18.11 12.45 20.95 10.32 21.48 11.04 17.85 13.76 14.72 9.59 18.35 6.86"/><path class="cls-1" d="M24.81,8.9a2.47,2.47,0,0,1-1.36-.4,2.59,2.59,0,0,1-.93-1.12l0-.09a2.55,2.55,0,0,1-.23-1.44,2.4,2.4,0,0,1,.6-1.29,3.79,3.79,0,0,1,1.35-1,4.08,4.08,0,0,1,1.51-.37A2.55,2.55,0,0,1,27,3.49a1.82,1.82,0,0,1,.82.87l0,0-.92.42,0-.06a1,1,0,0,0-.5-.48,1.67,1.67,0,0,0-.83-.13,3.19,3.19,0,0,0-1,.27,2.36,2.36,0,0,0-1.22,1.05,1.56,1.56,0,0,0,0,1.38l.05.12a1.61,1.61,0,0,0,1,.94,2.38,2.38,0,0,0,1.59-.24,3.12,3.12,0,0,0,.87-.57,1.58,1.58,0,0,0,.45-.69,1,1,0,0,0,0-.7l0-.06.92-.41,0,.06a1.81,1.81,0,0,1,.11,1.17,2.63,2.63,0,0,1-.65,1.15,4,4,0,0,1-1.28.89,3.89,3.89,0,0,1-1.62.38"/><polygon class="cls-1" points="31.56 1.15 31.98 3.27 35.09 2.66 34.67 0.54 35.65 0.34 36.66 5.46 35.68 5.65 35.26 3.53 32.15 4.14 32.57 6.27 31.59 6.46 30.58 1.34 31.56 1.15"/><path class="cls-1" d="M40.72,5a2.4,2.4,0,0,1-1-1,2.64,2.64,0,0,1-.32-1.42V2.56a2.6,2.6,0,0,1,.43-1.4A2.44,2.44,0,0,1,40.9.27a4,4,0,0,1,3.2.12,2.36,2.36,0,0,1,1,1,2.64,2.64,0,0,1,.32,1.42v.08A2.54,2.54,0,0,1,45,4.25a2.35,2.35,0,0,1-1.09.89,3.71,3.71,0,0,1-1.61.27A3.6,3.6,0,0,1,40.72,5m3.14-.93a1.56,1.56,0,0,0,.58-1.25V2.73A1.59,1.59,0,0,0,44,1.44,2.18,2.18,0,0,0,42.48.93a2.22,2.22,0,0,0-1.52.4,1.57,1.57,0,0,0-.58,1.25v.11A1.57,1.57,0,0,0,40.86,4a2.33,2.33,0,0,0,1.49.51,2.24,2.24,0,0,0,1.51-.4"/><polygon class="cls-1" points="58.73 4.01 58.39 4.83 55.11 3.49 54.63 4.66 57.77 5.94 57.43 6.77 54.3 5.48 53.81 6.67 57.09 8.01 56.76 8.84 52.55 7.12 54.53 2.29 58.73 4.01"/><polygon class="cls-1" points="66.33 8.71 63.38 13.01 62.58 12.45 62.09 7.48 59.93 10.63 59.13 10.09 62.08 5.78 62.89 6.34 63.37 11.3 65.53 8.16 66.33 8.71"/><polygon class="cls-1" points="72.65 24 72.1 23.18 75.34 21.01 71.03 21.59 70.46 20.73 72.65 16.96 69.39 19.14 68.85 18.32 73.18 15.42 73.96 16.58 71.68 20.54 76.2 19.93 76.98 21.09 72.65 24"/><path class="cls-1" d="M80.28,29.05l-.83.31L78.22,26,77,26.47l1.18,3.18-.84.3L76.2,26.78l-1.2.44,1.23,3.33-.84.31L73.82,26.6l4.89-1.81Zm1.56-1.15-.77.28-1.73-3.05.77-.28Z"/><polygon class="cls-1" points="81.84 38.08 79.11 36.34 76.98 38.77 76.83 38.8 76.66 37.63 78.36 35.73 76.2 34.36 76.03 33.2 76.18 33.17 78.91 34.92 81.05 32.49 81.2 32.47 81.36 33.63 79.67 35.54 81.83 36.91 81.99 38.06 81.84 38.08"/><rect class="cls-1" x="78.88" y="39.47" width="0.99" height="5.22" transform="translate(35.04 120.22) rotate(-88.36)"/><path class="cls-1" d="M76.6,46.64a2.54,2.54,0,0,1,1.12-.87,2.58,2.58,0,0,1,1.44-.09l.11,0a2.63,2.63,0,0,1,1.3.65,2.49,2.49,0,0,1,.69,1.24,3.86,3.86,0,0,1,0,1.66,4,4,0,0,1-.58,1.45,2.55,2.55,0,0,1-1,.88,1.79,1.79,0,0,1-1.18.16h-.06l.2-1h.06a1,1,0,0,0,.69-.11A1.63,1.63,0,0,0,80,50a2.74,2.74,0,0,0,.36-1,2.32,2.32,0,0,0-.13-1.6,1.56,1.56,0,0,0-1.14-.78l-.13,0a1.55,1.55,0,0,0-1.35.27,2.38,2.38,0,0,0-.74,1.42,3.11,3.11,0,0,0,0,1,1.68,1.68,0,0,0,.3.77.94.94,0,0,0,.59.37l.06,0-.2,1H77.5a1.91,1.91,0,0,1-1-.6,2.66,2.66,0,0,1-.55-1.2,4.12,4.12,0,0,1,0-1.56,3.77,3.77,0,0,1,.64-1.54"/><path class="cls-1" d="M74.33,54.77a2.51,2.51,0,0,1,1.28-.57,2.61,2.61,0,0,1,1.43.25l.08,0a2.66,2.66,0,0,1,1.12.93,2.52,2.52,0,0,1,.4,1.36,3.76,3.76,0,0,1-.39,1.6,3.71,3.71,0,0,1-1,1.31,2.35,2.35,0,0,1-1.29.57A2.58,2.58,0,0,1,74.55,60l-.08,0A2.69,2.69,0,0,1,73.36,59,2.42,2.42,0,0,1,73,57.69a3.63,3.63,0,0,1,.38-1.6,3.77,3.77,0,0,1,1-1.32M74,58a1.54,1.54,0,0,0,.93,1l.1.05a1.6,1.6,0,0,0,1.38.06,2.28,2.28,0,0,0,1-1.16,2.31,2.31,0,0,0,.22-1.56,1.6,1.6,0,0,0-.94-1l-.1,0a1.54,1.54,0,0,0-1.37,0A2.74,2.74,0,0,0,74,58"/><path class="cls-1" d="M31.3,39.66l.52-2.79a.13.13,0,0,0,0-.1.13.13,0,0,0-.09,0H29.08a.12.12,0,0,0-.11.1l-.43,2.32c-.27,1.46-2.88,1.91-3.77,2a.11.11,0,0,0-.11.1l-.45,2.47a.12.12,0,0,0,.07.13s3.13,1.4,2.81,3.17L25,58.47a2.18,2.18,0,0,1-2.7,1.8.12.12,0,0,0-.14.09l-.5,2.53a.11.11,0,0,0,.09.13,4.9,4.9,0,0,0,1,.1,5.22,5.22,0,0,0,2.88-.83,5.42,5.42,0,0,0,3.3,2.21h0l.07,0a.18.18,0,0,0,0-.07l.52-2.53a.11.11,0,0,0-.09-.13,3.17,3.17,0,0,1-1.12-.56A2,2,0,0,1,27.73,59v0l2.12-11.5c0-.08,0-.16,0-.26a4.78,4.78,0,0,0-1.64-4.09,4.7,4.7,0,0,0,3.05-3.47"/><path class="cls-1" d="M60.87,60.27a2.18,2.18,0,0,1-2.7-1.79l-1-5.54a.12.12,0,0,0-.11-.09H54.42a.1.1,0,0,0-.09,0,.14.14,0,0,0,0,.09l1.11,6v0a2.18,2.18,0,0,1-1.77,2.75.12.12,0,0,0-.09.14l.53,2.52a.12.12,0,0,0,.11.09h0a5.42,5.42,0,0,0,3.3-2.21,5.21,5.21,0,0,0,2.87.83,4.93,4.93,0,0,0,1-.1.11.11,0,0,0,.09-.13L61,60.36a.12.12,0,0,0-.14-.09"/><path class="cls-1" d="M45.6,31.21h2.68a.12.12,0,0,0,.11-.09l1.13-3.9,2.32,12.44a4.68,4.68,0,0,0,3,3.47,4.72,4.72,0,0,0-1.64,4.09.12.12,0,0,0,.12.1H56a.12.12,0,0,0,.09,0,.12.12,0,0,0,0-.1l0-.21c-.28-1.49,1.89-2.72,2.57-3.06l.24-.11a.12.12,0,0,0,.07-.13l-.45-2.47a.11.11,0,0,0-.11-.1c-.89,0-3.5-.49-3.77-2L51.26,21.23A2.17,2.17,0,0,1,54,19.73a.12.12,0,0,0,.14-.09l.59-2.5a.14.14,0,0,0,0-.09.11.11,0,0,0-.08-.05,5.41,5.41,0,0,0-3.92.58,5.38,5.38,0,0,0-3.22-2.32.11.11,0,0,0-.14.08l-.62,2.5a.11.11,0,0,0,.08.14,2.17,2.17,0,0,1,1.7,2.68v0a.14.14,0,0,1,0,.06l-3,10.32a.12.12,0,0,0,0,.1.11.11,0,0,0,.09.05"/><path class="cls-1" d="M29,19.64a.12.12,0,0,0,.14.09,2.17,2.17,0,0,1,2.71,1.5L30,31.07a.14.14,0,0,0,0,.09.11.11,0,0,0,.09.05h2.62a.12.12,0,0,0,.11-.1l.73-3.89,4.9,17,.06.21a3.16,3.16,0,0,0,6,0,.65.65,0,0,1,0-.13l2.12-7.38a.1.1,0,0,0,0-.1.11.11,0,0,0-.09-.05H43.94a.12.12,0,0,0-.11.09l-1.92,6.66v0a.35.35,0,0,1-.33.24.36.36,0,0,1-.33-.23L34.68,20.74a.14.14,0,0,1,0-.06h0A2.18,2.18,0,0,1,36.35,18a.11.11,0,0,0,.08-.14l-.62-2.49a.11.11,0,0,0-.14-.09,5.35,5.35,0,0,0-3.22,2.32A5.43,5.43,0,0,0,28.52,17a.11.11,0,0,0-.08.14Z"/><path class="cls-1" d="M24.78,51.49a.12.12,0,0,0,.11-.1l.48-2.57a.17.17,0,0,0,0-.1.13.13,0,0,0-.09,0h-2a2.81,2.81,0,0,1-2.66-2.78s0,0,0,0A5.62,5.62,0,0,0,18.07,42,5.61,5.61,0,0,0,20.6,38.3v-.07s0,0,0-.06a2.83,2.83,0,0,1,2.67-2.8H34.4a.13.13,0,0,0,.1,0,.14.14,0,0,0,0-.11l-.75-2.57a.11.11,0,0,0-.11-.08H23.29a5.54,5.54,0,0,0-5.44,5.09s0,0,0,0a1.11,1.11,0,0,1,0,.17c-.32,2-3.31,2.81-3.35,2.81a.12.12,0,0,0-.08.12l0,2.49a.12.12,0,0,0,.09.11s3.19.89,3.38,3v0a5.56,5.56,0,0,0,5.44,5.08Z"/><path class="cls-1" d="M65.12,45.64H62.54a.11.11,0,0,0-.11.12,2.81,2.81,0,0,1-2.67,2.92H45.54a4.86,4.86,0,0,0-4,2.34,4.93,4.93,0,0,0-3.44-2.3.1.1,0,0,0-.09,0H31.11a.12.12,0,0,0-.12.1l-.47,2.57a.12.12,0,0,0,0,.1.15.15,0,0,0,.09,0h7c1.79,0,2.6,3.27,2.61,3.31a.12.12,0,0,0,.11.09h2.51a.12.12,0,0,0,.12-.09s.85-3.32,2.6-3.32H59.76a5.61,5.61,0,0,0,5.47-5.73.11.11,0,0,0-.11-.12"/><path class="cls-1" d="M40,34.42a.15.15,0,0,0,.08.08.12.12,0,0,0,.1,0A5.9,5.9,0,0,0,41.56,33a6.17,6.17,0,0,0,1.36,1.46,4.22,4.22,0,0,0,1.49.73,3.84,3.84,0,0,0,1.07.15h4a.11.11,0,0,0,.09,0,.12.12,0,0,0,0-.1l-.48-2.57a.11.11,0,0,0-.11-.09h-3.5a1.48,1.48,0,0,1-.35,0,2.33,2.33,0,0,1-1.28-1,7.7,7.7,0,0,1-1-2.23.11.11,0,0,0-.11-.09l-2.51,0h0a.12.12,0,0,0-.12.09,8.16,8.16,0,0,1-1,2.23.12.12,0,0,0,0,.1Z"/><path class="cls-1" d="M67.51,40.92A2.44,2.44,0,0,1,65.23,38s0,0,0,0,0-.18,0-.27a5.56,5.56,0,0,0-5.45-5.15H54.9a.1.1,0,0,0-.09,0s0,.06,0,.09l.48,2.58a.12.12,0,0,0,.12.09h4.38A2.8,2.8,0,0,1,62.41,38a.76.76,0,0,1,0,.15v0a2.66,2.66,0,0,1-1.07,2.37,2.61,2.61,0,0,1-1.22.38A.12.12,0,0,0,60,41a.1.1,0,0,0,0,.09l.45,2.54h0a.13.13,0,0,0,.13.1,5.52,5.52,0,0,0,2.1-.7,5.06,5.06,0,0,0,1.14-.92,5.32,5.32,0,0,0,3.66,1.65h0a.11.11,0,0,0,.12-.12V41a.12.12,0,0,0-.12-.12"/></g></g></g></svg>