<svg xmlns="http://www.w3.org/2000/svg" viewBox="0 0 24.67 24.67"><defs><style>.cls-1{fill:#343434;}</style></defs><g id="Capa_2" data-name="Capa 2"><g id="Capa_1-2" data-name="Capa 1"><path class="cls-1" d="M18.87,4.4a1.45,1.45,0,1,0,1.44,1.45A1.45,1.45,0,0,0,18.87,4.4Z"/><path class="cls-1" d="M12.44,6.26a6.08,6.08,0,1,0,6.07,6.07A6.08,6.08,0,0,0,12.44,6.26Zm0,10a3.9,3.9,0,1,1,3.89-3.9A3.91,3.91,0,0,1,12.44,16.23Z"/><path class="cls-1" d="M17.26,24.67H7.41A7.41,7.41,0,0,1,0,17.26V7.41A7.41,7.41,0,0,1,7.41,0h9.85a7.42,7.42,0,0,1,7.41,7.41v9.85A7.42,7.42,0,0,1,17.26,24.67ZM7.41,2.32A5.09,5.09,0,0,0,2.32,7.41v9.85a5.09,5.09,0,0,0,5.09,5.09h9.85a5.09,5.09,0,0,0,5.09-5.09V7.41a5.09,5.09,0,0,0-5.09-5.09Z"/></g></g></svg>