<svg xmlns="http://www.w3.org/2000/svg" viewBox="0 0 506.62 133.91"><defs><style>.cls-1{fill:#ff4d00;}</style></defs><g id="Capa_2" data-name="Capa 2"><g id="Capa_1-2" data-name="Capa 1"><g id="Logo"><path class="cls-1" d="M37.44,133.06a33.89,33.89,0,0,1-13-2.92c-4.53-1.89-8.51-5.32-12.12-10.29S5.79,108,3.44,99.28,0,79.22,0,65.33c0-12.52,1.08-22.81,3.26-31s4.88-14.74,8.13-19.71S18.27,6.17,22.24,4.29A26.67,26.67,0,0,1,33.46,1.37a14.11,14.11,0,0,1,4.16.52,23.72,23.72,0,0,1,3.25,1.2c1.09.51,2,.85,2.9,1.2a7.61,7.61,0,0,0,2.71.51C49.19,4.8,51,3.26,51.9,0h1.45V28H51.9a73.86,73.86,0,0,0-4.52-12.69A37,37,0,0,0,42.5,7.55a13.54,13.54,0,0,0-4.88-3.78,11.53,11.53,0,0,0-4.34-1q-3,0-5.43,3.09T23.51,16.12a121.1,121.1,0,0,0-2.89,19Q19.52,47,19.53,64.47a255.71,255.71,0,0,0,1.63,31.89q1.62,12.6,4.34,20.06c1.81,5,4,8.4,6.51,10.46A12.78,12.78,0,0,0,40.33,130a13.73,13.73,0,0,0,7.41-2.06,30.33,30.33,0,0,0,6.33-5.49l1.09,1a29.83,29.83,0,0,1-6.87,6.35,18.32,18.32,0,0,1-10.85,3.26Z"/><path class="cls-1" d="M104.35,133.91c-8.86,0-15.91-2.23-21-6.68s-7.6-11.66-7.6-21.61v-77c0-5.31,0-9.6-.18-12.68a48.17,48.17,0,0,0-.72-7,5.17,5.17,0,0,0-1.63-3.09,10,10,0,0,0-3.08-1.37v-1H99.83v1a10,10,0,0,0-3.07,1.37,5.12,5.12,0,0,0-1.63,3.09,48.17,48.17,0,0,0-.72,7c-.18,3.08-.18,7.37-.18,12.68v78c0,8.92,1.08,15.26,3.07,19s5.61,5.66,10.67,5.66c6,0,10.49-2.23,13.39-6.52s4.34-10.45,4.34-18.51v-77c0-5.14,0-9.26-.19-12.17a54.24,54.24,0,0,0-.72-7,6.37,6.37,0,0,0-2-3.6A13.58,13.58,0,0,0,119,4.11v-1h14.65v1a8.22,8.22,0,0,0-3.07,2.24A8.13,8.13,0,0,0,129,9.94a51.52,51.52,0,0,0-.72,6.86c-.18,2.92-.18,7-.18,12.18v77c0,8.74-1.81,15.43-5.25,20.23s-10,7.71-18.45,7.71Z"/><path class="cls-1" d="M148.67,130.31a8.85,8.85,0,0,0,2.89-1.37,5,5,0,0,0,1.63-3.09,48.17,48.17,0,0,0,.72-7c.18-3.08.18-7.37.18-12.68V28.29c0-5.31,0-9.6-.18-12.69a48.5,48.5,0,0,0-.72-7,5,5,0,0,0-1.63-3.08,10,10,0,0,0-3.07-1.38v-1h24.77a81.51,81.51,0,0,1,15,1.2,33,33,0,0,1,11.93,4.63,23.18,23.18,0,0,1,8.14,9.26c2,3.94,2.89,9.08,2.89,15.43A34.72,34.72,0,0,1,208.89,47a34.16,34.16,0,0,1-6.51,10.29,30,30,0,0,1-9.76,6.86,41.82,41.82,0,0,1-12.48,3.26,32.27,32.27,0,0,1,8.5,1.54,16.17,16.17,0,0,1,6.87,4.63,29.28,29.28,0,0,1,5.06,9.09,70.68,70.68,0,0,1,3.62,14.91q1.63,11.07,2.71,17.49c.73,4.29,1.45,7.55,2,9.77s1.09,3.61,1.63,4.12a3.1,3.1,0,0,0,2.17.86,6.44,6.44,0,0,0,3.26-.69c.9-.51,1.62-.86,2.17-1.2l.9.69c-.54.85-1.81,1.71-3.8,2.74s-5.06,1.54-9.22,1.54a22.37,22.37,0,0,1-8.14-1.2,11.46,11.46,0,0,1-5.43-4.63,29.31,29.31,0,0,1-3.43-9.26,145.67,145.67,0,0,1-2.35-15.43c-.91-7.71-1.81-13.88-2.53-18.34a42.58,42.58,0,0,0-2.72-10.29c-1.08-2.4-2.17-3.94-3.43-4.63a12.53,12.53,0,0,0-4.89-1.2v38.24c0,5.31,0,9.6.18,12.68a49.33,49.33,0,0,0,.73,7,5,5,0,0,0,1.63,3.09,9.91,9.91,0,0,0,3.07,1.37v1h-30v-1Zm24.42-63.95h.72c7.41,0,12.66-2.92,15.55-8.75s4.34-13.89,4.34-24a65.11,65.11,0,0,0-1.45-14.92,22,22,0,0,0-4.16-8.92,12.58,12.58,0,0,0-6.51-4.45,26.31,26.31,0,0,0-7.77-1h-.18Z"/><path class="cls-1" d="M229.51,130.48a7.9,7.9,0,0,0,1.81-1.71,11.37,11.37,0,0,0,1.81-3.6,51.46,51.46,0,0,0,1.63-6.17c.54-2.58,1.08-5.83,1.63-9.78l14.28-88.13-1.08-6.17c-.73-4.46-1.63-7.37-2.9-8.75A8.29,8.29,0,0,0,242.9,3.6V2.74H263a5,5,0,0,1,2,.35c.36.17.72.85.9,2.06l18.27,104.41c.54,3.61,1.09,6.52,1.63,8.92s1.08,4.46,1.63,6.17a10.91,10.91,0,0,0,1.8,3.78,6.06,6.06,0,0,0,2.54,1.71v1H265.14v-1a4.16,4.16,0,0,0,2.17-1,6.12,6.12,0,0,0,1.45-2.06,9.53,9.53,0,0,0,.54-3.6,46.84,46.84,0,0,0-.54-6.17l-4.34-23.83h-23l-2.53,15.43q-.82,5.91-1.09,9.77a22.06,22.06,0,0,0,.18,6.17,7.15,7.15,0,0,0,2,3.61,9.75,9.75,0,0,0,3.8,2v.86H229.51v-.86ZM251.88,28,241.81,91.28h22.25Z"/><path class="cls-1" d="M441.12,130.48a8.11,8.11,0,0,0,1.81-1.71,11.81,11.81,0,0,0,1.81-3.6,51.71,51.71,0,0,0,1.62-6.17c.55-2.58,1.09-5.83,1.63-9.78l14.29-88.13-1.09-6.17c-.72-4.46-1.62-7.37-2.89-8.75a8.31,8.31,0,0,0-3.8-2.57V2.74h20.08a5.13,5.13,0,0,1,2,.35c.36.17.72.85.9,2.06l18.27,104.41c.54,3.61,1.08,6.52,1.62,8.92s1.09,4.46,1.63,6.17a11.08,11.08,0,0,0,1.81,3.78,6,6,0,0,0,2.53,1.71v1H476.75v-1a4.16,4.16,0,0,0,2.17-1,6.1,6.1,0,0,0,1.44-2.06,9.31,9.31,0,0,0,.55-3.6,45.46,45.46,0,0,0-.55-6.17L476,93.45h-23l-2.54,15.43q-.81,5.91-1.08,9.77a22.06,22.06,0,0,0,.18,6.17,7.15,7.15,0,0,0,2,3.61,9.68,9.68,0,0,0,3.8,2v.86H441.12v-.86ZM463.49,28,453.42,91.28h22.25Z"/><path class="cls-1" d="M307.28,128.94a6.87,6.87,0,0,0,1.63-3.6,54.64,54.64,0,0,0,.72-7c.18-2.92.18-7,.18-12.17V29c0-5.32,0-9.6-.18-12.69a54.13,54.13,0,0,0-.72-7.2c-.36-1.72-.9-2.92-1.63-3.43a10,10,0,0,0-3.07-1.37v-1h22.24a4,4,0,0,1,2.17.51c.55.34,1.09,1.55,1.63,3.43l13.57,79.05L358.64,3.09h25v1a10,10,0,0,0-3.07,1.38,5,5,0,0,0-1.63,3.08,48.5,48.5,0,0,0-.72,7C378,18.69,378,23,378,28.29v77.85c0,5.31,0,9.6.18,12.68a48.17,48.17,0,0,0,.72,7,5,5,0,0,0,1.63,3.09,10,10,0,0,0,3.07,1.37v1H353.22v-1a9.91,9.91,0,0,0,3.07-1.37,5,5,0,0,0,1.63-3.09,48.17,48.17,0,0,0,.72-7c.19-3.08.19-7.37.19-12.68V12L337.49,132h-2.18L311.8,11.32v94.13c0,5.14,0,9.26.19,12.17a46.8,46.8,0,0,0,.9,6.86,6.87,6.87,0,0,0,2,3.6,9.26,9.26,0,0,0,3.8,2.23v1H304.21v-1A5.45,5.45,0,0,0,307.28,128.94Z"/><path class="cls-1" d="M399.52,130.65a9.85,9.85,0,0,0,3.08-1.37c.72-.51,1.26-1.71,1.62-3.43a52.2,52.2,0,0,0,.73-7.2c.18-3.08.18-7.37.18-12.68V28.12c0-5.32,0-9.6-.18-12.69a46.68,46.68,0,0,0-.73-7,5.09,5.09,0,0,0-1.62-3.08,10.08,10.08,0,0,0-3.08-1.38v-1h29.84v1a10,10,0,0,0-3.07,1.38,5.09,5.09,0,0,0-1.63,3.08,48.34,48.34,0,0,0-.72,7c-.18,3.09-.18,7.37-.18,12.69V106c0,5.31,0,9.42.18,12.51a54.13,54.13,0,0,0,.72,7.2,5.12,5.12,0,0,0,1.63,3.26,10,10,0,0,0,3.07,1.37v1H399.52Z"/><path class="cls-1" d="M494.89,19.4a9.36,9.36,0,0,0,.12-1.86V8.8a2.48,2.48,0,0,0-.06-.74.82.82,0,0,0-.17-.32.9.9,0,0,0-.28-.16V7.42h2.75a7.55,7.55,0,0,1,3,.53,2.39,2.39,0,0,1,1.29,2.45,2.65,2.65,0,0,1-1,2.18,5.09,5.09,0,0,1-2.42,1,2.8,2.8,0,0,1,1.8.69,3.92,3.92,0,0,1,1,2.29c.11.69.22,1.22.28,1.6a6,6,0,0,0,.17.85.8.8,0,0,0,.16.37.21.21,0,0,0,.17.06.45.45,0,0,0,.4-.22l.16.16a3.81,3.81,0,0,1-.5.37,1.76,1.76,0,0,1-1,.22,1.42,1.42,0,0,1-1.18-.59,5.15,5.15,0,0,1-.62-2.39c-.11-.8-.23-1.44-.28-1.92a2.94,2.94,0,0,0-.23-1,.66.66,0,0,0-.39-.38,3.89,3.89,0,0,0-.79,0h-.05v3.67a9.78,9.78,0,0,0,.11,1.87.61.61,0,0,0,.51.43v.21h-3.09v-.21C494.85,19.58,494.89,19.4,494.89,19.4Zm4.44-9a3.17,3.17,0,0,0-.56-2.24,2.15,2.15,0,0,0-1.57-.53v5.86a1.72,1.72,0,0,0,1.68-.8,4.84,4.84,0,0,0,.45-2.24Z"/><path class="cls-1" d="M498.38,24.66c-4.55,0-8.25-4.91-8.25-11s3.7-11,8.25-11,8.24,4.92,8.24,11S502.93,24.66,498.38,24.66Zm0-21.38c-4.25,0-7.71,4.68-7.71,10.42s3.46,10.43,7.71,10.43,7.71-4.68,7.71-10.43S502.63,3.28,498.38,3.28Z"/></g></g></g></svg>