<svg xmlns="http://www.w3.org/2000/svg" viewBox="0 0 103.98 96.15"><defs><style>.cls-1{fill:#ff5100;}</style></defs><g id="Capa_2" data-name="Capa 2"><g id="Our_Tequilas" data-name="Our Tequilas"><path class="cls-1" d="M33.05,47.65l1-5.45A.25.25,0,0,0,34,42a.23.23,0,0,0-.18-.08H28.73a.22.22,0,0,0-.22.19l-.85,4.53c-.53,2.86-5.62,3.73-7.36,3.81a.24.24,0,0,0-.21.19l-.88,4.83a.24.24,0,0,0,.14.25c.06,0,6.12,2.74,5.48,6.18L20.69,84.38a4.23,4.23,0,0,1-5.27,3.5.23.23,0,0,0-.27.18l-1,4.93a.23.23,0,0,0,.18.27,10,10,0,0,0,2,.2A10.35,10.35,0,0,0,22,91.84a10.55,10.55,0,0,0,6.44,4.3h.05a.25.25,0,0,0,.12,0,.25.25,0,0,0,.1-.15l1-4.92a.23.23,0,0,0-.18-.27,6.26,6.26,0,0,1-2.18-1.08c-1.25-1-1.65-2.36-1.26-4.29,0,0,0,0,0,0l4.13-22.45c0-.16.05-.31.08-.5.36-2.88-.71-5.56-3.19-8,4.2-1.82,5.55-4.68,5.94-6.78"/><path class="cls-1" d="M90.8,87.88a4.24,4.24,0,0,1-5.28-3.5l-2-10.8a.22.22,0,0,0-.22-.19H78.2a.21.21,0,0,0-.18.09.24.24,0,0,0,0,.18l2.16,11.7v0a4.25,4.25,0,0,1-3.46,5.38.22.22,0,0,0-.17.27l1,4.91a.24.24,0,0,0,.23.19h0a10.6,10.6,0,0,0,6.45-4.3,10.32,10.32,0,0,0,5.61,1.62,10,10,0,0,0,2-.2A.22.22,0,0,0,92,93l-1-4.93a.23.23,0,0,0-.26-.18"/><path class="cls-1" d="M61,31.15h5.23a.23.23,0,0,0,.22-.17l2.2-7.63,4.53,24.3c.4,2.1,1.75,5,6,6.78-2.49,2.42-3.56,5.1-3.19,8a.23.23,0,0,0,.22.2h5.1a.23.23,0,0,0,.17-.08.27.27,0,0,0,0-.19l-.08-.43c-.54-2.9,3.7-5.29,5-5.95.28-.15.45-.22.47-.23a.22.22,0,0,0,.13-.25l-.86-4.83a.24.24,0,0,0-.21-.19c-1.74-.08-6.84-1-7.37-3.81L72,11.66a4.22,4.22,0,0,1,5.3-2.92.23.23,0,0,0,.27-.18l1.16-4.88a.29.29,0,0,0,0-.18.21.21,0,0,0-.14-.1,10.56,10.56,0,0,0-7.67,1.14A10.49,10.49,0,0,0,64.63,0a.22.22,0,0,0-.27.16L63.14,5.05a.22.22,0,0,0,.16.27,4.24,4.24,0,0,1,3.33,5.23l0,0a1.17,1.17,0,0,0,0,.11l-5.8,20.14a.23.23,0,0,0,0,.21.24.24,0,0,0,.18.09"/><path class="cls-1" d="M28.63,8.56a.23.23,0,0,0,.27.18,4.21,4.21,0,0,1,5.29,2.91L30.6,30.87a.23.23,0,0,0,.23.27h5.11a.23.23,0,0,0,.23-.18l1.42-7.61,9.56,33.18c0,.14.08.28.13.41A6.17,6.17,0,0,0,59,56.88c0-.08,0-.17.08-.25l4.15-14.41a.24.24,0,0,0,0-.2.21.21,0,0,0-.18-.09H57.74a.24.24,0,0,0-.22.16l-3.75,13v0a.69.69,0,0,1-1.3,0L39.65,10.71s0-.08,0-.11v0a4.22,4.22,0,0,1,3.31-5.25.24.24,0,0,0,.17-.28L41.86.17A.23.23,0,0,0,41.58,0,10.55,10.55,0,0,0,35.3,4.54,10.54,10.54,0,0,0,27.64,3.4a.22.22,0,0,0-.17.27Z"/><path class="cls-1" d="M20.32,70.74a.25.25,0,0,0,.23-.18l.92-5a.22.22,0,0,0,0-.19.23.23,0,0,0-.17-.08H17.41a5.51,5.51,0,0,1-5.2-5.42.21.21,0,0,0,0-.11A10.92,10.92,0,0,0,7.22,52.3,11,11,0,0,0,12.16,45s0-.08,0-.13a.16.16,0,0,0,0-.12,5.5,5.5,0,0,1,5.2-5.46H39.12a.26.26,0,0,0,.18-.09.24.24,0,0,0,0-.2l-1.44-5a.22.22,0,0,0-.22-.16H17.41A10.85,10.85,0,0,0,6.79,43.74s0,0,0,0a3.31,3.31,0,0,1,0,.33C6.12,48,.26,49.61.2,49.63a.22.22,0,0,0-.16.22l0,4.86a.23.23,0,0,0,.17.22c.06,0,6.24,1.74,6.61,5.84a.14.14,0,0,0,0,.06,10.84,10.84,0,0,0,10.61,9.91Z"/><path class="cls-1" d="M99.08,59.32h-5a.23.23,0,0,0-.23.23,5.48,5.48,0,0,1-5.21,5.71H60.87c-3.76,0-6.26,2.42-7.74,4.57a9.67,9.67,0,0,0-6.72-4.5.24.24,0,0,0-.17-.07H32.68a.24.24,0,0,0-.23.19l-.92,5a.19.19,0,0,0,0,.19.21.21,0,0,0,.17.08h13.6c3.48,0,5.06,6.4,5.08,6.46a.22.22,0,0,0,.22.18l4.9,0a.24.24,0,0,0,.23-.17c0-.07,1.66-6.5,5.09-6.5H88.62A11,11,0,0,0,99.31,59.55a.23.23,0,0,0-.23-.23"/><path class="cls-1" d="M50.1,37.41a.25.25,0,0,0,.15.15.2.2,0,0,0,.21,0,11.64,11.64,0,0,0,2.63-2.84,11.66,11.66,0,0,0,2.66,2.86,8.25,8.25,0,0,0,5,1.72h7.9a.25.25,0,0,0,.18-.08.22.22,0,0,0,0-.19l-.93-5a.23.23,0,0,0-.23-.18H60.87a2.86,2.86,0,0,1-.7-.09,4.56,4.56,0,0,1-2.5-2,15.3,15.3,0,0,1-1.89-4.35.22.22,0,0,0-.22-.18l-4.9,0h0a.22.22,0,0,0-.22.17,15.66,15.66,0,0,1-1.91,4.36.21.21,0,0,0,0,.19Z"/><path class="cls-1" d="M103.76,50.11a5.21,5.21,0,0,1-2.22-.68c-1.5-.88-2.23-2.5-2.23-5a.19.19,0,0,0,0-.08l0-.52A10.87,10.87,0,0,0,88.62,33.79H79.13a.26.26,0,0,0-.18.09.25.25,0,0,0,0,.19l.94,5a.24.24,0,0,0,.23.19h8.55a5.47,5.47,0,0,1,5.18,5.11,2.62,2.62,0,0,1,0,.28v.08c-.06,2.24-.74,3.75-2.1,4.61a5.35,5.35,0,0,1-2.37.76.21.21,0,0,0-.17.08.24.24,0,0,0-.05.18l.89,5h0a.22.22,0,0,0,.25.18,10.79,10.79,0,0,0,4.09-1.36,9.43,9.43,0,0,0,2.22-1.8,10.51,10.51,0,0,0,7.16,3.23h0a.28.28,0,0,0,.17-.07.23.23,0,0,0,.06-.16v-5a.24.24,0,0,0-.22-.23"/></g></g></svg>