<svg xmlns="http://www.w3.org/2000/svg" viewBox="0 0 150 39.65"><defs><style>.cls-1{fill:#f05e17;}</style></defs><g id="Capa_2" data-name="Capa 2"><g id="The_Process" data-name="The Process"><g id="Logo"><path class="cls-1" d="M11.08,39.39a10,10,0,0,1-3.85-.86,8.62,8.62,0,0,1-3.59-3A18.63,18.63,0,0,1,1,29.39a39.73,39.73,0,0,1-1-10,36.89,36.89,0,0,1,1-9.19A20.26,20.26,0,0,1,3.37,4.32,8.17,8.17,0,0,1,6.59,1.27,7.84,7.84,0,0,1,9.91.41a4.3,4.3,0,0,1,1.23.15,7.42,7.42,0,0,1,1,.35,8,8,0,0,0,.86.36,2.26,2.26,0,0,0,.8.15c.8,0,1.34-.46,1.61-1.42h.43V8.27h-.43A22.28,22.28,0,0,0,14,4.52a10.7,10.7,0,0,0-1.45-2.29,4,4,0,0,0-1.44-1.11A3.26,3.26,0,0,0,9.85.81a2,2,0,0,0-1.6.92A8.56,8.56,0,0,0,7,4.77a37.35,37.35,0,0,0-.86,5.64c-.21,2.33-.32,5.23-.32,8.68a76.28,76.28,0,0,0,.48,9.44,28.88,28.88,0,0,0,1.29,5.94,7,7,0,0,0,1.93,3.1,3.77,3.77,0,0,0,2.46.91,4.07,4.07,0,0,0,2.2-.61A8.93,8.93,0,0,0,16,36.25l.32.3a8.88,8.88,0,0,1-2,1.88,5.44,5.44,0,0,1-3.22,1Z"/><path class="cls-1" d="M30.9,39.65a9.08,9.08,0,0,1-6.21-2q-2.25-2-2.25-6.4V8.48c0-1.58,0-2.85-.06-3.76a13.56,13.56,0,0,0-.21-2.08,1.52,1.52,0,0,0-.48-.91,2.86,2.86,0,0,0-.91-.41V1h8.78v.3a2.66,2.66,0,0,0-.91.41,1.42,1.42,0,0,0-.48.91A14.67,14.67,0,0,0,28,4.72c-.05.91-.05,2.18-.05,3.76v23.1a12.83,12.83,0,0,0,.91,5.63A3.27,3.27,0,0,0,32,38.89a4.48,4.48,0,0,0,4-1.93,9.76,9.76,0,0,0,1.29-5.48V8.68c0-1.52,0-2.74-.06-3.6A14.81,14.81,0,0,0,37,3a1.92,1.92,0,0,0-.59-1.07,4.11,4.11,0,0,0-1.13-.71V.91h4.34v.31a2.38,2.38,0,0,0-.91.66,2.44,2.44,0,0,0-.48,1.06A14.3,14.3,0,0,0,38,5c-.06.86-.06,2.08-.06,3.6V31.37a10.1,10.1,0,0,1-1.55,6c-1,1.43-3,2.29-5.46,2.29Z"/><path class="cls-1" d="M44,38.58a2.59,2.59,0,0,0,.85-.4,1.53,1.53,0,0,0,.49-.92,14.63,14.63,0,0,0,.21-2.08c0-.91,0-2.18,0-3.76v-23c0-1.58,0-2.85,0-3.76a15,15,0,0,0-.21-2.08,1.53,1.53,0,0,0-.49-.92,2.88,2.88,0,0,0-.91-.4V.91H51.3a24.34,24.34,0,0,1,4.44.36,9.73,9.73,0,0,1,3.54,1.37,6.85,6.85,0,0,1,2.41,2.74A10.19,10.19,0,0,1,62.54,10a10.35,10.35,0,0,1-.69,4A10.16,10.16,0,0,1,59.92,17,8.93,8.93,0,0,1,57,19a12.51,12.51,0,0,1-3.7,1,9.33,9.33,0,0,1,2.52.46,4.76,4.76,0,0,1,2,1.37,8.92,8.92,0,0,1,1.5,2.69,21.84,21.84,0,0,1,1.07,4.42c.32,2.18.59,3.9.8,5.17s.43,2.24.59,2.9a3,3,0,0,0,.48,1.22.91.91,0,0,0,.64.25,2,2,0,0,0,1-.2c.26-.16.48-.26.64-.36l.27.2a3,3,0,0,1-1.13.82,6.3,6.3,0,0,1-2.73.45A6.74,6.74,0,0,1,58.58,39,3.39,3.39,0,0,1,57,37.62a8.75,8.75,0,0,1-1-2.74,44.86,44.86,0,0,1-.7-4.57c-.27-2.29-.53-4.11-.75-5.43a12.51,12.51,0,0,0-.8-3.05,2.75,2.75,0,0,0-1-1.37,3.7,3.7,0,0,0-1.44-.36V31.42c0,1.58,0,2.85,0,3.76a14.63,14.63,0,0,0,.21,2.08,1.53,1.53,0,0,0,.49.92,2.88,2.88,0,0,0,.91.4v.31H44v-.31Zm7.23-18.93h.21a4.72,4.72,0,0,0,4.61-2.59A16.38,16.38,0,0,0,57.35,10a19.29,19.29,0,0,0-.43-4.42,6.55,6.55,0,0,0-1.23-2.64,3.77,3.77,0,0,0-1.93-1.32,7.92,7.92,0,0,0-2.3-.3h-.05Z"/><path class="cls-1" d="M68,38.63a2.37,2.37,0,0,0,.54-.5A3.55,3.55,0,0,0,69,37.06a13.55,13.55,0,0,0,.49-1.83c.16-.76.32-1.72.48-2.89l4.23-26.1L73.9,4.42A5.42,5.42,0,0,0,73,1.83a2.41,2.41,0,0,0-1.12-.76V.81h5.94a1.53,1.53,0,0,1,.59.1c.11,0,.21.26.27.61l5.4,30.92c.17,1.07.33,1.93.49,2.64s.32,1.32.48,1.83A3.28,3.28,0,0,0,85.62,38a1.8,1.8,0,0,0,.75.51v.31H78.5v-.31a1.23,1.23,0,0,0,.64-.3,1.72,1.72,0,0,0,.43-.61,2.8,2.8,0,0,0,.16-1.07,13.53,13.53,0,0,0-.16-1.83l-1.28-7h-6.8l-.75,4.57c-.16,1.16-.27,2.13-.32,2.89a6.21,6.21,0,0,0,0,1.83A2.11,2.11,0,0,0,71.06,38a2.77,2.77,0,0,0,1.12.61v.26H68v-.26ZM74.58,8.29,71.59,27h6.59Z"/><path class="cls-1" d="M130.61,38.63a2.35,2.35,0,0,0,.53-.5,3.33,3.33,0,0,0,.54-1.07,15.48,15.48,0,0,0,.48-1.83c.16-.76.32-1.72.48-2.89l4.23-26.1-.32-1.82a5.42,5.42,0,0,0-.86-2.59,2.41,2.41,0,0,0-1.12-.76V.81h5.94a1.53,1.53,0,0,1,.59.1c.11,0,.21.26.27.61l5.41,30.92c.16,1.07.32,1.93.48,2.64s.32,1.32.48,1.83a3.1,3.1,0,0,0,.54,1.11,1.68,1.68,0,0,0,.75.51v.31h-7.88v-.31a1.27,1.27,0,0,0,.65-.3,1.84,1.84,0,0,0,.42-.61,2.78,2.78,0,0,0,.17-1.07,13.85,13.85,0,0,0-.17-1.83l-1.28-7h-6.8l-.75,4.57c-.16,1.16-.27,2.13-.32,2.89a6.21,6.21,0,0,0,.05,1.83,2.11,2.11,0,0,0,.59,1.06,2.75,2.75,0,0,0,1.13.61v.26h-4.23v-.26Zm6.62-30.34-3,18.74h6.58Z"/><path class="cls-1" d="M91,38.18a2.14,2.14,0,0,0,.48-1.07A16.61,16.61,0,0,0,91.68,35c0-.86,0-2.08,0-3.61V8.58c0-1.57,0-2.84,0-3.76a16.53,16.53,0,0,0-.22-2.13,1.69,1.69,0,0,0-.48-1,2.76,2.76,0,0,0-.91-.41V1h6.59a1.21,1.21,0,0,1,.64.16,2,2,0,0,1,.48,1l4,23.41L106.19.91h7.39v.31a2.88,2.88,0,0,0-.91.4,1.53,1.53,0,0,0-.49.92A15,15,0,0,0,112,4.62c0,.91,0,2.18,0,3.76v23c0,1.58,0,2.85,0,3.76a14.63,14.63,0,0,0,.21,2.08,1.53,1.53,0,0,0,.49.92,2.88,2.88,0,0,0,.91.4v.31h-9v-.31a3,3,0,0,0,.91-.4,1.53,1.53,0,0,0,.48-.92,14.32,14.32,0,0,0,.22-2.08c0-.91,0-2.18,0-3.76V3.55L99.92,39.09h-.64l-7-35.74V31.22c0,1.52,0,2.74.05,3.61a14.4,14.4,0,0,0,.27,2,2.07,2.07,0,0,0,.59,1.06,2.63,2.63,0,0,0,1.12.66v.31H90.07v-.3A1.67,1.67,0,0,0,91,38.18Z"/><path class="cls-1" d="M118.29,38.68a3,3,0,0,0,.91-.4,1.73,1.73,0,0,0,.48-1,16.53,16.53,0,0,0,.22-2.13c0-.91,0-2.18,0-3.76v-23c0-1.58,0-2.85,0-3.76a14.49,14.49,0,0,0-.22-2.08,1.58,1.58,0,0,0-.48-.92,3,3,0,0,0-.91-.4V.86h8.83v.31a3.1,3.1,0,0,0-.91.4,1.58,1.58,0,0,0-.48.92,14.8,14.8,0,0,0-.21,2.08c-.06.91-.06,2.18-.06,3.76v23c0,1.58,0,2.8.06,3.71a16.85,16.85,0,0,0,.21,2.13,1.59,1.59,0,0,0,.48,1,3.1,3.1,0,0,0,.91.4v.31h-8.83Z"/><path class="cls-1" d="M146.53,5.74a3.93,3.93,0,0,0,0-.55V2.61a.62.62,0,0,0,0-.22.19.19,0,0,0,0-.1l-.08,0v0h.82a2.22,2.22,0,0,1,.89.15.72.72,0,0,1,.39.73.79.79,0,0,1-.3.65,1.67,1.67,0,0,1-.72.3.77.77,0,0,1,.53.2,1.14,1.14,0,0,1,.29.68c0,.2.06.36.08.47a2.17,2.17,0,0,0,.05.25c0,.07,0,.1.05.11a.06.06,0,0,0,0,0,.16.16,0,0,0,.12-.06l.05,0a1,1,0,0,1-.15.11.51.51,0,0,1-.3.07.42.42,0,0,1-.35-.18,1.49,1.49,0,0,1-.19-.71c0-.23-.06-.42-.08-.56a.82.82,0,0,0-.07-.3c0-.07-.06-.1-.11-.11a.86.86,0,0,0-.23,0h0V5.13a3.93,3.93,0,0,0,0,.55.2.2,0,0,0,.15.13v.06h-.91V5.81S146.53,5.74,146.53,5.74Zm1.31-2.66a.9.9,0,0,0-.17-.66.61.61,0,0,0-.46-.16V4a.51.51,0,0,0,.5-.23,1.48,1.48,0,0,0,.13-.66Z"/><path class="cls-1" d="M147.56,7.3c-1.35,0-2.44-1.45-2.44-3.24S146.21.81,147.56.81,150,2.27,150,4.06,148.9,7.3,147.56,7.3Zm0-6.33c-1.26,0-2.28,1.39-2.28,3.09s1,3.08,2.28,3.08,2.28-1.38,2.28-3.08S148.82,1,147.56,1Z"/></g></g></g></svg>