<svg xmlns="http://www.w3.org/2000/svg" viewBox="0 0 24.21 19.92"><defs><style>.cls-1{fill:#343434;}</style></defs><g id="Capa_2" data-name="Capa 2"><g id="Capa_1-2" data-name="Capa 1"><path class="cls-1" d="M24.11,2.39a10,10,0,0,1-2.45.7c.39-.07,1-.78,1.2-1.07A4.29,4.29,0,0,0,23.67.54a.09.09,0,0,0,0-.13.15.15,0,0,0-.13,0,12.15,12.15,0,0,1-2.9,1.11.2.2,0,0,1-.2-.05,2.12,2.12,0,0,0-.26-.26,4.94,4.94,0,0,0-1.4-.86A4.84,4.84,0,0,0,16.62,0a5.2,5.2,0,0,0-2,.58,5.28,5.28,0,0,0-1.66,1.35,5.14,5.14,0,0,0-1,2,5.2,5.2,0,0,0,0,2.08c0,.12,0,.14-.1.12A15.5,15.5,0,0,1,1.81,1C1.7.9,1.63.9,1.54,1A5.06,5.06,0,0,0,2.4,7c.2.19.4.37.61.54A5,5,0,0,1,1.09,7C1,7,.91,7,.9,7.12a2.78,2.78,0,0,0,0,.57,5.11,5.11,0,0,0,3.15,4.08,2.78,2.78,0,0,0,.64.19A5.47,5.47,0,0,1,2.84,12c-.14,0-.19,0-.14.18a5.34,5.34,0,0,0,4,3.32c.18,0,.36,0,.54.07l0,0c-.45.68-2,1.19-2.71,1.44a9.77,9.77,0,0,1-4.12.53c-.22,0-.26,0-.32,0s0,.09.06.14c.28.19.57.35.86.51a12.85,12.85,0,0,0,2.75,1.1A14.63,14.63,0,0,0,17.91,16c2.92-2.9,3.94-6.89,3.94-10.89,0-.15.18-.24.29-.32a9.54,9.54,0,0,0,1.94-2,.66.66,0,0,0,.13-.38v0C24.21,2.32,24.2,2.34,24.11,2.39Z"/></g></g></svg>